M48
;DRILL file {KiCad (5.0.2)-1} date 05.06.2019 16:46:19
;FORMAT={-:-/ absolute / metric / decimal}
FMAT,2
METRIC,TZ
T1C0.600
T2C0.800
T3C1.000
T4C2.000
T5C2.400
T6C3.000
%
G90
G05
T1
X44.134Y47.241
X45.847Y58.674
X47.317Y63.68
X50.521Y32.133
X68.992Y54.649
X79.375Y57.023
X82.245Y32.428
X82.566Y69.597
X132.172Y65.455
X140.267Y69.179
X152.902Y71.116
X153.103Y74.239
T2
X103.632Y24.384
X113.792Y24.384
X43.053Y62.23
X43.053Y57.23
X109.728Y62.865
X109.728Y37.465
X112.268Y62.865
X112.268Y37.465
X114.808Y62.865
X114.808Y37.465
X117.348Y62.865
X117.348Y37.465
X119.888Y62.865
X119.888Y37.465
X122.428Y62.865
X122.428Y37.465
X124.968Y62.865
X124.968Y37.465
X127.508Y62.865
X127.508Y37.465
X130.048Y62.865
X130.048Y37.465
X132.588Y62.865
X132.588Y37.465
X135.128Y62.865
X135.128Y37.465
X137.668Y62.865
X137.668Y37.465
X140.208Y62.865
X140.208Y37.465
X142.748Y62.865
X142.748Y37.465
X145.288Y62.865
X145.288Y37.465
X147.828Y62.865
X147.828Y37.465
X150.368Y62.865
X150.368Y37.465
X152.908Y62.865
X152.908Y37.465
X155.448Y62.865
X155.448Y37.465
X26.416Y33.02
X26.416Y22.86
X94.568Y17.78
X99.568Y17.78
X50.038Y67.31
X50.038Y59.69
X52.578Y67.31
X52.578Y59.69
X55.118Y67.31
X55.118Y59.69
X57.658Y67.31
X57.658Y59.69
X60.198Y67.31
X60.198Y59.69
X62.738Y67.31
X62.738Y59.69
X65.278Y67.31
X65.278Y59.69
X67.818Y67.31
X67.818Y59.69
X84.074Y24.765
X84.074Y14.605
X89.154Y24.765
X89.154Y14.605
X39.37Y33.02
X39.37Y22.86
X72.136Y54.356
X82.296Y54.356
X6.223Y62.865
X8.723Y62.865
X6.223Y85.09
X6.223Y72.39
X8.763Y85.09
X8.763Y72.39
X11.303Y85.09
X11.303Y72.39
X13.843Y85.09
X13.843Y72.39
X16.383Y85.09
X16.383Y72.39
X18.923Y85.09
X18.923Y72.39
X21.463Y85.09
X21.463Y72.39
X24.003Y85.09
X24.003Y72.39
X40.64Y39.37
X40.64Y36.83
X34.925Y39.37
X34.925Y29.21
X78.994Y24.765
X78.994Y14.605
X96.052Y37.084
X98.552Y37.084
X96.012Y47.244
X98.512Y47.244
X34.163Y85.09
X34.163Y72.39
X36.703Y85.09
X36.703Y72.39
X39.243Y85.09
X39.243Y72.39
X41.783Y85.09
X41.783Y72.39
X44.323Y85.09
X44.323Y72.39
X46.863Y85.09
X46.863Y72.39
X49.403Y85.09
X49.403Y72.39
X51.943Y85.09
X51.943Y72.39
X21.59Y40.005
X21.59Y29.845
X30.988Y62.23
X30.988Y59.69
X30.988Y57.15
X30.988Y54.61
X30.988Y52.07
X30.988Y49.53
X30.988Y46.99
X30.988Y44.45
X38.608Y62.23
X38.608Y59.69
X38.608Y57.15
X38.608Y54.61
X38.608Y52.07
X38.608Y49.53
X38.608Y46.99
X38.608Y44.45
X52.578Y26.035
X52.578Y18.415
X55.118Y26.035
X55.118Y18.415
X57.658Y26.035
X57.658Y18.415
X60.198Y26.035
X60.198Y18.415
X62.738Y26.035
X62.738Y18.415
X65.278Y26.035
X65.278Y18.415
X67.818Y26.035
X67.818Y18.415
X70.358Y26.035
X70.358Y18.415
X72.898Y26.035
X72.898Y18.415
X103.632Y29.972
X113.792Y29.972
X6.223Y91.44
X8.723Y91.44
X97.028Y11.43
X99.028Y11.43
X6.223Y56.515
X6.223Y43.815
X8.763Y56.515
X8.763Y43.815
X11.303Y56.515
X11.303Y43.815
X13.843Y56.515
X13.843Y43.815
X16.383Y56.515
X16.383Y43.815
X18.923Y56.515
X18.923Y43.815
X21.463Y56.515
X21.463Y43.815
X24.003Y56.515
X24.003Y43.815
X30.226Y33.02
X30.226Y22.86
X86.868Y10.033
X91.868Y10.033
X62.103Y85.09
X62.103Y72.39
X64.643Y85.09
X64.643Y72.39
X67.183Y85.09
X67.183Y72.39
X69.723Y85.09
X69.723Y72.39
X72.263Y85.09
X72.263Y72.39
X74.803Y85.09
X74.803Y72.39
X77.343Y85.09
X77.343Y72.39
X79.883Y85.09
X79.883Y72.39
X78.613Y10.033
X83.613Y10.033
X34.163Y91.44
X36.663Y91.44
X27.94Y39.37
X27.94Y36.83
X104.648Y17.78
X109.648Y17.78
X93.98Y53.848
X98.98Y53.848
X70.358Y10.033
X75.358Y10.033
X71.628Y64.69
X71.628Y59.69
X62.103Y91.44
X64.603Y91.44
X104.648Y11.43
X106.648Y11.43
X43.18Y33.02
X43.18Y22.86
X94.06Y29.972
X99.06Y29.972
T3
X26.67Y19.05
X29.21Y19.05
X31.75Y19.05
X61.468Y5.08
X64.008Y5.08
X139.7Y24.13
X139.7Y21.59
X139.7Y19.05
X139.7Y16.51
X142.24Y24.13
X142.24Y21.59
X142.24Y19.05
X142.24Y16.51
X47.498Y8.255
X52.498Y8.255
X61.468Y10.16
X64.008Y10.16
X47.31Y50.038
X47.31Y32.258
X87.31Y50.038
X87.31Y32.258
X86.868Y5.207
X89.408Y5.207
X15.113Y62.865
X17.653Y62.865
X20.193Y62.865
X22.733Y62.865
X43.053Y91.44
X45.593Y91.44
X48.133Y91.44
X50.673Y91.44
X104.648Y5.08
X107.188Y5.08
X70.993Y91.44
X73.533Y91.44
X76.073Y91.44
X78.613Y91.44
X97.028Y5.08
X99.568Y5.08
X39.37Y19.05
X41.91Y19.05
X44.45Y19.05
X27.178Y8.255
X32.178Y8.255
X148.59Y85.725
X148.59Y83.185
X148.59Y80.645
X148.59Y78.105
X148.59Y75.565
X148.59Y73.025
X7.62Y28.575
X7.62Y23.575
X71.628Y5.08
X74.168Y5.08
X121.167Y20.82
X121.167Y18.28
X121.167Y15.74
X121.167Y13.2
X121.167Y10.66
X123.707Y20.82
X123.707Y18.28
X123.707Y15.74
X123.707Y13.2
X123.707Y10.66
X79.248Y5.207
X81.788Y5.207
X37.338Y8.255
X42.338Y8.255
X15.113Y91.44
X17.653Y91.44
X20.193Y91.44
X22.733Y91.44
T4
X7.365Y15.24
X16.765Y15.24
X7.365Y6.35
X16.765Y6.35
T5
X12.065Y15.24
X12.065Y6.35
T6
X133.35Y94.234
X29.083Y76.454
X136.906Y7.62
X10.033Y36.957
T0
M30
