M48
;DRILL file {KiCad (5.0.2)-1} date 10.05.2019 14:42:10
;FORMAT={-:-/ absolute / metric / decimal}
FMAT,2
METRIC,TZ
T1C0.400
T2C0.800
T3C1.000
T4C2.000
T5C2.400
T6C3.000
%
G90
G05
T1
X26.852Y23.33
X34.227Y18.407
X37.076Y79.401
X39.865Y83.501
X46.704Y93.439
X47.296Y95.917
X51.544Y59.627
X53.041Y53.261
X54.175Y96.119
X54.338Y93.439
X68.326Y55.521
X71.036Y57.768
X74.099Y57.768
X75.572Y63.055
X75.953Y51.919
X76.251Y54.577
X77.864Y55.957
X78.17Y64.362
X78.185Y57.788
X78.9Y49.057
X87.512Y25.773
X87.569Y23.273
X90.975Y88.665
X91.07Y83.655
X111.137Y84.497
X114.692Y64.936
T2
X28.702Y29.21
X38.862Y29.21
X85.725Y81.84
X85.725Y79.3
X85.725Y76.76
X85.725Y74.22
X85.725Y71.68
X85.725Y69.14
X85.725Y66.6
X85.725Y64.06
X85.725Y61.52
X85.725Y58.98
X85.725Y56.44
X85.725Y53.9
X85.725Y51.36
X85.725Y48.82
X85.725Y46.28
X85.725Y43.74
X85.725Y41.2
X85.725Y38.66
X85.725Y36.12
X111.125Y81.84
X111.125Y79.3
X111.125Y76.76
X111.125Y74.22
X111.125Y71.68
X111.125Y69.14
X111.125Y66.6
X111.125Y64.06
X111.125Y61.52
X111.125Y58.98
X111.125Y56.44
X111.125Y53.9
X111.125Y51.36
X111.125Y48.82
X111.125Y46.28
X111.125Y43.74
X111.125Y41.2
X111.125Y38.66
X111.125Y36.12
X91.44Y11.43
X93.44Y11.43
X55.753Y38.822
X55.753Y36.322
X21.082Y45.085
X31.242Y45.085
X75.565Y24.765
X75.565Y14.605
X65.405Y92.964
X65.405Y82.804
X61.087Y77.343
X61.087Y74.803
X61.087Y72.263
X61.087Y69.723
X61.087Y67.183
X61.087Y64.643
X61.087Y62.103
X61.087Y59.563
X73.787Y77.343
X73.787Y74.803
X73.787Y72.263
X73.787Y69.723
X73.787Y67.183
X73.787Y64.643
X73.787Y62.103
X73.787Y59.563
X81.026Y10.033
X86.026Y10.033
X5.83Y92.71
X5.83Y85.09
X8.37Y92.71
X8.37Y85.09
X10.91Y92.71
X10.91Y85.09
X13.45Y92.71
X13.45Y85.09
X15.99Y92.71
X15.99Y85.09
X18.53Y92.71
X18.53Y85.09
X21.07Y92.71
X21.07Y85.09
X23.61Y92.71
X23.61Y85.09
X15.367Y24.13
X25.527Y24.13
X42.037Y29.21
X52.197Y29.21
X36.068Y77.597
X36.068Y75.057
X36.068Y72.517
X36.068Y69.977
X36.068Y67.437
X36.068Y64.897
X36.068Y62.357
X36.068Y59.817
X48.768Y77.597
X48.768Y75.057
X48.768Y72.517
X48.768Y69.977
X48.768Y67.437
X48.768Y64.897
X48.768Y62.357
X48.768Y59.817
X61.468Y53.721
X61.468Y51.181
X61.468Y48.641
X61.468Y46.101
X61.468Y43.561
X61.468Y41.021
X61.468Y38.481
X61.468Y35.941
X74.168Y53.721
X74.168Y51.181
X74.168Y48.641
X74.168Y46.101
X74.168Y43.561
X74.168Y41.021
X74.168Y38.481
X74.168Y35.941
X42.958Y91.614
X42.958Y83.994
X45.498Y91.614
X45.498Y83.994
X48.038Y91.614
X48.038Y83.994
X50.578Y91.614
X50.578Y83.994
X53.118Y91.614
X53.118Y83.994
X55.658Y91.614
X55.658Y83.994
X58.198Y91.614
X58.198Y83.994
X60.738Y91.614
X60.738Y83.994
X28.69Y91.44
X28.69Y86.44
X35.56Y91.44
X35.56Y86.44
X28.702Y24.13
X38.862Y24.13
X42.037Y24.13
X52.197Y24.13
X85.725Y24.765
X85.725Y14.605
X62.738Y10.033
X67.738Y10.033
X55.372Y62.444
X55.372Y59.944
X65.405Y24.765
X65.405Y14.605
X69.85Y92.964
X69.85Y82.804
X30.353Y62.698
X30.353Y60.198
X5.08Y62.317
X5.08Y59.817
X70.485Y24.765
X70.485Y14.605
X99.695Y11.43
X101.695Y11.43
X15.367Y29.21
X25.527Y29.21
X10.795Y77.216
X10.795Y74.676
X10.795Y72.136
X10.795Y69.596
X10.795Y67.056
X10.795Y64.516
X10.795Y61.976
X10.795Y59.436
X23.495Y77.216
X23.495Y74.676
X23.495Y72.136
X23.495Y69.596
X23.495Y67.056
X23.495Y64.516
X23.495Y61.976
X23.495Y59.436
X80.645Y24.765
X80.645Y14.605
X71.882Y10.033
X76.882Y10.033
T3
X26.162Y19.05
X28.702Y19.05
X31.242Y19.05
X26.162Y8.255
X31.162Y8.255
X5.08Y75.692
X5.08Y73.152
X5.08Y70.612
X5.08Y68.072
X51.562Y8.255
X56.562Y8.255
X80.975Y62.345
X80.975Y59.805
X80.975Y57.265
X80.975Y54.725
X80.975Y52.185
X80.975Y49.645
X90.805Y5.08
X93.345Y5.08
X56.896Y30.353
X59.436Y30.353
X30.353Y76.073
X30.353Y73.533
X30.353Y70.993
X30.353Y68.453
X51.562Y17.145
X54.102Y17.145
X56.642Y17.145
X56.896Y24.765
X59.436Y24.765
X5.908Y54.229
X5.908Y36.449
X45.908Y54.229
X45.908Y36.449
X107.95Y12.7
X107.95Y10.16
X107.95Y7.62
X107.95Y5.08
X110.49Y12.7
X110.49Y10.16
X110.49Y7.62
X110.49Y5.08
X64.262Y5.207
X66.802Y5.207
X38.862Y19.05
X41.402Y19.05
X43.942Y19.05
X55.372Y75.819
X55.372Y73.279
X55.372Y70.739
X55.372Y68.199
X38.862Y8.255
X43.862Y8.255
X78.105Y91.44
X78.105Y88.9
X80.645Y91.44
X80.645Y88.9
X83.185Y91.44
X83.185Y88.9
X85.725Y91.44
X85.725Y88.9
X88.265Y91.44
X88.265Y88.9
X82.042Y5.207
X84.582Y5.207
X7.112Y28.575
X7.112Y23.575
X55.118Y52.197
X55.118Y49.657
X55.118Y47.117
X55.118Y44.577
X73.152Y5.207
X75.692Y5.207
X99.695Y5.08
X102.235Y5.08
T4
X6.857Y15.24
X16.257Y15.24
X6.857Y6.35
X16.257Y6.35
T5
X11.557Y15.24
X11.557Y6.35
T6
X97.155Y18.415
X19.267Y32.975
X113.067Y93.711
X17.145Y65.405
T0
M30
