M48
;DRILL file {KiCad (5.0.2)-1} date 31.05.2019 13:14:14
;FORMAT={-:-/ absolute / metric / decimal}
FMAT,2
METRIC,TZ
T1C0.400
T2C0.800
T3C1.000
T4C2.000
T5C2.400
T6C3.000
%
G90
G05
T1
X8.259Y37.039
X43.246Y37.073
X54.976Y82.529
X58.787Y84.529
X64.702Y74.994
X66.281Y65.101
X87.442Y61.585
X89.896Y35.012
X91.253Y58.504
X91.386Y63.413
X91.753Y40.389
X91.876Y37.289
X93.115Y66.189
X93.458Y61.107
X93.653Y35.53
X94.85Y62.746
X96.925Y64.181
X103.449Y75.044
X104.278Y78.053
X110.939Y27.047
X111.192Y68.009
X113.846Y69.642
X114.92Y68.075
X116.166Y23.225
T2
X10.708Y86.767
X10.708Y84.227
X10.708Y81.688
X10.708Y79.147
X10.708Y76.608
X10.708Y74.067
X10.708Y71.528
X10.708Y68.987
X23.408Y86.767
X23.408Y84.227
X23.408Y81.688
X23.408Y79.147
X23.408Y76.608
X23.408Y74.067
X23.408Y71.528
X23.408Y68.987
X15.367Y29.21
X25.527Y29.21
X32.662Y62.431
X32.662Y57.431
X90.17Y17.78
X95.17Y17.78
X76.54Y63.961
X81.54Y63.961
X62.738Y10.033
X67.738Y10.033
X91.44Y11.43
X93.44Y11.43
X12.977Y58.701
X23.137Y58.701
X108.775Y30.35
X113.775Y30.35
X81.026Y10.033
X86.026Y10.033
X51.839Y56.01
X54.339Y56.01
X15.367Y24.13
X25.527Y24.13
X51.458Y50.295
X51.458Y37.595
X53.998Y50.295
X53.998Y37.595
X56.538Y50.295
X56.538Y37.595
X59.078Y50.295
X59.078Y37.595
X61.618Y50.295
X61.618Y37.595
X64.158Y50.295
X64.158Y37.595
X66.698Y50.295
X66.698Y37.595
X69.238Y50.295
X69.238Y37.595
X39.012Y60.926
X39.012Y58.426
X28.702Y24.13
X38.862Y24.13
X92.632Y91.763
X92.632Y89.223
X92.632Y86.683
X92.632Y84.143
X92.632Y81.603
X92.632Y79.063
X92.632Y76.523
X92.632Y73.983
X100.252Y91.763
X100.252Y89.223
X100.252Y86.683
X100.252Y84.143
X100.252Y81.603
X100.252Y79.063
X100.252Y76.523
X100.252Y73.983
X99.06Y33.655
X99.06Y23.495
X82.55Y33.655
X82.55Y23.495
X67.128Y88.501
X67.128Y85.961
X67.128Y83.421
X67.128Y80.881
X67.128Y78.341
X67.128Y75.801
X67.128Y73.261
X67.128Y70.721
X79.828Y88.501
X79.828Y85.961
X79.828Y83.421
X79.828Y80.881
X79.828Y78.341
X79.828Y75.801
X79.828Y73.261
X79.828Y70.721
X109.22Y22.86
X111.72Y22.86
X99.695Y11.43
X101.695Y11.43
X50.8Y29.845
X50.8Y22.225
X53.34Y29.845
X53.34Y22.225
X55.88Y29.845
X55.88Y22.225
X58.42Y29.845
X58.42Y22.225
X60.96Y29.845
X60.96Y22.225
X63.5Y29.845
X63.5Y22.225
X66.04Y29.845
X66.04Y22.225
X68.58Y29.845
X68.58Y22.225
X71.12Y29.845
X71.12Y22.225
X81.277Y57.416
X81.277Y54.876
X81.277Y52.336
X81.277Y49.796
X81.277Y47.256
X81.277Y44.716
X81.277Y42.176
X81.277Y39.636
X88.897Y57.416
X88.897Y54.876
X88.897Y52.336
X88.897Y49.796
X88.897Y47.256
X88.897Y44.716
X88.897Y42.176
X88.897Y39.636
X34.076Y71.614
X34.076Y69.114
X99.14Y17.78
X104.14Y17.78
X77.47Y33.655
X77.47Y23.495
X4.993Y71.868
X4.993Y69.368
X28.702Y29.21
X38.862Y29.21
X94.076Y68.514
X99.076Y68.514
X109.946Y62.969
X109.946Y37.569
X112.486Y62.969
X112.486Y37.569
X115.026Y62.969
X115.026Y37.569
X117.566Y62.969
X117.566Y37.569
X120.106Y62.969
X120.106Y37.569
X122.646Y62.969
X122.646Y37.569
X125.186Y62.969
X125.186Y37.569
X127.726Y62.969
X127.726Y37.569
X130.266Y62.969
X130.266Y37.569
X132.806Y62.969
X132.806Y37.569
X135.346Y62.969
X135.346Y37.569
X137.886Y62.969
X137.886Y37.569
X140.426Y62.969
X140.426Y37.569
X142.966Y62.969
X142.966Y37.569
X145.506Y62.969
X145.506Y37.569
X148.046Y62.969
X148.046Y37.569
X150.586Y62.969
X150.586Y37.569
X153.126Y62.969
X153.126Y37.569
X155.666Y62.969
X155.666Y37.569
X93.345Y33.655
X93.345Y23.495
X61.413Y73.602
X61.413Y71.102
X39.791Y86.513
X39.791Y83.974
X39.791Y81.433
X39.791Y78.894
X39.791Y76.353
X39.791Y73.813
X39.791Y71.273
X39.791Y68.733
X52.491Y86.513
X52.491Y83.974
X52.491Y81.433
X52.491Y78.894
X52.491Y76.353
X52.491Y73.813
X52.491Y71.273
X52.491Y68.733
X87.63Y33.655
X87.63Y23.495
X71.882Y10.033
X76.882Y10.033
T3
X26.162Y19.05
X28.702Y19.05
X31.242Y19.05
X4.993Y85.243
X4.993Y82.703
X4.993Y80.163
X4.993Y77.623
X64.77Y17.145
X67.31Y17.145
X26.162Y8.255
X31.162Y8.255
X90.805Y5.08
X93.345Y5.08
X73.152Y5.207
X75.692Y5.207
X5.908Y54.229
X5.908Y36.449
X45.908Y54.229
X45.908Y36.449
X60.094Y56.645
X62.634Y56.645
X65.174Y56.645
X67.714Y56.645
X82.042Y5.207
X84.582Y5.207
X34.076Y84.989
X34.076Y82.45
X34.076Y79.909
X34.076Y77.37
X107.95Y12.7
X107.95Y10.16
X107.95Y7.62
X107.95Y5.08
X110.49Y12.7
X110.49Y10.16
X110.49Y7.62
X110.49Y5.08
X99.695Y5.08
X102.235Y5.08
X61.413Y86.977
X61.413Y84.437
X61.413Y81.897
X61.413Y79.357
X151.13Y88.265
X151.13Y85.725
X151.13Y83.185
X151.13Y80.645
X151.13Y78.105
X151.13Y75.565
X38.862Y8.255
X43.862Y8.255
X51.562Y8.255
X56.562Y8.255
X127.635Y20.32
X127.635Y17.78
X130.175Y20.32
X130.175Y17.78
X132.715Y20.32
X132.715Y17.78
X135.255Y20.32
X135.255Y17.78
X137.795Y20.32
X137.795Y17.78
X7.112Y28.575
X7.112Y23.575
X38.862Y19.05
X41.402Y19.05
X43.942Y19.05
X55.88Y17.145
X58.42Y17.145
X64.262Y5.207
X66.802Y5.207
T4
X6.857Y15.24
X16.257Y15.24
X6.857Y6.35
X16.257Y6.35
T5
X11.557Y15.24
X11.557Y6.35
T6
X6.179Y92.38
X145.415Y11.43
X98.939Y60.11
X20.262Y32.99
T0
M30
