G04 #@! TF.GenerationSoftware,KiCad,Pcbnew,(5.0.2)-1*
G04 #@! TF.CreationDate,2019-06-05T16:46:15+02:00*
G04 #@! TF.ProjectId,201904_Esp32ReprapController_Autorouted,32303139-3034-45f4-9573-703332526570,rev?*
G04 #@! TF.SameCoordinates,PX18392c0PY791ddc0*
G04 #@! TF.FileFunction,Copper,L2,Bot*
G04 #@! TF.FilePolarity,Positive*
%FSLAX46Y46*%
G04 Gerber Fmt 4.6, Leading zero omitted, Abs format (unit mm)*
G04 Created by KiCad (PCBNEW (5.0.2)-1) date 05.06.2019 16:46:15*
%MOMM*%
%LPD*%
G01*
G04 APERTURE LIST*
G04 #@! TA.AperFunction,ComponentPad*
%ADD10R,1.600000X1.600000*%
G04 #@! TD*
G04 #@! TA.AperFunction,ComponentPad*
%ADD11C,1.600000*%
G04 #@! TD*
G04 #@! TA.AperFunction,ComponentPad*
%ADD12O,1.600000X1.600000*%
G04 #@! TD*
G04 #@! TA.AperFunction,ComponentPad*
%ADD13O,2.400000X1.600000*%
G04 #@! TD*
G04 #@! TA.AperFunction,ComponentPad*
%ADD14R,2.400000X1.600000*%
G04 #@! TD*
G04 #@! TA.AperFunction,ComponentPad*
%ADD15R,1.600000X2.400000*%
G04 #@! TD*
G04 #@! TA.AperFunction,ComponentPad*
%ADD16O,1.600000X2.400000*%
G04 #@! TD*
G04 #@! TA.AperFunction,ComponentPad*
%ADD17C,2.400000*%
G04 #@! TD*
G04 #@! TA.AperFunction,ComponentPad*
%ADD18C,4.000000*%
G04 #@! TD*
G04 #@! TA.AperFunction,ComponentPad*
%ADD19R,2.600000X2.600000*%
G04 #@! TD*
G04 #@! TA.AperFunction,ComponentPad*
%ADD20C,2.600000*%
G04 #@! TD*
G04 #@! TA.AperFunction,ViaPad*
%ADD21C,2.000000*%
G04 #@! TD*
G04 #@! TA.AperFunction,Conductor*
%ADD22C,0.500000*%
G04 #@! TD*
G04 #@! TA.AperFunction,Conductor*
%ADD23C,0.300000*%
G04 #@! TD*
G04 #@! TA.AperFunction,Conductor*
%ADD24C,3.000000*%
G04 #@! TD*
G04 #@! TA.AperFunction,Conductor*
%ADD25C,2.000000*%
G04 #@! TD*
G04 #@! TA.AperFunction,Conductor*
%ADD26C,1.000000*%
G04 #@! TD*
G04 #@! TA.AperFunction,Conductor*
%ADD27C,5.000000*%
G04 #@! TD*
G04 #@! TA.AperFunction,Conductor*
%ADD28C,4.000000*%
G04 #@! TD*
G04 APERTURE END LIST*
D10*
G04 #@! TO.P,C22,1*
G04 #@! TO.N,/I39_T_NOZ*
X104648000Y11430000D03*
D11*
G04 #@! TO.P,C22,2*
G04 #@! TO.N,GND*
X106648000Y11430000D03*
G04 #@! TD*
D10*
G04 #@! TO.P,C20,1*
G04 #@! TO.N,/I36_T_BED*
X97028000Y11430000D03*
D11*
G04 #@! TO.P,C20,2*
G04 #@! TO.N,GND*
X99028000Y11430000D03*
G04 #@! TD*
D10*
G04 #@! TO.P,C3,1*
G04 #@! TO.N,VCC*
X98552000Y37084000D03*
D11*
G04 #@! TO.P,C3,2*
G04 #@! TO.N,GND*
X96052000Y37084000D03*
G04 #@! TD*
D10*
G04 #@! TO.P,C1,1*
G04 #@! TO.N,+5V*
X96012000Y47244000D03*
D11*
G04 #@! TO.P,C1,2*
G04 #@! TO.N,GND*
X98512000Y47244000D03*
G04 #@! TD*
D10*
G04 #@! TO.P,C110,1*
G04 #@! TO.N,+24V*
X6223000Y91440000D03*
D11*
G04 #@! TO.P,C110,2*
G04 #@! TO.N,GND*
X8723000Y91440000D03*
G04 #@! TD*
D10*
G04 #@! TO.P,C120,1*
G04 #@! TO.N,+24V*
X34163000Y91440000D03*
D11*
G04 #@! TO.P,C120,2*
G04 #@! TO.N,GND*
X36663000Y91440000D03*
G04 #@! TD*
D10*
G04 #@! TO.P,C140,1*
G04 #@! TO.N,+24V*
X6223000Y62865000D03*
D11*
G04 #@! TO.P,C140,2*
G04 #@! TO.N,GND*
X8723000Y62865000D03*
G04 #@! TD*
D10*
G04 #@! TO.P,C130,1*
G04 #@! TO.N,+24V*
X62103000Y91440000D03*
D11*
G04 #@! TO.P,C130,2*
G04 #@! TO.N,GND*
X64603000Y91440000D03*
G04 #@! TD*
G04 #@! TO.P,R16,1*
G04 #@! TO.N,GND*
X21590000Y29845000D03*
D12*
G04 #@! TO.P,R16,2*
G04 #@! TO.N,/IOx_BED*
X21590000Y40005000D03*
G04 #@! TD*
D11*
G04 #@! TO.P,D2,2*
G04 #@! TO.N,+24V*
X40640000Y39370000D03*
D10*
G04 #@! TO.P,D2,1*
G04 #@! TO.N,Net-(D2-Pad1)*
X40640000Y36830000D03*
G04 #@! TD*
G04 #@! TO.P,D3,1*
G04 #@! TO.N,Net-(D3-Pad1)*
X27940000Y36830000D03*
D11*
G04 #@! TO.P,D3,2*
G04 #@! TO.N,+24V*
X27940000Y39370000D03*
G04 #@! TD*
D12*
G04 #@! TO.P,R17,2*
G04 #@! TO.N,Net-(J11-Pad2)*
X26416000Y22860000D03*
D11*
G04 #@! TO.P,R17,1*
G04 #@! TO.N,Net-(D3-Pad1)*
X26416000Y33020000D03*
G04 #@! TD*
G04 #@! TO.P,R15,1*
G04 #@! TO.N,Net-(Q2-Pad1)*
X30226000Y22860000D03*
D12*
G04 #@! TO.P,R15,2*
G04 #@! TO.N,/IOx_BED*
X30226000Y33020000D03*
G04 #@! TD*
D13*
G04 #@! TO.P,U4,16*
G04 #@! TO.N,VCC*
X38608000Y62230000D03*
G04 #@! TO.P,U4,8*
G04 #@! TO.N,GND*
X30988000Y44450000D03*
G04 #@! TO.P,U4,15*
G04 #@! TO.N,/Q136*
X38608000Y59690000D03*
G04 #@! TO.P,U4,7*
G04 #@! TO.N,/Q143_FAN3*
X30988000Y46990000D03*
G04 #@! TO.P,U4,14*
G04 #@! TO.N,Net-(U3-Pad9)*
X38608000Y57150000D03*
G04 #@! TO.P,U4,6*
G04 #@! TO.N,/Q142_FAN2*
X30988000Y49530000D03*
G04 #@! TO.P,U4,13*
G04 #@! TO.N,GND*
X38608000Y54610000D03*
G04 #@! TO.P,U4,5*
G04 #@! TO.N,/Q141_E_DIR*
X30988000Y52070000D03*
G04 #@! TO.P,U4,12*
G04 #@! TO.N,/IO17_I2S_WS*
X38608000Y52070000D03*
G04 #@! TO.P,U4,4*
G04 #@! TO.N,/Q140_E_STEP*
X30988000Y54610000D03*
G04 #@! TO.P,U4,11*
G04 #@! TO.N,/IO21_I2S_BCK*
X38608000Y49530000D03*
G04 #@! TO.P,U4,3*
G04 #@! TO.N,/Q139_E_EN*
X30988000Y57150000D03*
G04 #@! TO.P,U4,10*
G04 #@! TO.N,VCC*
X38608000Y46990000D03*
G04 #@! TO.P,U4,2*
G04 #@! TO.N,/Q138_X_EN*
X30988000Y59690000D03*
G04 #@! TO.P,U4,9*
G04 #@! TO.N,Net-(U4-Pad9)*
X38608000Y44450000D03*
D14*
G04 #@! TO.P,U4,1*
G04 #@! TO.N,/Q137_X_STEP*
X30988000Y62230000D03*
G04 #@! TD*
D11*
G04 #@! TO.P,C4,2*
G04 #@! TO.N,GND*
X94060000Y29972000D03*
G04 #@! TO.P,C4,1*
G04 #@! TO.N,VCC*
X99060000Y29972000D03*
G04 #@! TD*
G04 #@! TO.P,C2,1*
G04 #@! TO.N,+5V*
X93980000Y53848000D03*
G04 #@! TO.P,C2,2*
G04 #@! TO.N,GND*
X98980000Y53848000D03*
G04 #@! TD*
G04 #@! TO.P,C21,2*
G04 #@! TO.N,GND*
X99568000Y17780000D03*
G04 #@! TO.P,C21,1*
G04 #@! TO.N,/I36_T_BED*
X94568000Y17780000D03*
G04 #@! TD*
G04 #@! TO.P,C23,1*
G04 #@! TO.N,/I39_T_NOZ*
X104648000Y17780000D03*
G04 #@! TO.P,C23,2*
G04 #@! TO.N,GND*
X109648000Y17780000D03*
G04 #@! TD*
D15*
G04 #@! TO.P,U5,1*
G04 #@! TO.N,/IOx_FAN1*
X72898000Y26035000D03*
D16*
G04 #@! TO.P,U5,10*
G04 #@! TO.N,+24V*
X52578000Y18415000D03*
G04 #@! TO.P,U5,2*
G04 #@! TO.N,/IOx_FAN1*
X70358000Y26035000D03*
G04 #@! TO.P,U5,11*
G04 #@! TO.N,Net-(J14-Pad2)*
X55118000Y18415000D03*
G04 #@! TO.P,U5,3*
G04 #@! TO.N,/IOx_FAN1*
X67818000Y26035000D03*
G04 #@! TO.P,U5,12*
G04 #@! TO.N,Net-(J14-Pad2)*
X57658000Y18415000D03*
G04 #@! TO.P,U5,4*
G04 #@! TO.N,/Q142_FAN2*
X65278000Y26035000D03*
G04 #@! TO.P,U5,13*
G04 #@! TO.N,Net-(J13-Pad2)*
X60198000Y18415000D03*
G04 #@! TO.P,U5,5*
G04 #@! TO.N,/Q142_FAN2*
X62738000Y26035000D03*
G04 #@! TO.P,U5,14*
G04 #@! TO.N,Net-(J13-Pad2)*
X62738000Y18415000D03*
G04 #@! TO.P,U5,6*
G04 #@! TO.N,/Q142_FAN2*
X60198000Y26035000D03*
G04 #@! TO.P,U5,15*
G04 #@! TO.N,Net-(J13-Pad2)*
X65278000Y18415000D03*
G04 #@! TO.P,U5,7*
G04 #@! TO.N,/Q143_FAN3*
X57658000Y26035000D03*
G04 #@! TO.P,U5,16*
G04 #@! TO.N,Net-(J12-Pad2)*
X67818000Y18415000D03*
G04 #@! TO.P,U5,8*
G04 #@! TO.N,/Q143_FAN3*
X55118000Y26035000D03*
G04 #@! TO.P,U5,17*
G04 #@! TO.N,Net-(J12-Pad2)*
X70358000Y18415000D03*
G04 #@! TO.P,U5,9*
G04 #@! TO.N,GND*
X52578000Y26035000D03*
G04 #@! TO.P,U5,18*
G04 #@! TO.N,Net-(J12-Pad2)*
X72898000Y18415000D03*
G04 #@! TD*
D11*
G04 #@! TO.P,R22,1*
G04 #@! TO.N,VCC*
X103632000Y24384000D03*
D12*
G04 #@! TO.P,R22,2*
G04 #@! TO.N,/I39_T_NOZ*
X113792000Y24384000D03*
G04 #@! TD*
D17*
G04 #@! TO.P,F2,*
G04 #@! TO.N,*
X12065000Y15240000D03*
D18*
G04 #@! TO.P,F2,2*
G04 #@! TO.N,/PWR_IN*
X7365000Y15240000D03*
G04 #@! TO.P,F2,1*
G04 #@! TO.N,+24V2*
X16765000Y15240000D03*
G04 #@! TD*
D19*
G04 #@! TO.P,J11,1*
G04 #@! TO.N,+24V2*
X27178000Y8255000D03*
D20*
G04 #@! TO.P,J11,2*
G04 #@! TO.N,Net-(J11-Pad2)*
X32178000Y8255000D03*
G04 #@! TD*
D15*
G04 #@! TO.P,J12,1*
G04 #@! TO.N,+24V*
X61468000Y5080000D03*
D16*
G04 #@! TO.P,J12,2*
G04 #@! TO.N,Net-(J12-Pad2)*
X64008000Y5080000D03*
G04 #@! TD*
D18*
G04 #@! TO.P,F1,1*
G04 #@! TO.N,+24V*
X16765000Y6350000D03*
G04 #@! TO.P,F1,2*
G04 #@! TO.N,/PWR_IN*
X7365000Y6350000D03*
D17*
G04 #@! TO.P,F1,*
G04 #@! TO.N,*
X12065000Y6350000D03*
G04 #@! TD*
D20*
G04 #@! TO.P,J1,2*
G04 #@! TO.N,/PWR_IN*
X7620000Y23575000D03*
D19*
G04 #@! TO.P,J1,1*
G04 #@! TO.N,GND*
X7620000Y28575000D03*
G04 #@! TD*
D16*
G04 #@! TO.P,J13,2*
G04 #@! TO.N,Net-(J13-Pad2)*
X64008000Y10160000D03*
D15*
G04 #@! TO.P,J13,1*
G04 #@! TO.N,+24V*
X61468000Y10160000D03*
G04 #@! TD*
D20*
G04 #@! TO.P,J10,2*
G04 #@! TO.N,Net-(J10-Pad2)*
X42338000Y8255000D03*
D19*
G04 #@! TO.P,J10,1*
G04 #@! TO.N,+24V*
X37338000Y8255000D03*
G04 #@! TD*
G04 #@! TO.P,J14,1*
G04 #@! TO.N,+24V*
X47498000Y8255000D03*
D20*
G04 #@! TO.P,J14,2*
G04 #@! TO.N,Net-(J14-Pad2)*
X52498000Y8255000D03*
G04 #@! TD*
D12*
G04 #@! TO.P,R10,2*
G04 #@! TO.N,/IOx_NOZZLE*
X43180000Y33020000D03*
D11*
G04 #@! TO.P,R10,1*
G04 #@! TO.N,Net-(Q1-Pad1)*
X43180000Y22860000D03*
G04 #@! TD*
D12*
G04 #@! TO.P,R11,2*
G04 #@! TO.N,/IOx_NOZZLE*
X34925000Y39370000D03*
D11*
G04 #@! TO.P,R11,1*
G04 #@! TO.N,GND*
X34925000Y29210000D03*
G04 #@! TD*
D16*
G04 #@! TO.P,Q1,3*
G04 #@! TO.N,GND*
X39370000Y19050000D03*
G04 #@! TO.P,Q1,2*
G04 #@! TO.N,Net-(J10-Pad2)*
X41910000Y19050000D03*
D15*
G04 #@! TO.P,Q1,1*
G04 #@! TO.N,Net-(Q1-Pad1)*
X44450000Y19050000D03*
G04 #@! TD*
D12*
G04 #@! TO.P,R12,2*
G04 #@! TO.N,Net-(J10-Pad2)*
X39370000Y22860000D03*
D11*
G04 #@! TO.P,R12,1*
G04 #@! TO.N,Net-(D2-Pad1)*
X39370000Y33020000D03*
G04 #@! TD*
D16*
G04 #@! TO.P,Q2,3*
G04 #@! TO.N,GND*
X26670000Y19050000D03*
G04 #@! TO.P,Q2,2*
G04 #@! TO.N,Net-(J11-Pad2)*
X29210000Y19050000D03*
D15*
G04 #@! TO.P,Q2,1*
G04 #@! TO.N,Net-(Q2-Pad1)*
X31750000Y19050000D03*
G04 #@! TD*
D10*
G04 #@! TO.P,D1,1*
G04 #@! TO.N,+24V*
X72136000Y54356000D03*
D12*
G04 #@! TO.P,D1,2*
G04 #@! TO.N,+5V*
X82296000Y54356000D03*
G04 #@! TD*
D15*
G04 #@! TO.P,A2,1*
G04 #@! TO.N,GND*
X51943000Y85090000D03*
D16*
G04 #@! TO.P,A2,9*
G04 #@! TO.N,/Q134_Y_EN*
X34163000Y72390000D03*
G04 #@! TO.P,A2,2*
G04 #@! TO.N,VCC*
X49403000Y85090000D03*
G04 #@! TO.P,A2,10*
X36703000Y72390000D03*
G04 #@! TO.P,A2,3*
G04 #@! TO.N,Net-(A2-Pad3)*
X46863000Y85090000D03*
G04 #@! TO.P,A2,11*
G04 #@! TO.N,VCC*
X39243000Y72390000D03*
G04 #@! TO.P,A2,4*
G04 #@! TO.N,Net-(A2-Pad4)*
X44323000Y85090000D03*
G04 #@! TO.P,A2,12*
G04 #@! TO.N,Net-(A2-Pad12)*
X41783000Y72390000D03*
G04 #@! TO.P,A2,5*
G04 #@! TO.N,Net-(A2-Pad5)*
X41783000Y85090000D03*
G04 #@! TO.P,A2,13*
G04 #@! TO.N,Net-(A2-Pad13)*
X44323000Y72390000D03*
G04 #@! TO.P,A2,6*
G04 #@! TO.N,Net-(A2-Pad6)*
X39243000Y85090000D03*
G04 #@! TO.P,A2,14*
G04 #@! TO.N,Net-(A2-Pad14)*
X46863000Y72390000D03*
G04 #@! TO.P,A2,7*
G04 #@! TO.N,GND*
X36703000Y85090000D03*
G04 #@! TO.P,A2,15*
G04 #@! TO.N,/Q133_Y_STEP*
X49403000Y72390000D03*
G04 #@! TO.P,A2,8*
G04 #@! TO.N,+24V*
X34163000Y85090000D03*
G04 #@! TO.P,A2,16*
G04 #@! TO.N,/Q132_Y_DIR*
X51943000Y72390000D03*
G04 #@! TD*
D15*
G04 #@! TO.P,A1,1*
G04 #@! TO.N,GND*
X24003000Y85090000D03*
D16*
G04 #@! TO.P,A1,9*
G04 #@! TO.N,/Q138_X_EN*
X6223000Y72390000D03*
G04 #@! TO.P,A1,2*
G04 #@! TO.N,VCC*
X21463000Y85090000D03*
G04 #@! TO.P,A1,10*
X8763000Y72390000D03*
G04 #@! TO.P,A1,3*
G04 #@! TO.N,Net-(A1-Pad3)*
X18923000Y85090000D03*
G04 #@! TO.P,A1,11*
G04 #@! TO.N,VCC*
X11303000Y72390000D03*
G04 #@! TO.P,A1,4*
G04 #@! TO.N,Net-(A1-Pad4)*
X16383000Y85090000D03*
G04 #@! TO.P,A1,12*
G04 #@! TO.N,Net-(A1-Pad12)*
X13843000Y72390000D03*
G04 #@! TO.P,A1,5*
G04 #@! TO.N,Net-(A1-Pad5)*
X13843000Y85090000D03*
G04 #@! TO.P,A1,13*
G04 #@! TO.N,Net-(A1-Pad13)*
X16383000Y72390000D03*
G04 #@! TO.P,A1,6*
G04 #@! TO.N,Net-(A1-Pad6)*
X11303000Y85090000D03*
G04 #@! TO.P,A1,14*
G04 #@! TO.N,Net-(A1-Pad14)*
X18923000Y72390000D03*
G04 #@! TO.P,A1,7*
G04 #@! TO.N,GND*
X8763000Y85090000D03*
G04 #@! TO.P,A1,15*
G04 #@! TO.N,/Q137_X_STEP*
X21463000Y72390000D03*
G04 #@! TO.P,A1,8*
G04 #@! TO.N,+24V*
X6223000Y85090000D03*
G04 #@! TO.P,A1,16*
G04 #@! TO.N,/Q135_X_DIR*
X24003000Y72390000D03*
G04 #@! TD*
G04 #@! TO.P,J110,4*
G04 #@! TO.N,Net-(A1-Pad6)*
X15113000Y91440000D03*
G04 #@! TO.P,J110,3*
G04 #@! TO.N,Net-(A1-Pad5)*
X17653000Y91440000D03*
G04 #@! TO.P,J110,2*
G04 #@! TO.N,Net-(A1-Pad4)*
X20193000Y91440000D03*
D15*
G04 #@! TO.P,J110,1*
G04 #@! TO.N,Net-(A1-Pad3)*
X22733000Y91440000D03*
G04 #@! TD*
G04 #@! TO.P,J120,1*
G04 #@! TO.N,Net-(A2-Pad3)*
X50673000Y91440000D03*
D16*
G04 #@! TO.P,J120,2*
G04 #@! TO.N,Net-(A2-Pad4)*
X48133000Y91440000D03*
G04 #@! TO.P,J120,3*
G04 #@! TO.N,Net-(A2-Pad5)*
X45593000Y91440000D03*
G04 #@! TO.P,J120,4*
G04 #@! TO.N,Net-(A2-Pad6)*
X43053000Y91440000D03*
G04 #@! TD*
G04 #@! TO.P,U2,1*
G04 #@! TO.N,+24V*
X47310000Y50038000D03*
G04 #@! TO.P,U2,2*
G04 #@! TO.N,GND*
X47310000Y32258000D03*
G04 #@! TO.P,U2,3*
G04 #@! TO.N,+5V*
X87310000Y50038000D03*
G04 #@! TO.P,U2,4*
G04 #@! TO.N,GND*
X87310000Y32258000D03*
G04 #@! TD*
D15*
G04 #@! TO.P,A4,1*
G04 #@! TO.N,GND*
X24003000Y56515000D03*
D16*
G04 #@! TO.P,A4,9*
G04 #@! TO.N,/Q139_E_EN*
X6223000Y43815000D03*
G04 #@! TO.P,A4,2*
G04 #@! TO.N,VCC*
X21463000Y56515000D03*
G04 #@! TO.P,A4,10*
X8763000Y43815000D03*
G04 #@! TO.P,A4,3*
G04 #@! TO.N,Net-(A4-Pad3)*
X18923000Y56515000D03*
G04 #@! TO.P,A4,11*
G04 #@! TO.N,VCC*
X11303000Y43815000D03*
G04 #@! TO.P,A4,4*
G04 #@! TO.N,Net-(A4-Pad4)*
X16383000Y56515000D03*
G04 #@! TO.P,A4,12*
G04 #@! TO.N,Net-(A4-Pad12)*
X13843000Y43815000D03*
G04 #@! TO.P,A4,5*
G04 #@! TO.N,Net-(A4-Pad5)*
X13843000Y56515000D03*
G04 #@! TO.P,A4,13*
G04 #@! TO.N,Net-(A4-Pad13)*
X16383000Y43815000D03*
G04 #@! TO.P,A4,6*
G04 #@! TO.N,Net-(A4-Pad6)*
X11303000Y56515000D03*
G04 #@! TO.P,A4,14*
G04 #@! TO.N,Net-(A4-Pad14)*
X18923000Y43815000D03*
G04 #@! TO.P,A4,7*
G04 #@! TO.N,GND*
X8763000Y56515000D03*
G04 #@! TO.P,A4,15*
G04 #@! TO.N,/Q140_E_STEP*
X21463000Y43815000D03*
G04 #@! TO.P,A4,8*
G04 #@! TO.N,+24V*
X6223000Y56515000D03*
G04 #@! TO.P,A4,16*
G04 #@! TO.N,/Q141_E_DIR*
X24003000Y43815000D03*
G04 #@! TD*
G04 #@! TO.P,J140,4*
G04 #@! TO.N,Net-(A4-Pad6)*
X15113000Y62865000D03*
G04 #@! TO.P,J140,3*
G04 #@! TO.N,Net-(A4-Pad5)*
X17653000Y62865000D03*
G04 #@! TO.P,J140,2*
G04 #@! TO.N,Net-(A4-Pad4)*
X20193000Y62865000D03*
D15*
G04 #@! TO.P,J140,1*
G04 #@! TO.N,Net-(A4-Pad3)*
X22733000Y62865000D03*
G04 #@! TD*
D16*
G04 #@! TO.P,A3,16*
G04 #@! TO.N,/Q129_Z_DIR*
X79883000Y72390000D03*
G04 #@! TO.P,A3,8*
G04 #@! TO.N,+24V*
X62103000Y85090000D03*
G04 #@! TO.P,A3,15*
G04 #@! TO.N,/Q130_Z_STEP*
X77343000Y72390000D03*
G04 #@! TO.P,A3,7*
G04 #@! TO.N,GND*
X64643000Y85090000D03*
G04 #@! TO.P,A3,14*
G04 #@! TO.N,Net-(A3-Pad14)*
X74803000Y72390000D03*
G04 #@! TO.P,A3,6*
G04 #@! TO.N,Net-(A3-Pad6)*
X67183000Y85090000D03*
G04 #@! TO.P,A3,13*
G04 #@! TO.N,Net-(A3-Pad13)*
X72263000Y72390000D03*
G04 #@! TO.P,A3,5*
G04 #@! TO.N,Net-(A3-Pad5)*
X69723000Y85090000D03*
G04 #@! TO.P,A3,12*
G04 #@! TO.N,Net-(A3-Pad12)*
X69723000Y72390000D03*
G04 #@! TO.P,A3,4*
G04 #@! TO.N,Net-(A3-Pad4)*
X72263000Y85090000D03*
G04 #@! TO.P,A3,11*
G04 #@! TO.N,VCC*
X67183000Y72390000D03*
G04 #@! TO.P,A3,3*
G04 #@! TO.N,Net-(A3-Pad3)*
X74803000Y85090000D03*
G04 #@! TO.P,A3,10*
G04 #@! TO.N,VCC*
X64643000Y72390000D03*
G04 #@! TO.P,A3,2*
X77343000Y85090000D03*
G04 #@! TO.P,A3,9*
G04 #@! TO.N,/Q131_Z_EN*
X62103000Y72390000D03*
D15*
G04 #@! TO.P,A3,1*
G04 #@! TO.N,GND*
X79883000Y85090000D03*
G04 #@! TD*
D16*
G04 #@! TO.P,J130,4*
G04 #@! TO.N,Net-(A3-Pad6)*
X70993000Y91440000D03*
G04 #@! TO.P,J130,3*
G04 #@! TO.N,Net-(A3-Pad5)*
X73533000Y91440000D03*
G04 #@! TO.P,J130,2*
G04 #@! TO.N,Net-(A3-Pad4)*
X76073000Y91440000D03*
D15*
G04 #@! TO.P,J130,1*
G04 #@! TO.N,Net-(A3-Pad3)*
X78613000Y91440000D03*
G04 #@! TD*
D14*
G04 #@! TO.P,J50,1*
G04 #@! TO.N,GND*
X148590000Y85725000D03*
D13*
G04 #@! TO.P,J50,2*
G04 #@! TO.N,VCC*
X148590000Y83185000D03*
G04 #@! TO.P,J50,3*
G04 #@! TO.N,/SD_MISO*
X148590000Y80645000D03*
G04 #@! TO.P,J50,4*
G04 #@! TO.N,/SD_MOSI*
X148590000Y78105000D03*
G04 #@! TO.P,J50,5*
G04 #@! TO.N,/SD_SCK*
X148590000Y75565000D03*
G04 #@! TO.P,J50,6*
G04 #@! TO.N,/SD_CS*
X148590000Y73025000D03*
G04 #@! TD*
D15*
G04 #@! TO.P,U1,1*
G04 #@! TO.N,VCC*
X109728000Y37465000D03*
D16*
G04 #@! TO.P,U1,2*
G04 #@! TO.N,/~ESP32_EN*
X112268000Y37465000D03*
G04 #@! TO.P,U1,19*
G04 #@! TO.N,+5V*
X155448000Y37465000D03*
G04 #@! TO.P,U1,3*
G04 #@! TO.N,/I36_T_BED*
X114808000Y37465000D03*
G04 #@! TO.P,U1,4*
G04 #@! TO.N,/I39_T_NOZ*
X117348000Y37465000D03*
G04 #@! TO.P,U1,5*
G04 #@! TO.N,/IOx_X_MIN*
X119888000Y37465000D03*
G04 #@! TO.P,U1,6*
G04 #@! TO.N,/IOx_Y_MIN*
X122428000Y37465000D03*
G04 #@! TO.P,U1,7*
G04 #@! TO.N,/IOx_Z_MIN*
X124968000Y37465000D03*
G04 #@! TO.P,U1,8*
G04 #@! TO.N,/IOx_LCD_RS*
X127508000Y37465000D03*
G04 #@! TO.P,U1,9*
G04 #@! TO.N,/IOx_BTN_EN2*
X130048000Y37465000D03*
G04 #@! TO.P,U1,10*
G04 #@! TO.N,/IOx_BTN_EN1*
X132588000Y37465000D03*
G04 #@! TO.P,U1,11*
G04 #@! TO.N,/IOx_BTN_ENC*
X135128000Y37465000D03*
G04 #@! TO.P,U1,12*
G04 #@! TO.N,/IOx_LCD_D4*
X137668000Y37465000D03*
G04 #@! TO.P,U1,13*
G04 #@! TO.N,/IOx_LCD_EN*
X140208000Y37465000D03*
G04 #@! TO.P,U1,14*
G04 #@! TO.N,GND*
X142748000Y37465000D03*
G04 #@! TO.P,U1,15*
G04 #@! TO.N,/IOx_FAN1*
X145288000Y37465000D03*
G04 #@! TO.P,U1,16*
G04 #@! TO.N,Net-(U1-Pad16)*
X147828000Y37465000D03*
G04 #@! TO.P,U1,17*
G04 #@! TO.N,Net-(U1-Pad17)*
X150368000Y37465000D03*
G04 #@! TO.P,U1,18*
G04 #@! TO.N,Net-(U1-Pad18)*
X152908000Y37465000D03*
G04 #@! TO.P,U1,20*
G04 #@! TO.N,GND*
X109728000Y62865000D03*
G04 #@! TO.P,U1,21*
G04 #@! TO.N,/SD_MOSI*
X112268000Y62865000D03*
G04 #@! TO.P,U1,22*
G04 #@! TO.N,/IO21_I2S_BCK*
X114808000Y62865000D03*
G04 #@! TO.P,U1,23*
G04 #@! TO.N,Net-(U1-Pad23)*
X117348000Y62865000D03*
G04 #@! TO.P,U1,24*
G04 #@! TO.N,Net-(U1-Pad24)*
X119888000Y62865000D03*
G04 #@! TO.P,U1,25*
G04 #@! TO.N,/IO22_I2S_DATA*
X122428000Y62865000D03*
G04 #@! TO.P,U1,26*
G04 #@! TO.N,GND*
X124968000Y62865000D03*
G04 #@! TO.P,U1,27*
G04 #@! TO.N,/SD_MISO*
X127508000Y62865000D03*
G04 #@! TO.P,U1,28*
G04 #@! TO.N,/SD_SCK*
X130048000Y62865000D03*
G04 #@! TO.P,U1,29*
G04 #@! TO.N,/SD_CS*
X132588000Y62865000D03*
G04 #@! TO.P,U1,30*
G04 #@! TO.N,/IO17_I2S_WS*
X135128000Y62865000D03*
G04 #@! TO.P,U1,31*
G04 #@! TO.N,Net-(U1-Pad31)*
X137668000Y62865000D03*
G04 #@! TO.P,U1,32*
G04 #@! TO.N,/IOx_BED*
X140208000Y62865000D03*
G04 #@! TO.P,U1,33*
G04 #@! TO.N,Net-(U1-Pad33)*
X142748000Y62865000D03*
G04 #@! TO.P,U1,34*
G04 #@! TO.N,/IOx_NOZZLE*
X145288000Y62865000D03*
G04 #@! TO.P,U1,35*
G04 #@! TO.N,/IOx_SERVO*
X147828000Y62865000D03*
G04 #@! TO.P,U1,36*
G04 #@! TO.N,Net-(U1-Pad36)*
X150368000Y62865000D03*
G04 #@! TO.P,U1,37*
G04 #@! TO.N,Net-(U1-Pad37)*
X152908000Y62865000D03*
G04 #@! TO.P,U1,38*
G04 #@! TO.N,Net-(U1-Pad38)*
X155448000Y62865000D03*
G04 #@! TD*
D14*
G04 #@! TO.P,J40,1*
G04 #@! TO.N,/BEEPER*
X120766600Y20820100D03*
D13*
G04 #@! TO.P,J40,2*
G04 #@! TO.N,/IOx_BTN_ENC*
X124106600Y20820100D03*
G04 #@! TO.P,J40,3*
G04 #@! TO.N,/IOx_BTN_EN1*
X120766600Y18280100D03*
G04 #@! TO.P,J40,4*
G04 #@! TO.N,/~RESET*
X124106600Y18280100D03*
G04 #@! TO.P,J40,5*
G04 #@! TO.N,/IOx_BTN_EN2*
X120766600Y15740100D03*
G04 #@! TO.P,J40,6*
G04 #@! TO.N,/IOx_LCD_D4*
X124106600Y15740100D03*
G04 #@! TO.P,J40,7*
G04 #@! TO.N,/IOx_LCD_RS*
X120766600Y13200100D03*
G04 #@! TO.P,J40,8*
G04 #@! TO.N,/IOx_LCD_EN*
X124106600Y13200100D03*
G04 #@! TO.P,J40,9*
G04 #@! TO.N,GND*
X120766600Y10660100D03*
G04 #@! TO.P,J40,10*
G04 #@! TO.N,+5V*
X124106600Y10660100D03*
G04 #@! TD*
D14*
G04 #@! TO.P,J60,1*
G04 #@! TO.N,Net-(J60-Pad1)*
X142640000Y16510000D03*
D13*
G04 #@! TO.P,J60,2*
G04 #@! TO.N,+5V*
X139300000Y16510000D03*
G04 #@! TO.P,J60,3*
G04 #@! TO.N,Net-(J60-Pad3)*
X142640000Y19050000D03*
G04 #@! TO.P,J60,4*
G04 #@! TO.N,Net-(J60-Pad4)*
X139300000Y19050000D03*
G04 #@! TO.P,J60,5*
G04 #@! TO.N,Net-(J60-Pad5)*
X142640000Y21590000D03*
G04 #@! TO.P,J60,6*
G04 #@! TO.N,GND*
X139300000Y21590000D03*
G04 #@! TO.P,J60,7*
G04 #@! TO.N,Net-(J60-Pad7)*
X142640000Y24130000D03*
G04 #@! TO.P,J60,8*
G04 #@! TO.N,/IOx_SERVO*
X139300000Y24130000D03*
G04 #@! TD*
D16*
G04 #@! TO.P,J31,2*
G04 #@! TO.N,GND*
X81788000Y5207000D03*
D15*
G04 #@! TO.P,J31,1*
G04 #@! TO.N,/IOx_Y_MIN*
X79248000Y5207000D03*
G04 #@! TD*
D11*
G04 #@! TO.P,C30,2*
G04 #@! TO.N,GND*
X75358000Y10033000D03*
G04 #@! TO.P,C30,1*
G04 #@! TO.N,/IOx_X_MIN*
X70358000Y10033000D03*
G04 #@! TD*
G04 #@! TO.P,C160,1*
G04 #@! TO.N,VCC*
X71628000Y59690000D03*
G04 #@! TO.P,C160,2*
G04 #@! TO.N,GND*
X71628000Y64690000D03*
G04 #@! TD*
G04 #@! TO.P,C32,2*
G04 #@! TO.N,GND*
X91868000Y10033000D03*
G04 #@! TO.P,C32,1*
G04 #@! TO.N,/IOx_Z_MIN*
X86868000Y10033000D03*
G04 #@! TD*
D15*
G04 #@! TO.P,J30,1*
G04 #@! TO.N,/IOx_X_MIN*
X71628000Y5080000D03*
D16*
G04 #@! TO.P,J30,2*
G04 #@! TO.N,GND*
X74168000Y5080000D03*
G04 #@! TD*
G04 #@! TO.P,J32,2*
G04 #@! TO.N,GND*
X89408000Y5207000D03*
D15*
G04 #@! TO.P,J32,1*
G04 #@! TO.N,/IOx_Z_MIN*
X86868000Y5207000D03*
G04 #@! TD*
D11*
G04 #@! TO.P,C170,2*
G04 #@! TO.N,GND*
X43053000Y57230000D03*
G04 #@! TO.P,C170,1*
G04 #@! TO.N,VCC*
X43053000Y62230000D03*
G04 #@! TD*
G04 #@! TO.P,C31,1*
G04 #@! TO.N,/IOx_Y_MIN*
X78613000Y10033000D03*
G04 #@! TO.P,C31,2*
G04 #@! TO.N,GND*
X83613000Y10033000D03*
G04 #@! TD*
G04 #@! TO.P,R30,1*
G04 #@! TO.N,VCC*
X78994000Y24765000D03*
D12*
G04 #@! TO.P,R30,2*
G04 #@! TO.N,/IOx_X_MIN*
X78994000Y14605000D03*
G04 #@! TD*
D11*
G04 #@! TO.P,R31,1*
G04 #@! TO.N,VCC*
X84074000Y24765000D03*
D12*
G04 #@! TO.P,R31,2*
G04 #@! TO.N,/IOx_Y_MIN*
X84074000Y14605000D03*
G04 #@! TD*
D11*
G04 #@! TO.P,R32,1*
G04 #@! TO.N,VCC*
X89154000Y24765000D03*
D12*
G04 #@! TO.P,R32,2*
G04 #@! TO.N,/IOx_Z_MIN*
X89154000Y14605000D03*
G04 #@! TD*
D15*
G04 #@! TO.P,U3,1*
G04 #@! TO.N,/Q129_Z_DIR*
X67818000Y67310000D03*
D16*
G04 #@! TO.P,U3,9*
G04 #@! TO.N,Net-(U3-Pad9)*
X50038000Y59690000D03*
G04 #@! TO.P,U3,2*
G04 #@! TO.N,/Q130_Z_STEP*
X65278000Y67310000D03*
G04 #@! TO.P,U3,10*
G04 #@! TO.N,VCC*
X52578000Y59690000D03*
G04 #@! TO.P,U3,3*
G04 #@! TO.N,/Q131_Z_EN*
X62738000Y67310000D03*
G04 #@! TO.P,U3,11*
G04 #@! TO.N,/IO21_I2S_BCK*
X55118000Y59690000D03*
G04 #@! TO.P,U3,4*
G04 #@! TO.N,/Q132_Y_DIR*
X60198000Y67310000D03*
G04 #@! TO.P,U3,12*
G04 #@! TO.N,/IO17_I2S_WS*
X57658000Y59690000D03*
G04 #@! TO.P,U3,5*
G04 #@! TO.N,/Q133_Y_STEP*
X57658000Y67310000D03*
G04 #@! TO.P,U3,13*
G04 #@! TO.N,GND*
X60198000Y59690000D03*
G04 #@! TO.P,U3,6*
G04 #@! TO.N,/Q134_Y_EN*
X55118000Y67310000D03*
G04 #@! TO.P,U3,14*
G04 #@! TO.N,/IO22_I2S_DATA*
X62738000Y59690000D03*
G04 #@! TO.P,U3,7*
G04 #@! TO.N,/Q135_X_DIR*
X52578000Y67310000D03*
G04 #@! TO.P,U3,15*
G04 #@! TO.N,/Q128*
X65278000Y59690000D03*
G04 #@! TO.P,U3,8*
G04 #@! TO.N,GND*
X50038000Y67310000D03*
G04 #@! TO.P,U3,16*
G04 #@! TO.N,VCC*
X67818000Y59690000D03*
G04 #@! TD*
D15*
G04 #@! TO.P,J20,1*
G04 #@! TO.N,/I36_T_BED*
X97028000Y5080000D03*
D16*
G04 #@! TO.P,J20,2*
G04 #@! TO.N,GND*
X99568000Y5080000D03*
G04 #@! TD*
D12*
G04 #@! TO.P,R20,2*
G04 #@! TO.N,/I36_T_BED*
X113792000Y29972000D03*
D11*
G04 #@! TO.P,R20,1*
G04 #@! TO.N,VCC*
X103632000Y29972000D03*
G04 #@! TD*
D16*
G04 #@! TO.P,J21,2*
G04 #@! TO.N,GND*
X107188000Y5080000D03*
D15*
G04 #@! TO.P,J21,1*
G04 #@! TO.N,/I39_T_NOZ*
X104648000Y5080000D03*
G04 #@! TD*
D21*
G04 #@! TO.N,GND*
X82245000Y32427800D03*
X50520600Y32133500D03*
X47317100Y63680500D03*
X45847000Y58674012D03*
G04 #@! TO.N,VCC*
X153103300Y74238500D03*
X152901700Y71115900D03*
G04 #@! TO.N,/SD_CS*
X140267400Y69179300D03*
X132171800Y65455300D03*
G04 #@! TO.N,/IOx_NOZZLE*
X44134500Y47241300D03*
X79375000Y57023000D03*
G04 #@! TO.N,/IOx_BED*
X82565700Y69597500D03*
X68992000Y54649200D03*
G04 #@! TD*
D22*
G04 #@! TO.N,GND*
X58303000Y85090000D02*
X59551400Y84427500D01*
X58303000Y85090000D02*
X59551400Y85752500D01*
X30363000Y85090000D02*
X31611400Y84427500D01*
X30363000Y85090000D02*
X31611400Y85752500D01*
X10363000Y53315000D02*
X9114600Y53977500D01*
X10363000Y53315000D02*
X9114600Y52652500D01*
D23*
X64008000Y66652200D02*
X63917100Y66453900D01*
X64008000Y66652200D02*
X64098900Y66453900D01*
X64008000Y68086000D02*
X64098900Y68284300D01*
X64008000Y68086000D02*
X63917100Y68284300D01*
X68453000Y71360000D02*
X68362100Y71161700D01*
X68453000Y71360000D02*
X68543900Y71161700D01*
X68453000Y73420000D02*
X68543900Y73618300D01*
X68453000Y73420000D02*
X68362100Y73618300D01*
D24*
X7620000Y28575000D02*
X9315800Y27688700D01*
X7620000Y28575000D02*
X9315800Y29461300D01*
X24176100Y19384900D02*
X23416400Y21430200D01*
X24176100Y19384900D02*
X22130800Y20144600D01*
X21590000Y23495000D02*
X20722200Y24249600D01*
X21590000Y23495000D02*
X20722200Y22740400D01*
D25*
X34925000Y24130000D02*
X34050000Y24886500D01*
X34925000Y24130000D02*
X34050000Y23373500D01*
D22*
X118569200Y42072000D02*
X118796500Y42567800D01*
X118569200Y42072000D02*
X118341900Y42567800D01*
X126161800Y42072000D02*
X126389100Y42567800D01*
X126161800Y42072000D02*
X125934500Y42567800D01*
X23280100Y28154900D02*
X23528700Y26485900D01*
X23280100Y28154900D02*
X24949100Y27906300D01*
D26*
X8763000Y56115000D02*
X8763000Y56515000D01*
D25*
X8763000Y85090000D02*
X8763000Y91400000D01*
X8763000Y91400000D02*
X8723000Y91440000D01*
X31963000Y85090000D02*
X31963000Y84061600D01*
X31963000Y84061600D02*
X33334600Y82690000D01*
X33334600Y82690000D02*
X34991400Y82690000D01*
X34991400Y82690000D02*
X36703000Y84401600D01*
X36703000Y84401600D02*
X36703000Y85090000D01*
X8723000Y91440000D02*
X11123000Y93840000D01*
X11123000Y93840000D02*
X24493000Y93840000D01*
X24493000Y93840000D02*
X31963000Y86370000D01*
X31963000Y86370000D02*
X31963000Y85090000D01*
X36663000Y91440000D02*
X39063000Y93840000D01*
X39063000Y93840000D02*
X52433000Y93840000D01*
X52433000Y93840000D02*
X59903000Y86370000D01*
X59903000Y86370000D02*
X59903000Y85090000D01*
X59903000Y85090000D02*
X59903000Y84061600D01*
X59903000Y84061600D02*
X61274600Y82690000D01*
X61274600Y82690000D02*
X62931400Y82690000D01*
X62931400Y82690000D02*
X64643000Y84401600D01*
X64643000Y84401600D02*
X64643000Y85090000D01*
X64643000Y85090000D02*
X64643000Y91400000D01*
X64643000Y91400000D02*
X64603000Y91440000D01*
X8763000Y56515000D02*
X8763000Y62825000D01*
X8763000Y62825000D02*
X8723000Y62865000D01*
X36703000Y85090000D02*
X36703000Y91400000D01*
X36703000Y91400000D02*
X36663000Y91440000D01*
X7620000Y28575000D02*
X7620000Y31875000D01*
X7620000Y31875000D02*
X4223000Y35272000D01*
X4223000Y35272000D02*
X4223000Y48775000D01*
X4223000Y48775000D02*
X8763000Y53315000D01*
X8763000Y53315000D02*
X8763000Y56515000D01*
D26*
X8723000Y62865000D02*
X8723000Y63996400D01*
X8763000Y84690000D02*
X8763000Y85090000D01*
D25*
X8723000Y62865000D02*
X8723000Y66661600D01*
X8723000Y66661600D02*
X4223000Y71161600D01*
X4223000Y71161600D02*
X4223000Y79578700D01*
X4223000Y79578700D02*
X8423000Y83778700D01*
X8423000Y83778700D02*
X8423000Y84750000D01*
X8423000Y84750000D02*
X8763000Y85090000D01*
D26*
X87310000Y32258000D02*
X91774000Y32258000D01*
X91774000Y32258000D02*
X94060000Y29972000D01*
X87310000Y32258000D02*
X91226000Y32258000D01*
X91226000Y32258000D02*
X96052000Y37084000D01*
X96052000Y37084000D02*
X96852000Y37884000D01*
X96852000Y37884000D02*
X96852000Y44452600D01*
X96852000Y44452600D02*
X98512000Y46112600D01*
X98512000Y46112600D02*
X98512000Y47244000D01*
X98512000Y47244000D02*
X98512000Y53380000D01*
X98512000Y53380000D02*
X98980000Y53848000D01*
D22*
X74168000Y5080000D02*
X74168000Y8843000D01*
X74168000Y8843000D02*
X75358000Y10033000D01*
X81788000Y5207000D02*
X81788000Y8208000D01*
X81788000Y8208000D02*
X83613000Y10033000D01*
X89408000Y5207000D02*
X89408000Y7573000D01*
X89408000Y7573000D02*
X91868000Y10033000D01*
X81788000Y5207000D02*
X81788000Y4807000D01*
X81788000Y4807000D02*
X80488000Y3507000D01*
X80488000Y3507000D02*
X75341000Y3507000D01*
X75341000Y3507000D02*
X74168000Y4680000D01*
X74168000Y4680000D02*
X74168000Y5080000D01*
X81788000Y5207000D02*
X83088000Y5207000D01*
X83088000Y5207000D02*
X84788000Y3507000D01*
X84788000Y3507000D02*
X88108000Y3507000D01*
X88108000Y3507000D02*
X89408000Y4807000D01*
X89408000Y4807000D02*
X90835000Y3380000D01*
X90835000Y3380000D02*
X93980000Y3380000D01*
X93980000Y3380000D02*
X98268000Y3380000D01*
X98268000Y3380000D02*
X99568000Y4680000D01*
X99568000Y4680000D02*
X99568000Y5080000D01*
X89408000Y5207000D02*
X89408000Y4807000D01*
X99568000Y5080000D02*
X100868000Y5080000D01*
X100868000Y5080000D02*
X102518000Y3430000D01*
X102518000Y3430000D02*
X105808000Y3430000D01*
X105808000Y3430000D02*
X107188000Y4810000D01*
X107188000Y4810000D02*
X107188000Y5080000D01*
X99568000Y5080000D02*
X99568000Y10890000D01*
X99568000Y10890000D02*
X99028000Y11430000D01*
X99028000Y11430000D02*
X99028000Y17240000D01*
X99028000Y17240000D02*
X99568000Y17780000D01*
X107188000Y5080000D02*
X107188000Y10890000D01*
X107188000Y10890000D02*
X106648000Y11430000D01*
X106648000Y11430000D02*
X106648000Y14780000D01*
X106648000Y14780000D02*
X109648000Y17780000D01*
X51943000Y85090000D02*
X53243000Y85090000D01*
X53243000Y85090000D02*
X59903000Y85090000D01*
X24003000Y85090000D02*
X31963000Y85090000D01*
X24003000Y56515000D02*
X24003000Y54815000D01*
X24003000Y54815000D02*
X22503000Y53315000D01*
X22503000Y53315000D02*
X8763000Y53315000D01*
X64603000Y91440000D02*
X67270000Y94107000D01*
X67270000Y94107000D02*
X80391000Y94107000D01*
X80391000Y94107000D02*
X81407000Y93091000D01*
X81407000Y93091000D02*
X81407000Y90702500D01*
X50038000Y67310000D02*
X50038000Y66910000D01*
X50038000Y66910000D02*
X50292300Y66655700D01*
D23*
X64008000Y66412200D02*
X64008000Y68326000D01*
D22*
X64008000Y68326000D02*
X64008000Y69088000D01*
X64008000Y69088000D02*
X65660000Y70740000D01*
X65660000Y70740000D02*
X68073000Y70740000D01*
X68073000Y70740000D02*
X68453000Y71120000D01*
D23*
X68453000Y71120000D02*
X68453000Y73660000D01*
D22*
X68453000Y73660000D02*
X79883000Y85090000D01*
D26*
X98512000Y47244000D02*
X102743000Y47244000D01*
X102743000Y47244000D02*
X107315000Y42672000D01*
X107315000Y42672000D02*
X118569200Y42672000D01*
D24*
X7620000Y28575000D02*
X9779000Y28575000D01*
D27*
X9779000Y28575000D02*
X14986000Y28575000D01*
X14986000Y28575000D02*
X17145000Y26416000D01*
X17145000Y26416000D02*
X20066000Y23495000D01*
D24*
X22479000Y21082000D02*
X24511000Y19050000D01*
X24511000Y19050000D02*
X26510000Y19050000D01*
X20066000Y23495000D02*
X21590000Y23495000D01*
X21590000Y23495000D02*
X24765000Y26670000D01*
D27*
X20066000Y23495000D02*
X22479000Y21082000D01*
D25*
X47310000Y32258000D02*
X47310000Y31303000D01*
X47310000Y31303000D02*
X52578000Y26035000D01*
D28*
X31115000Y26670000D02*
X31115000Y26411000D01*
X31115000Y26411000D02*
X33396000Y24130000D01*
D25*
X47310000Y32258000D02*
X47310000Y31858000D01*
X47310000Y31858000D02*
X44510000Y29058000D01*
X44510000Y29058000D02*
X39853000Y29058000D01*
X39853000Y29058000D02*
X34925000Y24130000D01*
X34925000Y24130000D02*
X33396000Y24130000D01*
D28*
X33396000Y24130000D02*
X38402200Y19124000D01*
D22*
X81407000Y90702500D02*
X81407000Y88314000D01*
X81407000Y88314000D02*
X79883000Y86790000D01*
X79883000Y86790000D02*
X79883000Y85090000D01*
D26*
X126161800Y42672000D02*
X137941000Y42672000D01*
X137941000Y42672000D02*
X140344500Y40268500D01*
X140344500Y40268500D02*
X142748000Y37865000D01*
X142748000Y37865000D02*
X142748000Y37465000D01*
D24*
X24765000Y26670000D02*
X31115000Y26670000D01*
D26*
X118569200Y42672000D02*
X119094200Y42672000D01*
X119094200Y42672000D02*
X126161800Y42672000D01*
D22*
X50292300Y66655700D02*
X51288000Y65660000D01*
X51288000Y65660000D02*
X63255800Y65660000D01*
X63255800Y65660000D02*
X64008000Y66412200D01*
X30988000Y44450000D02*
X30588000Y44450000D01*
X30588000Y44450000D02*
X28159500Y42021500D01*
X28159500Y42021500D02*
X26841700Y42021500D01*
X26841700Y42021500D02*
X25288500Y40468300D01*
X25288500Y40468300D02*
X24465000Y39644800D01*
X24465000Y39644800D02*
X24465000Y33828100D01*
X24465000Y33828100D02*
X24465000Y32211900D01*
X24465000Y32211900D02*
X25607900Y31069000D01*
X25607900Y31069000D02*
X27224100Y31069000D01*
X27224100Y31069000D02*
X28367000Y32211900D01*
X28367000Y32211900D02*
X28367000Y32929500D01*
X28367000Y32929500D02*
X28975500Y33538000D01*
X28975500Y33538000D02*
X29708000Y34270500D01*
X29708000Y34270500D02*
X30744000Y34270500D01*
X30744000Y34270500D02*
X31476500Y33538000D01*
X31476500Y33538000D02*
X31476500Y32658500D01*
X31476500Y32658500D02*
X34925000Y29210000D01*
X34925000Y29210000D02*
X32385000Y26670000D01*
X32385000Y26670000D02*
X31115000Y26670000D01*
X124968000Y62865000D02*
X124968000Y63265000D01*
X124968000Y63265000D02*
X124196500Y63265000D01*
X124196500Y63265000D02*
X122946000Y64515500D01*
X122946000Y64515500D02*
X120406000Y64515500D01*
X120406000Y64515500D02*
X117866000Y64515500D01*
X117866000Y64515500D02*
X115326000Y64515500D01*
X115326000Y64515500D02*
X114290000Y64515500D01*
X114290000Y64515500D02*
X113557500Y63783000D01*
X113557500Y63783000D02*
X113518500Y63744000D01*
X113518500Y63744000D02*
X113518500Y61947000D01*
X113518500Y61947000D02*
X112786000Y61214500D01*
X112786000Y61214500D02*
X111750000Y61214500D01*
X111750000Y61214500D02*
X110978500Y61214500D01*
X110978500Y61214500D02*
X109728000Y62465000D01*
X109728000Y62465000D02*
X109728000Y62865000D01*
X50292300Y66655700D02*
X47317100Y63680500D01*
X47310000Y32258000D02*
X47310000Y32133500D01*
X47310000Y32133500D02*
X50520600Y32133500D01*
X148590000Y85725000D02*
X149540000Y85175000D01*
X149540000Y85175000D02*
X149540000Y84925000D01*
X149540000Y84925000D02*
X149540000Y84403500D01*
X149540000Y84403500D02*
X150240500Y83703000D01*
X150240500Y83703000D02*
X150240500Y82153600D01*
X150240500Y82153600D02*
X150941000Y81453100D01*
X150941000Y81453100D02*
X150941000Y80894400D01*
X150941000Y80894400D02*
X152342000Y79493400D01*
X152342000Y79493400D02*
X152342000Y77944100D01*
X152342000Y77944100D02*
X153042500Y77243600D01*
X153042500Y77243600D02*
X153042500Y76350600D01*
X153042500Y76350600D02*
X154553800Y74839300D01*
X154553800Y74839300D02*
X154553800Y73637700D01*
X154553800Y73637700D02*
X153704100Y72788000D01*
X153704100Y72788000D02*
X153482500Y72566400D01*
X153482500Y72566400D02*
X152300900Y72566400D01*
X152300900Y72566400D02*
X151451200Y71716700D01*
X151451200Y71716700D02*
X143998500Y64264000D01*
X143998500Y64264000D02*
X143998500Y61947000D01*
X143998500Y61947000D02*
X143266000Y61214500D01*
X143266000Y61214500D02*
X141164500Y59113000D01*
X141164500Y59113000D02*
X133976400Y59113000D01*
X133976400Y59113000D02*
X131199600Y59113000D01*
X131199600Y59113000D02*
X128320000Y59113000D01*
X128320000Y59113000D02*
X124968000Y62465000D01*
X124968000Y62465000D02*
X124968000Y62865000D01*
X39370000Y19050000D02*
X39370000Y19124000D01*
X39370000Y19124000D02*
X38402200Y19124000D01*
X26670000Y19050000D02*
X26510000Y19050000D01*
X109648000Y17780000D02*
X109648000Y18471500D01*
X109648000Y18471500D02*
X115042500Y23866000D01*
X115042500Y23866000D02*
X115042500Y24643800D01*
X115042500Y24643800D02*
X118048500Y27649800D01*
X118048500Y27649800D02*
X118048500Y27912300D01*
X118048500Y27912300D02*
X118048500Y28661800D01*
X118048500Y28661800D02*
X118048500Y29367300D01*
X118048500Y29367300D02*
X118048500Y29387300D01*
X118048500Y29387300D02*
X118048500Y30553100D01*
X118048500Y30553100D02*
X118048500Y30842300D01*
X118048500Y30842300D02*
X118048500Y30862300D01*
X118048500Y30862300D02*
X118048500Y32317300D01*
X118048500Y32317300D02*
X118048500Y32337300D01*
X118048500Y32337300D02*
X118048500Y33182700D01*
X118048500Y33182700D02*
X118048500Y33792300D01*
X118048500Y33792300D02*
X118048500Y33812300D01*
X118048500Y33812300D02*
X118048500Y35267300D01*
X118048500Y35267300D02*
X118048500Y35287300D01*
X118048500Y35287300D02*
X118048500Y35997000D01*
X118048500Y35997000D02*
X118598500Y36547000D01*
X118598500Y36547000D02*
X118598500Y37347000D01*
X118598500Y37347000D02*
X118598500Y38383000D01*
X118598500Y38383000D02*
X118569200Y38412300D01*
X118569200Y38412300D02*
X118569200Y42672000D01*
X121166600Y10660100D02*
X120366600Y10660100D01*
X120366600Y10660100D02*
X117715100Y13311600D01*
X117715100Y13311600D02*
X117715100Y20853200D01*
X117715100Y20853200D02*
X117715100Y22387000D01*
X117715100Y22387000D02*
X117715100Y22576000D01*
X117715100Y22576000D02*
X117844500Y22705400D01*
X117844500Y22705400D02*
X117844500Y23483200D01*
X117844500Y23483200D02*
X120850500Y26489200D01*
X120850500Y26489200D02*
X120850500Y26751700D01*
X120850500Y26751700D02*
X120850500Y27501200D01*
X120850500Y27501200D02*
X120850500Y28226700D01*
X120850500Y28226700D02*
X120850500Y31179000D01*
X120850500Y31179000D02*
X126218500Y36547000D01*
X126218500Y36547000D02*
X126218500Y37347000D01*
X126218500Y37347000D02*
X126218500Y38383000D01*
X126218500Y38383000D02*
X126161800Y38439700D01*
X126161800Y38439700D02*
X126161800Y42672000D01*
X139700000Y21590000D02*
X138900000Y21590000D01*
X138900000Y21590000D02*
X138680900Y21590000D01*
X138680900Y21590000D02*
X138091900Y22179000D01*
X138091900Y22179000D02*
X136949000Y23321900D01*
X136949000Y23321900D02*
X136949000Y24938100D01*
X136949000Y24938100D02*
X136949000Y26957500D01*
X136949000Y26957500D02*
X146538500Y36547000D01*
X146538500Y36547000D02*
X146538500Y37347000D01*
X146538500Y37347000D02*
X146538500Y38383000D01*
X146538500Y38383000D02*
X145806000Y39115500D01*
X145806000Y39115500D02*
X144770000Y39115500D01*
X144770000Y39115500D02*
X143551700Y37897200D01*
X143551700Y37897200D02*
X142734700Y37897200D01*
X142734700Y37897200D02*
X142725300Y37887800D01*
X142725300Y37887800D02*
X142725200Y37887800D01*
X38608000Y54610000D02*
X39008000Y54610000D01*
X39008000Y54610000D02*
X40433000Y54610000D01*
X40433000Y54610000D02*
X43053000Y57230000D01*
X81407000Y90702500D02*
X81515700Y90702500D01*
X81515700Y90702500D02*
X85443200Y86775000D01*
X85443200Y86775000D02*
X147493600Y86775000D01*
X147493600Y86775000D02*
X147640000Y86628600D01*
X147640000Y86628600D02*
X147640000Y86525000D01*
X147640000Y86525000D02*
X147640000Y86275000D01*
X147640000Y86275000D02*
X148590000Y85725000D01*
X71628000Y64690000D02*
X73859300Y64690000D01*
X73859300Y64690000D02*
X73877800Y64708500D01*
X73877800Y64708500D02*
X74493700Y64708500D01*
X74493700Y64708500D02*
X75223400Y64708500D01*
X75223400Y64708500D02*
X75243500Y64708500D01*
X75243500Y64708500D02*
X75800200Y64708500D01*
X75800200Y64708500D02*
X76587500Y64708500D01*
X76587500Y64708500D02*
X76607600Y64708500D01*
X76607600Y64708500D02*
X77106700Y64708500D01*
X77106700Y64708500D02*
X77951600Y64708500D01*
X77951600Y64708500D02*
X77971700Y64708500D01*
X77971700Y64708500D02*
X78413200Y64708500D01*
X78413200Y64708500D02*
X79315700Y64708500D01*
X79315700Y64708500D02*
X79335800Y64708500D01*
X79335800Y64708500D02*
X79719700Y64708500D01*
X79719700Y64708500D02*
X80679800Y64708500D01*
X80679800Y64708500D02*
X80699900Y64708500D01*
X80699900Y64708500D02*
X81026200Y64708500D01*
X81026200Y64708500D02*
X82043900Y64708500D01*
X82043900Y64708500D02*
X82064000Y64708500D01*
X82064000Y64708500D02*
X82332700Y64708500D01*
X82332700Y64708500D02*
X83408000Y64708500D01*
X83408000Y64708500D02*
X83428100Y64708500D01*
X83428100Y64708500D02*
X83639200Y64708500D01*
X83639200Y64708500D02*
X84772100Y64708500D01*
X84772100Y64708500D02*
X84792200Y64708500D01*
X84792200Y64708500D02*
X84945700Y64708500D01*
X84945700Y64708500D02*
X86136200Y64708500D01*
X86136200Y64708500D02*
X86156300Y64708500D01*
X86156300Y64708500D02*
X86252200Y64708500D01*
X86252200Y64708500D02*
X87500300Y64708500D01*
X87500300Y64708500D02*
X87520400Y64708500D01*
X87520400Y64708500D02*
X87558700Y64708500D01*
X87558700Y64708500D02*
X88864400Y64708500D01*
X88864400Y64708500D02*
X88884500Y64708500D01*
X88884500Y64708500D02*
X90171700Y64708500D01*
X90171700Y64708500D02*
X90228500Y64708500D01*
X90228500Y64708500D02*
X90248600Y64708500D01*
X90248600Y64708500D02*
X91478200Y64708500D01*
X91478200Y64708500D02*
X91592600Y64708500D01*
X91592600Y64708500D02*
X91612700Y64708500D01*
X91612700Y64708500D02*
X92784700Y64708500D01*
X92784700Y64708500D02*
X92956700Y64708500D01*
X92956700Y64708500D02*
X92976800Y64708500D01*
X92976800Y64708500D02*
X94091200Y64708500D01*
X94091200Y64708500D02*
X94320800Y64708500D01*
X94320800Y64708500D02*
X94340900Y64708500D01*
X94340900Y64708500D02*
X95397700Y64708500D01*
X95397700Y64708500D02*
X95684900Y64708500D01*
X95684900Y64708500D02*
X95705000Y64708500D01*
X95705000Y64708500D02*
X96704200Y64708500D01*
X96704200Y64708500D02*
X97049000Y64708500D01*
X97049000Y64708500D02*
X97069100Y64708500D01*
X97069100Y64708500D02*
X98010700Y64708500D01*
X98010700Y64708500D02*
X98413100Y64708500D01*
X98413100Y64708500D02*
X98433200Y64708500D01*
X98433200Y64708500D02*
X99317200Y64708500D01*
X99317200Y64708500D02*
X99777200Y64708500D01*
X99777200Y64708500D02*
X100039800Y64708500D01*
X100039800Y64708500D02*
X100620200Y64708500D01*
X100620200Y64708500D02*
X101213000Y64115700D01*
X101213000Y64115700D02*
X101579200Y63749500D01*
X101579200Y63749500D02*
X101593400Y63735300D01*
X101593400Y63735300D02*
X102063700Y63265000D01*
X102063700Y63265000D02*
X109728000Y63265000D01*
X109728000Y63265000D02*
X109728000Y62865000D01*
X82245000Y32427800D02*
X87310000Y32427800D01*
X87310000Y32427800D02*
X87310000Y32258000D01*
X21590000Y29845000D02*
X24765000Y26670000D01*
X43053000Y57230000D02*
X44497012Y58674012D01*
X44497012Y58674012D02*
X45847000Y58674012D01*
D23*
G04 #@! TO.N,VCC*
X22733000Y71247000D02*
X22761900Y71100700D01*
X22733000Y71247000D02*
X22879300Y71218100D01*
X22733000Y73533000D02*
X22868400Y73554200D01*
X22733000Y73533000D02*
X22754200Y73668400D01*
X30339000Y58420000D02*
X30140700Y58510900D01*
X30339000Y58420000D02*
X30140700Y58329100D01*
X31637000Y58420000D02*
X31835300Y58329100D01*
X31637000Y58420000D02*
X31835300Y58510900D01*
D22*
X35433000Y58404400D02*
X35213200Y57998300D01*
X35433000Y58404400D02*
X35652800Y57998300D01*
X89154000Y27594000D02*
X89381300Y28089800D01*
X89154000Y27594000D02*
X88926700Y28089800D01*
X84074000Y27594000D02*
X84301300Y28089800D01*
X84074000Y27594000D02*
X83846700Y28089800D01*
D26*
X109728000Y37465000D02*
X98933000Y37465000D01*
X98933000Y37465000D02*
X98552000Y37084000D01*
X98552000Y37084000D02*
X98552000Y30480000D01*
X98552000Y30480000D02*
X99060000Y29972000D01*
D22*
X52578000Y59690000D02*
X52578000Y60090000D01*
X52578000Y60090000D02*
X50438000Y62230000D01*
X50438000Y62230000D02*
X44184400Y62230000D01*
X44184400Y62230000D02*
X43053000Y62230000D01*
D26*
X43053000Y62230000D02*
X38608000Y62230000D01*
D22*
X11303000Y72790000D02*
X11303000Y72390000D01*
X23613000Y81240000D02*
X39285500Y81240000D01*
X23613000Y81240000D02*
X21463000Y83390000D01*
X21463000Y83390000D02*
X21463000Y85090000D01*
X39243000Y72390000D02*
X39243000Y72790000D01*
X49403000Y85090000D02*
X49403000Y83390000D01*
X49403000Y83390000D02*
X51553000Y81240000D01*
X51553000Y81240000D02*
X64643000Y81240000D01*
X67183000Y72390000D02*
X67183000Y72790000D01*
X103632000Y24384000D02*
X103632000Y25515000D01*
X103632000Y25515000D02*
X103632000Y29972000D01*
X103632000Y29972000D02*
X99060000Y29972000D01*
D26*
X99060000Y29972000D02*
X97282000Y28194000D01*
X97282000Y28194000D02*
X89154000Y28194000D01*
X71628000Y59690000D02*
X67818000Y59690000D01*
D22*
X38608000Y62230000D02*
X38208000Y62230000D01*
X22860000Y71120000D02*
X30450000Y63530000D01*
X30450000Y63530000D02*
X33498000Y63530000D01*
X33498000Y63530000D02*
X35306000Y61722000D01*
X22853000Y73653000D02*
X23613000Y74413000D01*
X23613000Y74413000D02*
X23613000Y77373000D01*
D23*
X22860000Y71120000D02*
X22733000Y71247000D01*
X22733000Y71247000D02*
X22733000Y73533000D01*
X22733000Y73533000D02*
X22853000Y73653000D01*
D22*
X21463000Y56515000D02*
X21463000Y56915000D01*
X21463000Y56915000D02*
X22968000Y58420000D01*
X22968000Y58420000D02*
X30099000Y58420000D01*
D23*
X30099000Y58420000D02*
X31877000Y58420000D01*
D22*
X31877000Y58420000D02*
X35306000Y58420000D01*
D26*
X38608000Y62230000D02*
X36408000Y62230000D01*
X36408000Y62230000D02*
X35433000Y61255000D01*
X71628000Y59690000D02*
X65278000Y53340000D01*
X65278000Y53340000D02*
X45847000Y53340000D01*
X45847000Y53340000D02*
X39497000Y46990000D01*
X39497000Y46990000D02*
X38608000Y46990000D01*
X75687000Y55631000D02*
X71628000Y59690000D01*
X35433000Y57879300D02*
X35433000Y56754000D01*
X35433000Y56754000D02*
X35433000Y55860500D01*
D22*
X39285500Y81240000D02*
X45953000Y81240000D01*
X45953000Y81240000D02*
X49403000Y84690000D01*
X49403000Y84690000D02*
X49403000Y85090000D01*
D26*
X35433000Y61255000D02*
X35433000Y57879300D01*
D22*
X64643000Y81240000D02*
X65003000Y81240000D01*
X65003000Y81240000D02*
X73893000Y81240000D01*
X73893000Y81240000D02*
X77343000Y84690000D01*
X77343000Y84690000D02*
X77343000Y85090000D01*
D26*
X35433000Y55860500D02*
X35433000Y47752000D01*
X35433000Y47752000D02*
X36195000Y46990000D01*
X36195000Y46990000D02*
X38608000Y46990000D01*
D22*
X23613000Y77373000D02*
X23613000Y78964300D01*
X23613000Y78964300D02*
X23613000Y81240000D01*
D26*
X89154000Y28194000D02*
X88476700Y28194000D01*
X88476700Y28194000D02*
X84074000Y28194000D01*
X84074000Y28194000D02*
X82734500Y29533500D01*
X82734500Y29533500D02*
X77470000Y34798000D01*
X77470000Y34798000D02*
X77470000Y53848000D01*
X77470000Y53848000D02*
X75687000Y55631000D01*
D22*
X35433000Y58404400D02*
X35433000Y57879300D01*
X89154000Y24765000D02*
X89154000Y28194000D01*
X36703000Y72390000D02*
X39243000Y72390000D01*
X84074000Y24765000D02*
X84074000Y28194000D01*
X35306000Y61722000D02*
X35306000Y61382000D01*
X35306000Y61382000D02*
X35433000Y61255000D01*
X148590000Y83185000D02*
X148990000Y83185000D01*
X148990000Y83185000D02*
X148990000Y82413500D01*
X148990000Y82413500D02*
X150240500Y81163000D01*
X150240500Y81163000D02*
X150240500Y80604300D01*
X150240500Y80604300D02*
X151641500Y79203300D01*
X151641500Y79203300D02*
X151641500Y77653900D01*
X151641500Y77653900D02*
X152342000Y76953400D01*
X152342000Y76953400D02*
X152342000Y74999800D01*
X152342000Y74999800D02*
X153103300Y74238500D01*
X39243000Y72390000D02*
X39243000Y72790000D01*
X39243000Y72790000D02*
X39243000Y81088700D01*
X39243000Y81088700D02*
X39285500Y81131200D01*
X39285500Y81131200D02*
X39285500Y81240000D01*
X11303000Y72390000D02*
X11303000Y72790000D01*
X11303000Y72790000D02*
X12074500Y72790000D01*
X12074500Y72790000D02*
X13325000Y74040500D01*
X13325000Y74040500D02*
X15865000Y74040500D01*
X15865000Y74040500D02*
X18405000Y74040500D01*
X18405000Y74040500D02*
X20171800Y74040500D01*
X20171800Y74040500D02*
X23504300Y77373000D01*
X23504300Y77373000D02*
X23613000Y77373000D01*
X64643000Y81240000D02*
X64643000Y72790000D01*
X64643000Y72790000D02*
X64643000Y72390000D01*
X84074000Y24765000D02*
X78994000Y24765000D01*
X8763000Y43815000D02*
X11303000Y43815000D01*
X8763000Y72390000D02*
X11303000Y72390000D01*
X11303000Y43815000D02*
X11303000Y44215000D01*
X11303000Y44215000D02*
X12074500Y44215000D01*
X12074500Y44215000D02*
X13325000Y45465500D01*
X13325000Y45465500D02*
X15865000Y45465500D01*
X15865000Y45465500D02*
X18405000Y45465500D01*
X18405000Y45465500D02*
X19152700Y45465500D01*
X19152700Y45465500D02*
X28812100Y55124900D01*
X28812100Y55124900D02*
X28812200Y55124900D01*
X28812200Y55124900D02*
X28997800Y55310500D01*
X28997800Y55310500D02*
X29520000Y55310500D01*
X29520000Y55310500D02*
X30070000Y55860500D01*
X30070000Y55860500D02*
X30870000Y55860500D01*
X30870000Y55860500D02*
X35215500Y55860500D01*
X35215500Y55860500D02*
X35433000Y55860500D01*
X64643000Y72390000D02*
X67183000Y72390000D01*
X146538500Y61947000D02*
X140890000Y56298500D01*
X80061402Y55592998D02*
X75725002Y55592998D01*
X140890000Y56298500D02*
X95086300Y56298500D01*
X80280304Y55811900D02*
X80061402Y55592998D01*
X75725002Y55592998D02*
X75687000Y55631000D01*
X94599700Y55811900D02*
X80280304Y55811900D01*
X146538500Y64752700D02*
X146538500Y61947000D01*
X152901700Y71115900D02*
X146538500Y64752700D01*
X95086300Y56298500D02*
X94599700Y55811900D01*
D25*
G04 #@! TO.N,Net-(A1-Pad3)*
X18923000Y85090000D02*
X18923000Y85799000D01*
X18923000Y85799000D02*
X22733000Y89609000D01*
X22733000Y89609000D02*
X22733000Y91440000D01*
G04 #@! TO.N,Net-(A1-Pad4)*
X16383000Y85090000D02*
X16383000Y86370300D01*
X16383000Y86370300D02*
X20193000Y90180300D01*
X20193000Y90180300D02*
X20193000Y91440000D01*
G04 #@! TO.N,Net-(A1-Pad5)*
X13843000Y85090000D02*
X13843000Y86941600D01*
X13843000Y86941600D02*
X17653000Y90751600D01*
X17653000Y90751600D02*
X17653000Y91440000D01*
G04 #@! TO.N,Net-(A1-Pad6)*
X11303000Y85090000D02*
X11303000Y87630000D01*
X11303000Y87630000D02*
X15113000Y91440000D01*
D26*
G04 #@! TO.N,+24V*
X54255000Y50038000D02*
X53263300Y50492500D01*
X54255000Y50038000D02*
X53263300Y49583500D01*
D25*
X6223000Y85090000D02*
X6223000Y91440000D01*
X34163000Y85090000D02*
X34163000Y91440000D01*
X62103000Y85090000D02*
X62103000Y91440000D01*
X6223000Y56515000D02*
X6223000Y62865000D01*
X6223000Y62865000D02*
X6223000Y65665000D01*
X6223000Y65665000D02*
X2023000Y69865000D01*
X2023000Y69865000D02*
X2023000Y80490000D01*
X2023000Y80490000D02*
X6223000Y84690000D01*
X6223000Y84690000D02*
X6223000Y85090000D01*
X6223000Y91440000D02*
X6223000Y94240000D01*
X6223000Y94240000D02*
X8023000Y96040000D01*
X8023000Y96040000D02*
X26763000Y96040000D01*
X26763000Y96040000D02*
X31363000Y91440000D01*
X31363000Y91440000D02*
X34163000Y91440000D01*
X34163000Y91440000D02*
X34163000Y94240000D01*
X34163000Y94240000D02*
X35963000Y96040000D01*
X35963000Y96040000D02*
X54703000Y96040000D01*
X54703000Y96040000D02*
X59303000Y91440000D01*
X59303000Y91440000D02*
X62103000Y91440000D01*
X6223000Y56515000D02*
X6223000Y56115000D01*
X6223000Y56115000D02*
X2023000Y51915000D01*
X2023000Y51915000D02*
X2023000Y3819000D01*
X2023000Y3819000D02*
X4064000Y1778000D01*
X4064000Y1778000D02*
X12193000Y1778000D01*
X12193000Y1778000D02*
X16765000Y6350000D01*
X47498000Y8255000D02*
X47498000Y13335000D01*
X47498000Y13335000D02*
X52578000Y18415000D01*
X47498000Y8255000D02*
X50673000Y5080000D01*
X50673000Y5080000D02*
X61468000Y5080000D01*
X61468000Y5080000D02*
X61468000Y10160000D01*
X53055000Y50038000D02*
X50110000Y50038000D01*
D26*
X72136000Y54356000D02*
X72136000Y52556000D01*
X72136000Y52556000D02*
X69618000Y50038000D01*
X69618000Y50038000D02*
X53055000Y50038000D01*
D25*
X52578000Y18415000D02*
X52578000Y21615000D01*
X52578000Y21615000D02*
X53061000Y22098000D01*
X53061000Y22098000D02*
X58908500Y22098000D01*
D24*
X16765000Y6350000D02*
X20067000Y3048000D01*
X20067000Y3048000D02*
X36431000Y3048000D01*
X36431000Y3048000D02*
X37338000Y3955000D01*
X37338000Y3955000D02*
X37338000Y8255000D01*
D25*
X37338000Y8255000D02*
X37338000Y4955000D01*
X37338000Y4955000D02*
X38991000Y3302000D01*
X38991000Y3302000D02*
X45845000Y3302000D01*
X45845000Y3302000D02*
X47498000Y4955000D01*
X47498000Y4955000D02*
X47498000Y8255000D01*
X58908500Y22098000D02*
X60012000Y22098000D01*
X60012000Y22098000D02*
X73914000Y22098000D01*
X73914000Y22098000D02*
X75766000Y23950000D01*
X75766000Y23950000D02*
X75766000Y27327000D01*
X75766000Y27327000D02*
X53055000Y50038000D01*
D22*
X40640000Y39370000D02*
X41229000Y38781000D01*
X41229000Y38781000D02*
X41916800Y38781000D01*
X41916800Y38781000D02*
X46088800Y34609000D01*
X46088800Y34609000D02*
X48118100Y34609000D01*
X48118100Y34609000D02*
X48442600Y34284500D01*
X48442600Y34284500D02*
X51411600Y34284500D01*
X51411600Y34284500D02*
X58010600Y27685500D01*
X58010600Y27685500D02*
X58176000Y27685500D01*
X58176000Y27685500D02*
X58908500Y26953000D01*
X58908500Y26953000D02*
X58908500Y26153000D01*
X58908500Y26153000D02*
X58908500Y22532900D01*
X58908500Y22532900D02*
X58908500Y22098000D01*
X27940000Y39370000D02*
X33156500Y39370000D01*
X33156500Y39370000D02*
X34407000Y40620500D01*
X34407000Y40620500D02*
X35443000Y40620500D01*
X35443000Y40620500D02*
X36693500Y39370000D01*
X36693500Y39370000D02*
X40640000Y39370000D01*
D25*
X50110000Y50038000D02*
X47489510Y50038000D01*
G04 #@! TO.N,Net-(A2-Pad3)*
X46863000Y85090000D02*
X46863000Y85778400D01*
X46863000Y85778400D02*
X50673000Y89588400D01*
X50673000Y89588400D02*
X50673000Y91440000D01*
G04 #@! TO.N,Net-(A2-Pad4)*
X44323000Y85090000D02*
X44323000Y86370300D01*
X44323000Y86370300D02*
X48133000Y90180300D01*
X48133000Y90180300D02*
X48133000Y91440000D01*
G04 #@! TO.N,Net-(A2-Pad5)*
X41783000Y85090000D02*
X41783000Y86941600D01*
X41783000Y86941600D02*
X45593000Y90751600D01*
X45593000Y90751600D02*
X45593000Y91440000D01*
G04 #@! TO.N,Net-(A2-Pad6)*
X39243000Y85090000D02*
X39243000Y87630000D01*
X39243000Y87630000D02*
X43053000Y91440000D01*
G04 #@! TO.N,Net-(A3-Pad6)*
X67183000Y85090000D02*
X67183000Y87630000D01*
X67183000Y87630000D02*
X70993000Y91440000D01*
G04 #@! TO.N,Net-(A3-Pad5)*
X69723000Y85090000D02*
X69723000Y86941600D01*
X69723000Y86941600D02*
X73533000Y90751600D01*
X73533000Y90751600D02*
X73533000Y91440000D01*
G04 #@! TO.N,Net-(A3-Pad4)*
X72263000Y85090000D02*
X72263000Y86370300D01*
X72263000Y86370300D02*
X76073000Y90180300D01*
X76073000Y90180300D02*
X76073000Y91440000D01*
G04 #@! TO.N,Net-(A3-Pad3)*
X74803000Y85090000D02*
X74803000Y85799000D01*
X74803000Y85799000D02*
X78613000Y89609000D01*
X78613000Y89609000D02*
X78613000Y91440000D01*
G04 #@! TO.N,Net-(A4-Pad6)*
X11303000Y56515000D02*
X11303000Y59055000D01*
X11303000Y59055000D02*
X15113000Y62865000D01*
G04 #@! TO.N,Net-(A4-Pad5)*
X13843000Y56515000D02*
X13843000Y58366600D01*
X13843000Y58366600D02*
X17653000Y62176600D01*
X17653000Y62176600D02*
X17653000Y62865000D01*
G04 #@! TO.N,Net-(A4-Pad4)*
X16383000Y56515000D02*
X16383000Y57795300D01*
X16383000Y57795300D02*
X20193000Y61605300D01*
X20193000Y61605300D02*
X20193000Y62865000D01*
G04 #@! TO.N,Net-(A4-Pad3)*
X18923000Y56515000D02*
X18923000Y57224000D01*
X18923000Y57224000D02*
X22733000Y61034000D01*
X22733000Y61034000D02*
X22733000Y62865000D01*
D26*
G04 #@! TO.N,+5V*
X93980000Y53848000D02*
X95480000Y55348000D01*
X95480000Y55348000D02*
X102386000Y55348000D01*
X102386000Y55348000D02*
X110236000Y47498000D01*
X110236000Y47498000D02*
X145815000Y47498000D01*
X145815000Y47498000D02*
X155448000Y37865000D01*
X155448000Y37865000D02*
X155448000Y37465000D01*
X87310000Y50038000D02*
X90170000Y50038000D01*
X90170000Y50038000D02*
X93980000Y53848000D01*
X87310000Y50038000D02*
X95018000Y50038000D01*
X95018000Y50038000D02*
X96012000Y49044000D01*
X96012000Y49044000D02*
X96012000Y47244000D01*
X87310000Y50038000D02*
X86614000Y50038000D01*
X86614000Y50038000D02*
X82296000Y54356000D01*
D22*
X155448000Y37465000D02*
X155448000Y37065000D01*
X155448000Y37065000D02*
X144464000Y26081000D01*
X144464000Y26081000D02*
X141431900Y26081000D01*
X141431900Y26081000D02*
X140731400Y25380500D01*
X140731400Y25380500D02*
X138382000Y25380500D01*
X138382000Y25380500D02*
X137649500Y24648000D01*
X137649500Y24648000D02*
X137649500Y23612000D01*
X137649500Y23612000D02*
X138382000Y22879500D01*
X138382000Y22879500D02*
X138421000Y22840500D01*
X138421000Y22840500D02*
X140218000Y22840500D01*
X140218000Y22840500D02*
X140950500Y22108000D01*
X140950500Y22108000D02*
X140950500Y19568000D01*
X140950500Y19568000D02*
X140950500Y18532000D01*
X140950500Y18532000D02*
X139700000Y17281500D01*
X139700000Y17281500D02*
X139700000Y16510000D01*
X123706600Y10660100D02*
X124506600Y10660100D01*
X124506600Y10660100D02*
X131582100Y10660100D01*
X131582100Y10660100D02*
X132013400Y11091400D01*
X132013400Y11091400D02*
X132039100Y11091400D01*
X132039100Y11091400D02*
X133481400Y11091400D01*
X133481400Y11091400D02*
X138900000Y16510000D01*
X138900000Y16510000D02*
X139700000Y16510000D01*
D27*
G04 #@! TO.N,+24V2*
X16765000Y15240000D02*
X20193000Y15240000D01*
X20193000Y15240000D02*
X27178000Y8255000D01*
D24*
G04 #@! TO.N,Net-(J10-Pad2)*
X42338000Y8255000D02*
X42338000Y10093000D01*
X42338000Y10093000D02*
X41910000Y10521000D01*
X41910000Y10521000D02*
X41910000Y17399000D01*
D25*
X41910000Y17399000D02*
X41910000Y19050000D01*
D22*
X39370000Y22860000D02*
X39370000Y21990000D01*
X39370000Y21990000D02*
X41910000Y19450000D01*
X41910000Y19450000D02*
X41910000Y19050000D01*
D25*
G04 #@! TO.N,Net-(J11-Pad2)*
X29210000Y18050000D02*
X28300900Y16066700D01*
X29210000Y18050000D02*
X30119100Y16066700D01*
X29210000Y19050000D02*
X29210000Y15650000D01*
X29210000Y15650000D02*
X29210000Y16510000D01*
D28*
X32178000Y8255000D02*
X32178000Y10093000D01*
X32178000Y10093000D02*
X29210000Y13061000D01*
X29210000Y13061000D02*
X29210000Y15650000D01*
D22*
X26416000Y22860000D02*
X26416000Y22244000D01*
X26416000Y22244000D02*
X29210000Y19450000D01*
X29210000Y19450000D02*
X29210000Y19050000D01*
D25*
G04 #@! TO.N,Net-(J12-Pad2)*
X67818000Y18415000D02*
X70358000Y18415000D01*
X70358000Y18415000D02*
X72898000Y18415000D01*
X67818000Y18415000D02*
X67818000Y15215000D01*
X67818000Y15215000D02*
X66217500Y11666100D01*
X66217500Y11666100D02*
X66165900Y7386900D01*
X66165900Y7386900D02*
X64008000Y5080000D01*
D22*
G04 #@! TO.N,/SD_MISO*
X127508000Y62865000D02*
X127508000Y62465000D01*
X127508000Y62465000D02*
X130159500Y59813500D01*
X130159500Y59813500D02*
X134029700Y59813500D01*
X134029700Y59813500D02*
X136226300Y59813500D01*
X136226300Y59813500D02*
X139325000Y59813500D01*
X139325000Y59813500D02*
X140726000Y61214500D01*
X140726000Y61214500D02*
X141458500Y61947000D01*
X141458500Y61947000D02*
X141458500Y62747000D01*
X141458500Y62747000D02*
X141458500Y63744000D01*
X141458500Y63744000D02*
X141497500Y63783000D01*
X141497500Y63783000D02*
X142230000Y64515500D01*
X142230000Y64515500D02*
X143239600Y64515500D01*
X143239600Y64515500D02*
X149798100Y71074000D01*
X149798100Y71074000D02*
X150941000Y72216900D01*
X150941000Y72216900D02*
X150941000Y73766200D01*
X150941000Y73766200D02*
X151641500Y74466700D01*
X151641500Y74466700D02*
X151641500Y76663300D01*
X151641500Y76663300D02*
X150941000Y77363800D01*
X150941000Y77363800D02*
X150941000Y78913100D01*
X150941000Y78913100D02*
X149798100Y80056000D01*
X149798100Y80056000D02*
X149579000Y80056000D01*
X149579000Y80056000D02*
X148990000Y80645000D01*
X148990000Y80645000D02*
X148590000Y80645000D01*
G04 #@! TO.N,/SD_MOSI*
X112268000Y62865000D02*
X112268000Y63265000D01*
X112268000Y63265000D02*
X112268000Y63484100D01*
X112268000Y63484100D02*
X112857000Y64073100D01*
X112857000Y64073100D02*
X113999900Y65216000D01*
X113999900Y65216000D02*
X116539900Y65216000D01*
X116539900Y65216000D02*
X119079900Y65216000D01*
X119079900Y65216000D02*
X121619900Y65216000D01*
X121619900Y65216000D02*
X123236100Y65216000D01*
X123236100Y65216000D02*
X123936600Y64515500D01*
X123936600Y64515500D02*
X130566000Y64515500D01*
X130566000Y64515500D02*
X131298500Y63783000D01*
X131298500Y63783000D02*
X131298500Y62983000D01*
X131298500Y62983000D02*
X131298500Y61986000D01*
X131298500Y61986000D02*
X131337500Y61947000D01*
X131337500Y61947000D02*
X132070000Y61214500D01*
X132070000Y61214500D02*
X134610000Y61214500D01*
X134610000Y61214500D02*
X135646000Y61214500D01*
X135646000Y61214500D02*
X136378500Y61947000D01*
X136378500Y61947000D02*
X136378500Y62747000D01*
X136378500Y62747000D02*
X136378500Y67341700D01*
X136378500Y67341700D02*
X138816900Y69780100D01*
X138816900Y69780100D02*
X139666600Y70629800D01*
X139666600Y70629800D02*
X140495700Y70629800D01*
X140495700Y70629800D02*
X147381900Y77516000D01*
X147381900Y77516000D02*
X147601000Y77516000D01*
X147601000Y77516000D02*
X148190000Y78105000D01*
X148190000Y78105000D02*
X148590000Y78105000D01*
G04 #@! TO.N,/SD_SCK*
X130048000Y62865000D02*
X130048000Y62465000D01*
X130048000Y62465000D02*
X130048000Y62245900D01*
X130048000Y62245900D02*
X130637000Y61656900D01*
X130637000Y61656900D02*
X131779900Y60514000D01*
X131779900Y60514000D02*
X134319900Y60514000D01*
X134319900Y60514000D02*
X135936100Y60514000D01*
X135936100Y60514000D02*
X137485500Y60514000D01*
X137485500Y60514000D02*
X138186000Y61214500D01*
X138186000Y61214500D02*
X138918500Y61947000D01*
X138918500Y61947000D02*
X138918500Y62747000D01*
X138918500Y62747000D02*
X138918500Y65779100D01*
X138918500Y65779100D02*
X141717900Y68578500D01*
X141717900Y68578500D02*
X141717900Y69092900D01*
X141717900Y69092900D02*
X148190000Y75565000D01*
X148190000Y75565000D02*
X148590000Y75565000D01*
G04 #@! TO.N,/SD_CS*
X132171800Y65455300D02*
X132171800Y63681200D01*
X132171800Y63681200D02*
X132588000Y63265000D01*
X132588000Y63265000D02*
X132588000Y62865000D01*
X148590000Y73025000D02*
X148990000Y73025000D01*
X148990000Y73025000D02*
X148990000Y73796500D01*
X148990000Y73796500D02*
X150240500Y75047000D01*
X150240500Y75047000D02*
X150240500Y76083000D01*
X150240500Y76083000D02*
X149508000Y76815500D01*
X149508000Y76815500D02*
X148708000Y76815500D01*
X148708000Y76815500D02*
X147672000Y76815500D01*
X147672000Y76815500D02*
X146939500Y76083000D01*
X146939500Y76083000D02*
X140267400Y69410900D01*
X140267400Y69410900D02*
X140267400Y69179300D01*
G04 #@! TO.N,Net-(Q1-Pad1)*
X44450000Y19050000D02*
X43900000Y20000000D01*
X43900000Y20000000D02*
X43900000Y20250000D01*
X43900000Y20250000D02*
X43900000Y20353600D01*
X43900000Y20353600D02*
X43180000Y21073600D01*
X43180000Y21073600D02*
X43180000Y22860000D01*
G04 #@! TO.N,Net-(Q2-Pad1)*
X31750000Y19050000D02*
X31200000Y20000000D01*
X31200000Y20000000D02*
X31200000Y20250000D01*
X31200000Y20250000D02*
X31200000Y20353600D01*
X31200000Y20353600D02*
X30226000Y21327600D01*
X30226000Y21327600D02*
X30226000Y22860000D01*
G04 #@! TO.N,Net-(U3-Pad9)*
X39008000Y57150000D02*
X38608000Y57150000D01*
X42183000Y60325000D02*
X39008000Y57150000D01*
X48103000Y60325000D02*
X42183000Y60325000D01*
X50038000Y59690000D02*
X48738000Y59690000D01*
X48738000Y59690000D02*
X48103000Y60325000D01*
D27*
G04 #@! TO.N,/PWR_IN*
X7620000Y23575000D02*
X7620000Y15495000D01*
X7620000Y15495000D02*
X7365000Y15240000D01*
X7365000Y15240000D02*
X7365000Y6350000D01*
D25*
G04 #@! TO.N,Net-(J14-Pad2)*
X52498000Y8255000D02*
X55118000Y10875000D01*
X55118000Y10875000D02*
X55118000Y18415000D01*
X55118000Y18415000D02*
X57658000Y18415000D01*
G04 #@! TO.N,Net-(J13-Pad2)*
X64008000Y10160000D02*
X64008000Y17145000D01*
X64008000Y17145000D02*
X62738000Y18415000D01*
X60198000Y18415000D02*
X62738000Y18415000D01*
X62738000Y18415000D02*
X65278000Y18415000D01*
D22*
G04 #@! TO.N,/Q142_FAN2*
X65278000Y26035000D02*
X62738000Y26035000D01*
X62738000Y26035000D02*
X60198000Y26035000D01*
X30988000Y49530000D02*
X31388000Y49530000D01*
X31388000Y49530000D02*
X31388000Y49462100D01*
X31388000Y49462100D02*
X34544000Y46306100D01*
X34544000Y46306100D02*
X35511100Y45339000D01*
X35511100Y45339000D02*
X37650600Y43199500D01*
X37650600Y43199500D02*
X38490000Y43199500D01*
X38490000Y43199500D02*
X39526000Y43199500D01*
X39526000Y43199500D02*
X40258500Y43932000D01*
X40258500Y43932000D02*
X40258500Y45416600D01*
X40258500Y45416600D02*
X42684000Y47842100D01*
X42684000Y47842100D02*
X43533700Y48691800D01*
X43533700Y48691800D02*
X44735300Y48691800D01*
X44735300Y48691800D02*
X45585000Y47842100D01*
X45585000Y47842100D02*
X45585000Y41267100D01*
X45585000Y41267100D02*
X59609000Y27243100D01*
X59609000Y27243100D02*
X59609000Y27024000D01*
X59609000Y27024000D02*
X60198000Y26435000D01*
X60198000Y26435000D02*
X60198000Y26035000D01*
G04 #@! TO.N,/Q143_FAN3*
X57658000Y26035000D02*
X55118000Y26035000D01*
X30988000Y46990000D02*
X31388000Y46990000D01*
X31388000Y46990000D02*
X31388000Y46218500D01*
X31388000Y46218500D02*
X32638500Y44968000D01*
X32638500Y44968000D02*
X32638500Y43932000D01*
X32638500Y43932000D02*
X31906000Y43199500D01*
X31906000Y43199500D02*
X30027500Y41321000D01*
X30027500Y41321000D02*
X27131900Y41321000D01*
X27131900Y41321000D02*
X25989000Y40178100D01*
X25989000Y40178100D02*
X25165500Y39354600D01*
X25165500Y39354600D02*
X25165500Y33538000D01*
X25165500Y33538000D02*
X25165500Y32502000D01*
X25165500Y32502000D02*
X25898000Y31769500D01*
X25898000Y31769500D02*
X26934000Y31769500D01*
X26934000Y31769500D02*
X27666500Y32502000D01*
X27666500Y32502000D02*
X27666500Y33219600D01*
X27666500Y33219600D02*
X28275000Y33828100D01*
X28275000Y33828100D02*
X29417900Y34971000D01*
X29417900Y34971000D02*
X31034100Y34971000D01*
X31034100Y34971000D02*
X34235600Y31769500D01*
X34235600Y31769500D02*
X42662000Y31769500D01*
X42662000Y31769500D02*
X43698000Y31769500D01*
X43698000Y31769500D02*
X44653000Y31769500D01*
X44653000Y31769500D02*
X46792000Y33908500D01*
X46792000Y33908500D02*
X47828000Y33908500D01*
X47828000Y33908500D02*
X48152500Y33584000D01*
X48152500Y33584000D02*
X51121400Y33584000D01*
X51121400Y33584000D02*
X51971100Y32734300D01*
X51971100Y32734300D02*
X51971100Y29581900D01*
X51971100Y29581900D02*
X55118000Y26435000D01*
X55118000Y26435000D02*
X55118000Y26035000D01*
G04 #@! TO.N,/Q139_E_EN*
X30988000Y57150000D02*
X29288000Y57150000D01*
X29288000Y57150000D02*
X23700000Y51562000D01*
X23700000Y51562000D02*
X13570000Y51562000D01*
X13570000Y51562000D02*
X6223000Y44215000D01*
X6223000Y44215000D02*
X6223000Y43815000D01*
G04 #@! TO.N,/Q140_E_STEP*
X30988000Y54610000D02*
X29288000Y54610000D01*
X29288000Y54610000D02*
X21463000Y46785000D01*
X21463000Y46785000D02*
X21463000Y45515000D01*
X21463000Y45515000D02*
X21463000Y43815000D01*
G04 #@! TO.N,/Q141_E_DIR*
X30988000Y52070000D02*
X30558000Y52070000D01*
X30558000Y52070000D02*
X24003000Y45515000D01*
X24003000Y45515000D02*
X24003000Y43815000D01*
G04 #@! TO.N,/Q138_X_EN*
X30988000Y59690000D02*
X30588000Y59690000D01*
X30588000Y59690000D02*
X19588000Y70690000D01*
X19588000Y70690000D02*
X7523000Y70690000D01*
X7523000Y70690000D02*
X6223000Y71990000D01*
X6223000Y71990000D02*
X6223000Y72390000D01*
G04 #@! TO.N,/Q137_X_STEP*
X30988000Y62230000D02*
X30588000Y62230000D01*
X30588000Y62230000D02*
X21463000Y71355000D01*
X21463000Y71355000D02*
X21463000Y72390000D01*
G04 #@! TO.N,/Q134_Y_EN*
X55118000Y67310000D02*
X55118000Y67710000D01*
X55118000Y67710000D02*
X52838000Y69990000D01*
X52838000Y69990000D02*
X36163000Y69990000D01*
X36163000Y69990000D02*
X34163000Y71990000D01*
X34163000Y71990000D02*
X34163000Y72390000D01*
G04 #@! TO.N,/Q133_Y_STEP*
X57658000Y67310000D02*
X57658000Y67710000D01*
X57658000Y67710000D02*
X54678000Y70690000D01*
X54678000Y70690000D02*
X50703000Y70690000D01*
X50703000Y70690000D02*
X49403000Y71990000D01*
X49403000Y71990000D02*
X49403000Y72390000D01*
G04 #@! TO.N,/Q132_Y_DIR*
X60198000Y67310000D02*
X60198000Y67710000D01*
X60198000Y67710000D02*
X55518000Y72390000D01*
X55518000Y72390000D02*
X53243000Y72390000D01*
X53243000Y72390000D02*
X51943000Y72390000D01*
G04 #@! TO.N,/Q129_Z_DIR*
X67818000Y67310000D02*
X70104000Y69596000D01*
X70104000Y69596000D02*
X77489000Y69596000D01*
X77489000Y69596000D02*
X79883000Y71990000D01*
X79883000Y71990000D02*
X79883000Y72390000D01*
G04 #@! TO.N,/Q130_Z_STEP*
X65278000Y67310000D02*
X65278000Y67710000D01*
X65278000Y67710000D02*
X67608000Y70040000D01*
X67608000Y70040000D02*
X68362900Y70040000D01*
X68362900Y70040000D02*
X69013000Y70690000D01*
X69013000Y70690000D02*
X76043000Y70690000D01*
X76043000Y70690000D02*
X77343000Y71990000D01*
X77343000Y71990000D02*
X77343000Y72390000D01*
G04 #@! TO.N,/Q131_Z_EN*
X62103000Y72390000D02*
X62103000Y67945000D01*
X62103000Y67945000D02*
X62738000Y67310000D01*
G04 #@! TO.N,/Q135_X_DIR*
X52578000Y67310000D02*
X52578000Y67710000D01*
X52578000Y67710000D02*
X50998000Y69290000D01*
X50998000Y69290000D02*
X28403000Y69290000D01*
X28403000Y69290000D02*
X25303000Y72390000D01*
X25303000Y72390000D02*
X24003000Y72390000D01*
G04 #@! TO.N,/IO22_I2S_DATA*
X122428000Y62865000D02*
X122428000Y61365000D01*
X122428000Y61365000D02*
X121007000Y59944000D01*
X121007000Y59944000D02*
X115570000Y59944000D01*
X115570000Y59944000D02*
X114300000Y58674000D01*
X114300000Y58674000D02*
X103124000Y58674000D01*
X103124000Y58674000D02*
X99822000Y61976000D01*
X99822000Y61976000D02*
X64624000Y61976000D01*
X64624000Y61976000D02*
X62738000Y60090000D01*
X62738000Y60090000D02*
X62738000Y59690000D01*
D23*
G04 #@! TO.N,/IO21_I2S_BCK*
X61468000Y60212000D02*
X61558900Y60410300D01*
X61468000Y60212000D02*
X61377100Y60410300D01*
X61468000Y58660000D02*
X61377100Y58461700D01*
X61468000Y58660000D02*
X61558900Y58461700D01*
D22*
X114808000Y62865000D02*
X114808000Y61365000D01*
X114808000Y61365000D02*
X113387000Y59944000D01*
X113387000Y59944000D02*
X106680000Y59944000D01*
X106426000Y59944000D02*
X106680000Y59944000D01*
X55118000Y60090000D02*
X55118000Y59690000D01*
X55118000Y59290000D02*
X55118000Y59690000D01*
D23*
X61468000Y60452000D02*
X61468000Y58420000D01*
D22*
X55118000Y59290000D02*
X55118000Y58420000D01*
X55118000Y58420000D02*
X56134000Y57404000D01*
X56134000Y57404000D02*
X60452000Y57404000D01*
X60452000Y57404000D02*
X61468000Y58420000D01*
X106680000Y59944000D02*
X104394000Y59944000D01*
X104394000Y59944000D02*
X100330000Y64008000D01*
X100330000Y64008000D02*
X74168000Y64008000D01*
X74168000Y64008000D02*
X73406000Y63246000D01*
X73406000Y63246000D02*
X64008000Y63246000D01*
X64008000Y63246000D02*
X61468000Y60706000D01*
X61468000Y60706000D02*
X61468000Y60452000D01*
X38608000Y49530000D02*
X39751000Y49530000D01*
X39751000Y49530000D02*
X45339000Y55118000D01*
X45339000Y55118000D02*
X52070000Y55118000D01*
X52070000Y55118000D02*
X55118000Y58166000D01*
X55118000Y58166000D02*
X55118000Y59290000D01*
D23*
G04 #@! TO.N,/IO17_I2S_WS*
X53848000Y59032200D02*
X53757100Y58833900D01*
X53848000Y59032200D02*
X53938900Y58833900D01*
X53848000Y60226000D02*
X53938900Y60424300D01*
X53848000Y60226000D02*
X53757100Y60424300D01*
D22*
X57658000Y60090000D02*
X57658000Y59690000D01*
X53848000Y60466000D02*
X53848000Y60706000D01*
X53848000Y60706000D02*
X54532000Y61390000D01*
X54532000Y61390000D02*
X56358000Y61390000D01*
X56358000Y61390000D02*
X57658000Y60090000D01*
D23*
X53848000Y58792200D02*
X53848000Y60466000D01*
D22*
X38608000Y52070000D02*
X40132000Y52070000D01*
X40132000Y52070000D02*
X44958000Y56896000D01*
X44958000Y56896000D02*
X52070000Y56896000D01*
X52070000Y56896000D02*
X53848000Y58674000D01*
X53848000Y58674000D02*
X53848000Y58792200D01*
X57658000Y60090000D02*
X62084000Y64516000D01*
X62084000Y64516000D02*
X68580000Y64516000D01*
X68580000Y64516000D02*
X70612000Y66548000D01*
X70612000Y66548000D02*
X129910100Y66548000D01*
X129910100Y66548000D02*
X131213200Y66548000D01*
X131213200Y66548000D02*
X131571000Y66905800D01*
X131571000Y66905800D02*
X132772600Y66905800D01*
X132772600Y66905800D02*
X133622300Y66056100D01*
X133622300Y66056100D02*
X133622300Y64770700D01*
X133622300Y64770700D02*
X135128000Y63265000D01*
X135128000Y63265000D02*
X135128000Y62865000D01*
G04 #@! TO.N,/I36_T_BED*
X97028000Y5080000D02*
X97028000Y11430000D01*
X97028000Y11430000D02*
X97028000Y15320000D01*
X97028000Y15320000D02*
X94568000Y17780000D01*
X113792000Y29972000D02*
X114808000Y30988000D01*
X114808000Y30988000D02*
X114808000Y37465000D01*
X94568000Y17780000D02*
X98632000Y21844000D01*
X98632000Y21844000D02*
X105664000Y21844000D01*
X105664000Y21844000D02*
X112992000Y29172000D01*
X112992000Y29172000D02*
X113792000Y29972000D01*
G04 #@! TO.N,/I39_T_NOZ*
X104648000Y5080000D02*
X104648000Y6780000D01*
X104648000Y6780000D02*
X104648000Y11430000D01*
X104648000Y11430000D02*
X104648000Y12730000D01*
X104648000Y12730000D02*
X104648000Y17780000D01*
X104648000Y17780000D02*
X111252000Y24384000D01*
X111252000Y24384000D02*
X113792000Y24384000D01*
X113792000Y24384000D02*
X117348000Y27940000D01*
X117348000Y27940000D02*
X117348000Y37465000D01*
D23*
G04 #@! TO.N,/IOx_X_MIN*
X90762300Y2702000D02*
X90564000Y2792900D01*
X90762300Y2702000D02*
X90564000Y2611100D01*
D22*
X71628000Y5080000D02*
X71628000Y8763000D01*
X71628000Y8763000D02*
X70358000Y10033000D01*
X70358000Y10033000D02*
X74930000Y14605000D01*
X74930000Y14605000D02*
X78994000Y14605000D01*
X90522300Y2702000D02*
X73252400Y2702000D01*
X73252400Y2702000D02*
X72324400Y3630000D01*
X72324400Y3630000D02*
X72178000Y3776400D01*
X72178000Y3776400D02*
X72178000Y3880000D01*
X72178000Y3880000D02*
X72178000Y4130000D01*
X72178000Y4130000D02*
X71628000Y5080000D01*
D23*
X98581100Y2702300D02*
X98580800Y2702000D01*
X98580800Y2702000D02*
X90522300Y2702000D01*
D22*
X119888000Y37465000D02*
X119888000Y37065000D01*
X119888000Y37065000D02*
X119299000Y36476000D01*
X119299000Y36476000D02*
X119299000Y36256900D01*
X119299000Y36256900D02*
X118749000Y35706900D01*
X118749000Y35706900D02*
X118749000Y27359700D01*
X118749000Y27359700D02*
X118475800Y27086500D01*
X118475800Y27086500D02*
X117635000Y26245700D01*
X117635000Y26245700D02*
X117620800Y26231500D01*
X117620800Y26231500D02*
X116506800Y25117500D01*
X116506800Y25117500D02*
X116492600Y25103300D01*
X116492600Y25103300D02*
X115743000Y24353700D01*
X115743000Y24353700D02*
X115743000Y23575900D01*
X115743000Y23575900D02*
X110898500Y18731400D01*
X110898500Y18731400D02*
X110898500Y17262000D01*
X110898500Y17262000D02*
X108438500Y14802000D01*
X108438500Y14802000D02*
X108438500Y4162000D01*
X108438500Y4162000D02*
X107706000Y3429500D01*
X107706000Y3429500D02*
X106978800Y2702300D01*
X106978800Y2702300D02*
X98581100Y2702300D01*
G04 #@! TO.N,/IOx_Y_MIN*
X79248000Y5207000D02*
X79248000Y9398000D01*
X79248000Y9398000D02*
X78613000Y10033000D01*
X78613000Y10033000D02*
X82549000Y13969000D01*
X82549000Y13969000D02*
X83185000Y14605000D01*
X83185000Y14605000D02*
X84074000Y14605000D01*
X122428000Y37465000D02*
X122428000Y37065000D01*
X122428000Y37065000D02*
X119449500Y34086500D01*
X119449500Y34086500D02*
X119449500Y27069500D01*
X119449500Y27069500D02*
X119176300Y26796300D01*
X119176300Y26796300D02*
X118335500Y25955500D01*
X118335500Y25955500D02*
X118321300Y25941300D01*
X118321300Y25941300D02*
X117207300Y24827300D01*
X117207300Y24827300D02*
X117193100Y24813100D01*
X117193100Y24813100D02*
X116443500Y24063500D01*
X116443500Y24063500D02*
X116443500Y23285700D01*
X116443500Y23285700D02*
X111599000Y18441200D01*
X111599000Y18441200D02*
X111599000Y16971900D01*
X111599000Y16971900D02*
X109139000Y14511900D01*
X109139000Y14511900D02*
X109139000Y3871900D01*
X109139000Y3871900D02*
X107996100Y2729000D01*
X107996100Y2729000D02*
X107268600Y2001500D01*
X107268600Y2001500D02*
X90812500Y2001500D01*
X90812500Y2001500D02*
X90232100Y2001500D01*
X90232100Y2001500D02*
X72069400Y2001500D01*
X72069400Y2001500D02*
X70641400Y3429500D01*
X70641400Y3429500D02*
X70377500Y3693400D01*
X70377500Y3693400D02*
X69107500Y4963400D01*
X69107500Y4963400D02*
X69107500Y9515000D01*
X69107500Y9515000D02*
X69107500Y10551000D01*
X69107500Y10551000D02*
X69840000Y11283500D01*
X69840000Y11283500D02*
X70617700Y11283500D01*
X70617700Y11283500D02*
X74639700Y15305500D01*
X74639700Y15305500D02*
X74902300Y15305500D01*
X74902300Y15305500D02*
X76661700Y15305500D01*
X76661700Y15305500D02*
X76681800Y15305500D01*
X76681800Y15305500D02*
X77184300Y15305500D01*
X77184300Y15305500D02*
X77240500Y15305500D01*
X77240500Y15305500D02*
X77926000Y15305500D01*
X77926000Y15305500D02*
X78476000Y15855500D01*
X78476000Y15855500D02*
X79512000Y15855500D01*
X79512000Y15855500D02*
X81321700Y14045800D01*
X81321700Y14045800D02*
X82472100Y14045800D01*
X82472100Y14045800D02*
X82548900Y13969000D01*
X82548900Y13969000D02*
X82549000Y13969000D01*
G04 #@! TO.N,/IOx_Z_MIN*
X86868000Y5207000D02*
X86868000Y10033000D01*
X86868000Y10033000D02*
X89154000Y12319000D01*
X89154000Y12319000D02*
X89154000Y14605000D01*
X124968000Y37465000D02*
X124968000Y37065000D01*
X124968000Y37065000D02*
X120150000Y32247000D01*
X120150000Y32247000D02*
X120150000Y26779400D01*
X120150000Y26779400D02*
X119876800Y26506200D01*
X119876800Y26506200D02*
X119036000Y25665400D01*
X119036000Y25665400D02*
X119021800Y25651200D01*
X119021800Y25651200D02*
X117907800Y24537200D01*
X117907800Y24537200D02*
X117893600Y24523000D01*
X117893600Y24523000D02*
X117144000Y23773400D01*
X117144000Y23773400D02*
X117144000Y22995600D01*
X117144000Y22995600D02*
X112299500Y18151100D01*
X112299500Y18151100D02*
X112299500Y16681700D01*
X112299500Y16681700D02*
X109839500Y14221700D01*
X109839500Y14221700D02*
X109839500Y3581700D01*
X109839500Y3581700D02*
X108286300Y2028500D01*
X108286300Y2028500D02*
X107558800Y1301000D01*
X107558800Y1301000D02*
X91102600Y1301000D01*
X91102600Y1301000D02*
X89942000Y1301000D01*
X89942000Y1301000D02*
X71779200Y1301000D01*
X71779200Y1301000D02*
X70351200Y2729000D01*
X70351200Y2729000D02*
X69677000Y3403200D01*
X69677000Y3403200D02*
X68407000Y4673200D01*
X68407000Y4673200D02*
X68407000Y9224900D01*
X68407000Y9224900D02*
X68407000Y10841100D01*
X68407000Y10841100D02*
X69549900Y11984000D01*
X69549900Y11984000D02*
X70327600Y11984000D01*
X70327600Y11984000D02*
X74349600Y16006000D01*
X74349600Y16006000D02*
X74612200Y16006000D01*
X74612200Y16006000D02*
X76371600Y16006000D01*
X76371600Y16006000D02*
X76391700Y16006000D01*
X76391700Y16006000D02*
X76894200Y16006000D01*
X76894200Y16006000D02*
X76950400Y16006000D01*
X76950400Y16006000D02*
X77635900Y16006000D01*
X77635900Y16006000D02*
X78185900Y16556000D01*
X78185900Y16556000D02*
X79802100Y16556000D01*
X79802100Y16556000D02*
X80502600Y15855500D01*
X80502600Y15855500D02*
X84592000Y15855500D01*
X84592000Y15855500D02*
X85842500Y14605000D01*
X85842500Y14605000D02*
X89154000Y14605000D01*
G04 #@! TO.N,/IOx_BTN_ENC*
X123706600Y20820100D02*
X124506600Y20820100D01*
X124506600Y20820100D02*
X124506600Y26443600D01*
X124506600Y26443600D02*
X135128000Y37065000D01*
X135128000Y37065000D02*
X135128000Y37465000D01*
G04 #@! TO.N,/IOx_LCD_D4*
X123706600Y15740100D02*
X124506600Y15740100D01*
X124506600Y15740100D02*
X124506600Y16511600D01*
X124506600Y16511600D02*
X125757100Y17762100D01*
X125757100Y17762100D02*
X125757100Y20302100D01*
X125757100Y20302100D02*
X125757100Y25154100D01*
X125757100Y25154100D02*
X137668000Y37065000D01*
X137668000Y37065000D02*
X137668000Y37465000D01*
G04 #@! TO.N,/IOx_LCD_RS*
X121166600Y13200100D02*
X120366600Y13200100D01*
X120366600Y13200100D02*
X118415600Y15151100D01*
X118415600Y15151100D02*
X118415600Y21143300D01*
X118415600Y21143300D02*
X118415600Y22096900D01*
X118415600Y22096900D02*
X118415600Y22285800D01*
X118415600Y22285800D02*
X118545000Y22415200D01*
X118545000Y22415200D02*
X118545000Y23193100D01*
X118545000Y23193100D02*
X121551000Y26199100D01*
X121551000Y26199100D02*
X121551000Y26461600D01*
X121551000Y26461600D02*
X121551000Y27211100D01*
X121551000Y27211100D02*
X121551000Y27936600D01*
X121551000Y27936600D02*
X121551000Y30888900D01*
X121551000Y30888900D02*
X126919000Y36256900D01*
X126919000Y36256900D02*
X126919000Y36476000D01*
X126919000Y36476000D02*
X127508000Y37065000D01*
X127508000Y37065000D02*
X127508000Y37465000D01*
G04 #@! TO.N,/IOx_LCD_EN*
X123706600Y13200100D02*
X124506600Y13200100D01*
X124506600Y13200100D02*
X124506600Y13971600D01*
X124506600Y13971600D02*
X125757100Y15222100D01*
X125757100Y15222100D02*
X125757100Y16771500D01*
X125757100Y16771500D02*
X126457600Y17472000D01*
X126457600Y17472000D02*
X126457600Y20012000D01*
X126457600Y20012000D02*
X126457600Y23314600D01*
X126457600Y23314600D02*
X140208000Y37065000D01*
X140208000Y37065000D02*
X140208000Y37465000D01*
G04 #@! TO.N,/IOx_SERVO*
X139700000Y24130000D02*
X140471500Y24130000D01*
X140471500Y24130000D02*
X141722000Y25380500D01*
X141722000Y25380500D02*
X142522000Y25380500D01*
X142522000Y25380500D02*
X145532000Y25380500D01*
X145532000Y25380500D02*
X155966000Y35814500D01*
X155966000Y35814500D02*
X156698500Y36547000D01*
X156698500Y36547000D02*
X156698500Y37325600D01*
X156698500Y37325600D02*
X156698500Y37347000D01*
X156698500Y37347000D02*
X156698500Y38383000D01*
X156698500Y38383000D02*
X147828000Y47253500D01*
X147828000Y47253500D02*
X147828000Y62465000D01*
X147828000Y62465000D02*
X147828000Y62865000D01*
G04 #@! TO.N,/IOx_FAN1*
X72898000Y26035000D02*
X70358000Y26035000D01*
X70358000Y26035000D02*
X67818000Y26035000D01*
X145288000Y37465000D02*
X145288000Y37065000D01*
X69259700Y12684500D02*
X69336000Y12684500D01*
X67706500Y11131300D02*
X69259700Y12684500D01*
X67706500Y8934700D02*
X67706500Y11131300D01*
X67706500Y4383100D02*
X67706500Y8934700D01*
X68976500Y3113100D02*
X67706500Y4383100D01*
X70061100Y2028500D02*
X68976500Y3113100D01*
X71489100Y600500D02*
X70061100Y2028500D01*
X89651800Y600500D02*
X71489100Y600500D01*
X91392800Y600500D02*
X89651800Y600500D01*
X112875500Y600500D02*
X91392800Y600500D01*
X121684600Y9409600D02*
X112875500Y600500D01*
X122417100Y10142100D02*
X121684600Y9409600D01*
X122417100Y11139100D02*
X122417100Y10142100D01*
X122456100Y11178100D02*
X122417100Y11139100D01*
X123188600Y11910600D02*
X122456100Y11178100D01*
X124985600Y11910600D02*
X123188600Y11910600D01*
X125024600Y11949600D02*
X124985600Y11910600D01*
X125757100Y12682100D02*
X125024600Y11949600D01*
X125757100Y14231500D02*
X125757100Y12682100D01*
X126457600Y14932000D02*
X125757100Y14231500D01*
X126457600Y16481300D02*
X126457600Y14932000D01*
X127158100Y17181800D02*
X126457600Y16481300D01*
X127158100Y18935100D02*
X127158100Y17181800D01*
X145288000Y37065000D02*
X127158100Y18935100D01*
X67818000Y26435000D02*
X67818000Y26035000D01*
X46285500Y47967500D02*
X67818000Y26435000D01*
X46059500Y48358300D02*
X46285500Y48132300D01*
X77216500Y24399200D02*
X77216500Y27927800D01*
X77216400Y24399100D02*
X77216500Y24399200D01*
X77216400Y20593904D02*
X77216400Y24399100D01*
X73261209Y16686009D02*
X73308505Y16686009D01*
X46059500Y50956000D02*
X46059500Y48358300D01*
X73386500Y31757800D02*
X73386500Y55342600D01*
X69259700Y12684500D02*
X73261209Y16686009D01*
X77216500Y27927800D02*
X73386500Y31757800D01*
X73386500Y55342600D02*
X73122600Y55606500D01*
X70442500Y54899600D02*
X70442500Y54048400D01*
X73122600Y55606500D02*
X71149400Y55606500D01*
X73308505Y16686009D02*
X77216400Y20593904D01*
X68082600Y51688500D02*
X46792000Y51688500D01*
X71149400Y55606500D02*
X70442500Y54899600D01*
X70442500Y54048400D02*
X68082600Y51688500D01*
X46285500Y48132300D02*
X46285500Y47967500D01*
X46792000Y51688500D02*
X46059500Y50956000D01*
G04 #@! TO.N,/IOx_BTN_EN1*
X121166600Y18280100D02*
X121166600Y18583000D01*
X121166600Y18583000D02*
X122417100Y19833500D01*
X122417100Y19833500D02*
X122417100Y21433500D01*
X122417100Y21433500D02*
X122417100Y25083800D01*
X122417100Y25083800D02*
X122952000Y25618700D01*
X122952000Y25618700D02*
X122952000Y26630700D01*
X122952000Y26630700D02*
X122952000Y27356200D01*
X122952000Y27356200D02*
X122952000Y27429000D01*
X122952000Y27429000D02*
X132588000Y37065000D01*
X132588000Y37065000D02*
X132588000Y37465000D01*
G04 #@! TO.N,/IOx_BTN_EN2*
X121166600Y15740100D02*
X120366600Y15740100D01*
X120366600Y15740100D02*
X119116100Y16990600D01*
X119116100Y16990600D02*
X119116100Y21433500D01*
X119116100Y21433500D02*
X119116100Y21806700D01*
X119116100Y21806700D02*
X119116100Y21995700D01*
X119116100Y21995700D02*
X119245500Y22125100D01*
X119245500Y22125100D02*
X119245500Y22902900D01*
X119245500Y22902900D02*
X122251500Y25908900D01*
X122251500Y25908900D02*
X122251500Y26171400D01*
X122251500Y26171400D02*
X122251500Y26920900D01*
X122251500Y26920900D02*
X122251500Y27646400D01*
X122251500Y27646400D02*
X122251500Y29268500D01*
X122251500Y29268500D02*
X130048000Y37065000D01*
X130048000Y37065000D02*
X130048000Y37465000D01*
G04 #@! TO.N,/IOx_NOZZLE*
X34925000Y39370000D02*
X33674500Y38119500D01*
X33674500Y38119500D02*
X28458000Y38119500D01*
X28458000Y38119500D02*
X27422000Y38119500D01*
X27422000Y38119500D02*
X26689500Y38852000D01*
X26689500Y38852000D02*
X26689500Y39888000D01*
X26689500Y39888000D02*
X27422000Y40620500D01*
X27422000Y40620500D02*
X33416400Y40620500D01*
X33416400Y40620500D02*
X34116900Y41321000D01*
X34116900Y41321000D02*
X38638100Y41321000D01*
X38638100Y41321000D02*
X39816100Y42499000D01*
X39816100Y42499000D02*
X40959000Y43641900D01*
X40959000Y43641900D02*
X40959000Y44065800D01*
X40959000Y44065800D02*
X44134500Y47241300D01*
X34925000Y39370000D02*
X36214500Y38080500D01*
X36214500Y38080500D02*
X41626600Y38080500D01*
X41626600Y38080500D02*
X41890500Y37816600D01*
X41890500Y37816600D02*
X41890500Y37566600D01*
X41890500Y37566600D02*
X41890500Y36567300D01*
X41890500Y36567300D02*
X41890500Y36216600D01*
X41890500Y36216600D02*
X41890500Y34309500D01*
X41890500Y34309500D02*
X43180000Y33020000D01*
X145288000Y62865000D02*
X145288000Y62465000D01*
X145288000Y62465000D02*
X144699000Y61876000D01*
X80789213Y57023000D02*
X79375000Y57023000D01*
X140065100Y57023000D02*
X80789213Y57023000D01*
X144699000Y61656900D02*
X140065100Y57023000D01*
X144699000Y61876000D02*
X144699000Y61656900D01*
G04 #@! TO.N,/IOx_BED*
X30226000Y33020000D02*
X27574500Y30368500D01*
X27574500Y30368500D02*
X27514300Y30368500D01*
X27514300Y30368500D02*
X25317700Y30368500D01*
X25317700Y30368500D02*
X23764500Y31921700D01*
X23764500Y31921700D02*
X21590000Y34096200D01*
X21590000Y34096200D02*
X21590000Y40005000D01*
X68992000Y54649200D02*
X66731800Y52389000D01*
X66731800Y52389000D02*
X46501900Y52389000D01*
X46501900Y52389000D02*
X43505200Y49392300D01*
X43505200Y49392300D02*
X43243500Y49392300D01*
X43243500Y49392300D02*
X39590700Y45739500D01*
X39590700Y45739500D02*
X38726000Y45739500D01*
X38726000Y45739500D02*
X37690000Y45739500D01*
X37690000Y45739500D02*
X36101300Y45739500D01*
X36101300Y45739500D02*
X35410500Y46430300D01*
X35410500Y46430300D02*
X34853700Y46987100D01*
X34853700Y46987100D02*
X32638500Y49202300D01*
X32638500Y49202300D02*
X32638500Y52588000D01*
X32638500Y52588000D02*
X31906000Y53320500D01*
X31906000Y53320500D02*
X31106000Y53320500D01*
X31106000Y53320500D02*
X30070000Y53320500D01*
X30070000Y53320500D02*
X29337500Y52588000D01*
X29337500Y52588000D02*
X22713500Y45964000D01*
X22713500Y45964000D02*
X22713500Y42897000D01*
X22713500Y42897000D02*
X21590000Y41773500D01*
X21590000Y41773500D02*
X21590000Y40005000D01*
X140208000Y62865000D02*
X140208000Y63265000D01*
X140208000Y63265000D02*
X140208000Y63484100D01*
X140208000Y63484100D02*
X140797000Y64073100D01*
X140797000Y64073100D02*
X141939900Y65216000D01*
X141939900Y65216000D02*
X142949500Y65216000D01*
X142949500Y65216000D02*
X149508000Y71774500D01*
X149508000Y71774500D02*
X150240500Y72507000D01*
X150240500Y72507000D02*
X150240500Y74056400D01*
X150240500Y74056400D02*
X150941000Y74756900D01*
X150941000Y74756900D02*
X150941000Y76373100D01*
X150941000Y76373100D02*
X150240500Y77073600D01*
X150240500Y77073600D02*
X150240500Y78623000D01*
X150240500Y78623000D02*
X149508000Y79355500D01*
X149508000Y79355500D02*
X148708000Y79355500D01*
X148708000Y79355500D02*
X147672000Y79355500D01*
X147672000Y79355500D02*
X139646800Y71330300D01*
X139646800Y71330300D02*
X139376400Y71330300D01*
X139376400Y71330300D02*
X137643600Y69597500D01*
X137643600Y69597500D02*
X82565700Y69597500D01*
G04 #@! TO.N,Net-(D3-Pad1)*
X26416000Y33020000D02*
X26416000Y34952400D01*
X26416000Y34952400D02*
X27390000Y35926400D01*
X27390000Y35926400D02*
X27390000Y36030000D01*
X27390000Y36030000D02*
X27390000Y36280000D01*
X27390000Y36280000D02*
X27940000Y36830000D01*
G04 #@! TO.N,Net-(D2-Pad1)*
X39370000Y33020000D02*
X39370000Y35206400D01*
X39370000Y35206400D02*
X40090000Y35926400D01*
X40090000Y35926400D02*
X40090000Y36030000D01*
X40090000Y36030000D02*
X40090000Y36280000D01*
X40090000Y36280000D02*
X40640000Y36830000D01*
G04 #@! TD*
D23*
G04 #@! TO.N,GND*
G36*
X130821800Y65723832D02*
X130821800Y65186768D01*
X130890857Y65020050D01*
X130800108Y65080687D01*
X130625091Y65115500D01*
X130625086Y65115500D01*
X130566000Y65127253D01*
X130506914Y65115500D01*
X124185128Y65115500D01*
X123702148Y65598479D01*
X123668675Y65648575D01*
X123470208Y65781187D01*
X123295191Y65816000D01*
X123295186Y65816000D01*
X123236100Y65827753D01*
X123177014Y65816000D01*
X114058988Y65816000D01*
X113999900Y65827753D01*
X113940812Y65816000D01*
X113940809Y65816000D01*
X113765792Y65781187D01*
X113628436Y65689408D01*
X113567325Y65648575D01*
X113533853Y65598481D01*
X112474522Y64539149D01*
X112474519Y64539147D01*
X112355497Y64420125D01*
X112268000Y64437529D01*
X111819293Y64348276D01*
X111438897Y64094103D01*
X111184724Y63713706D01*
X111118000Y63378260D01*
X111118000Y62351739D01*
X111184724Y62016293D01*
X111438898Y61635897D01*
X111819294Y61381724D01*
X112268000Y61292471D01*
X112716707Y61381724D01*
X113097103Y61635897D01*
X113351276Y62016293D01*
X113418000Y62351740D01*
X113418000Y63378261D01*
X113351276Y63713707D01*
X113349216Y63716789D01*
X114248428Y64616000D01*
X122987573Y64616000D01*
X123470552Y64133020D01*
X123504025Y64082925D01*
X123554119Y64049453D01*
X123684141Y63962575D01*
X123702492Y63950313D01*
X123877509Y63915500D01*
X123877512Y63915500D01*
X123936600Y63903747D01*
X123995688Y63915500D01*
X124038430Y63915500D01*
X123943807Y63797474D01*
X123818000Y63365000D01*
X123818000Y62965000D01*
X124868000Y62965000D01*
X124868000Y62985000D01*
X125068000Y62985000D01*
X125068000Y62965000D01*
X126118000Y62965000D01*
X126118000Y63365000D01*
X125992193Y63797474D01*
X125897570Y63915500D01*
X126559558Y63915500D01*
X126424724Y63713706D01*
X126358000Y63378260D01*
X126358000Y62351739D01*
X126424724Y62016293D01*
X126678898Y61635897D01*
X127059294Y61381724D01*
X127508000Y61292471D01*
X127778247Y61346226D01*
X129284472Y59840000D01*
X124968000Y59840000D01*
X124910597Y59828582D01*
X124861934Y59796066D01*
X122688868Y57623000D01*
X100924361Y57623000D01*
X98142776Y60056887D01*
X98092057Y60086093D01*
X98044000Y60094000D01*
X72705409Y60094000D01*
X72602923Y60341423D01*
X72279423Y60664923D01*
X71856749Y60840000D01*
X71399251Y60840000D01*
X70976577Y60664923D01*
X70851654Y60540000D01*
X68900412Y60540000D01*
X68647103Y60919103D01*
X68266707Y61173276D01*
X67818000Y61262529D01*
X67369294Y61173276D01*
X66988898Y60919103D01*
X66734724Y60538707D01*
X66668000Y60203261D01*
X66668000Y59176740D01*
X66734724Y58841294D01*
X66988897Y58460897D01*
X67369293Y58206724D01*
X67818000Y58117471D01*
X68266706Y58206724D01*
X68647103Y58460897D01*
X68900412Y58840000D01*
X69575918Y58840000D01*
X64925919Y54190000D01*
X45930713Y54190000D01*
X45846999Y54206652D01*
X45763285Y54190000D01*
X45515347Y54140682D01*
X45234184Y53952816D01*
X45186763Y53881845D01*
X39391221Y48086302D01*
X39121261Y48140000D01*
X38094739Y48140000D01*
X37759293Y48073276D01*
X37410172Y47840000D01*
X36547082Y47840000D01*
X36283000Y48104081D01*
X36283000Y54332013D01*
X37092104Y54332013D01*
X37107270Y54262302D01*
X37324116Y53867538D01*
X37675526Y53585807D01*
X38108000Y53460000D01*
X38508000Y53460000D01*
X38508000Y54510000D01*
X38708000Y54510000D01*
X38708000Y53460000D01*
X39108000Y53460000D01*
X39540474Y53585807D01*
X39891884Y53867538D01*
X40108730Y54262302D01*
X40123896Y54332013D01*
X40065784Y54510000D01*
X38708000Y54510000D01*
X38508000Y54510000D01*
X37150216Y54510000D01*
X37092104Y54332013D01*
X36283000Y54332013D01*
X36283000Y54887987D01*
X37092104Y54887987D01*
X37150216Y54710000D01*
X38508000Y54710000D01*
X38508000Y55760000D01*
X38708000Y55760000D01*
X38708000Y54710000D01*
X40065784Y54710000D01*
X40123896Y54887987D01*
X40108730Y54957698D01*
X39891884Y55352462D01*
X39540474Y55634193D01*
X39108000Y55760000D01*
X38708000Y55760000D01*
X38508000Y55760000D01*
X38108000Y55760000D01*
X37675526Y55634193D01*
X37324116Y55352462D01*
X37107270Y54957698D01*
X37092104Y54887987D01*
X36283000Y54887987D01*
X36283000Y57150000D01*
X37035471Y57150000D01*
X37124724Y56701293D01*
X37378897Y56320897D01*
X37759293Y56066724D01*
X38094739Y56000000D01*
X39121261Y56000000D01*
X39456707Y56066724D01*
X39837103Y56320897D01*
X40091276Y56701293D01*
X40180529Y57150000D01*
X40129710Y57405487D01*
X41893677Y57405487D01*
X41914770Y56948475D01*
X42049081Y56624217D01*
X42218323Y56536744D01*
X42911579Y57230000D01*
X42218323Y57923256D01*
X42049081Y57835783D01*
X41893677Y57405487D01*
X40129710Y57405487D01*
X40126774Y57420247D01*
X40771204Y58064677D01*
X42359744Y58064677D01*
X43053000Y57371421D01*
X43746256Y58064677D01*
X43658783Y58233919D01*
X43228487Y58389323D01*
X42771475Y58368230D01*
X42447217Y58233919D01*
X42359744Y58064677D01*
X40771204Y58064677D01*
X42431528Y59725000D01*
X47854473Y59725000D01*
X48271953Y59307519D01*
X48305425Y59257425D01*
X48355519Y59223953D01*
X48376883Y59209678D01*
X48503892Y59124813D01*
X48678909Y59090000D01*
X48678912Y59090000D01*
X48738000Y59078247D01*
X48797088Y59090000D01*
X48905254Y59090000D01*
X48954724Y58841294D01*
X49208897Y58460897D01*
X49589293Y58206724D01*
X50038000Y58117471D01*
X50486706Y58206724D01*
X50867103Y58460897D01*
X51121276Y58841293D01*
X51188000Y59176739D01*
X51188000Y60203260D01*
X51121276Y60538707D01*
X50867103Y60919103D01*
X50486707Y61173276D01*
X50038000Y61262529D01*
X49589294Y61173276D01*
X49208898Y60919103D01*
X48954724Y60538707D01*
X48918738Y60357790D01*
X48569048Y60707479D01*
X48535575Y60757575D01*
X48337108Y60890187D01*
X48162091Y60925000D01*
X48162086Y60925000D01*
X48103000Y60936753D01*
X48043914Y60925000D01*
X42242086Y60925000D01*
X42182999Y60936753D01*
X42123913Y60925000D01*
X42123909Y60925000D01*
X41948892Y60890187D01*
X41750425Y60757575D01*
X41716953Y60707481D01*
X39278247Y58268774D01*
X39121261Y58300000D01*
X38094739Y58300000D01*
X37759293Y58233276D01*
X37378897Y57979103D01*
X37124724Y57598707D01*
X37035471Y57150000D01*
X36283000Y57150000D01*
X36283000Y59690000D01*
X37035471Y59690000D01*
X37124724Y59241293D01*
X37378897Y58860897D01*
X37759293Y58606724D01*
X38094739Y58540000D01*
X39121261Y58540000D01*
X39456707Y58606724D01*
X39837103Y58860897D01*
X40091276Y59241293D01*
X40180529Y59690000D01*
X40091276Y60138707D01*
X39837103Y60519103D01*
X39456707Y60773276D01*
X39121261Y60840000D01*
X38094739Y60840000D01*
X37759293Y60773276D01*
X37378897Y60519103D01*
X37124724Y60138707D01*
X37035471Y59690000D01*
X36283000Y59690000D01*
X36283000Y60902919D01*
X36760082Y61380000D01*
X37410172Y61380000D01*
X37759293Y61146724D01*
X38094739Y61080000D01*
X39121261Y61080000D01*
X39456707Y61146724D01*
X39805828Y61380000D01*
X42276654Y61380000D01*
X42401577Y61255077D01*
X42824251Y61080000D01*
X43281749Y61080000D01*
X43704423Y61255077D01*
X44027923Y61578577D01*
X44049223Y61630000D01*
X50189473Y61630000D01*
X51459226Y60360246D01*
X51428000Y60203261D01*
X51428000Y59176740D01*
X51494724Y58841294D01*
X51748897Y58460897D01*
X52129293Y58206724D01*
X52465351Y58139878D01*
X51821473Y57496000D01*
X45017088Y57496000D01*
X44958000Y57507753D01*
X44898912Y57496000D01*
X44898909Y57496000D01*
X44723892Y57461187D01*
X44525425Y57328575D01*
X44491953Y57278481D01*
X44180856Y56967384D01*
X44212323Y57054513D01*
X44191230Y57511525D01*
X44056919Y57835783D01*
X43887677Y57923256D01*
X43194421Y57230000D01*
X43208564Y57215857D01*
X43067143Y57074436D01*
X43053000Y57088579D01*
X42359744Y56395323D01*
X42447217Y56226081D01*
X42877513Y56070677D01*
X43303825Y56090353D01*
X39947442Y52733969D01*
X39837103Y52899103D01*
X39456707Y53153276D01*
X39121261Y53220000D01*
X38094739Y53220000D01*
X37759293Y53153276D01*
X37378897Y52899103D01*
X37124724Y52518707D01*
X37035471Y52070000D01*
X37124724Y51621293D01*
X37378897Y51240897D01*
X37759293Y50986724D01*
X38094739Y50920000D01*
X39121261Y50920000D01*
X39456707Y50986724D01*
X39837103Y51240897D01*
X39990185Y51470000D01*
X40072914Y51470000D01*
X40132000Y51458247D01*
X40191086Y51470000D01*
X40191091Y51470000D01*
X40366108Y51504813D01*
X40564575Y51637425D01*
X40598049Y51687522D01*
X45206528Y56296000D01*
X52010914Y56296000D01*
X52070000Y56284247D01*
X52129086Y56296000D01*
X52129091Y56296000D01*
X52304108Y56330813D01*
X52502575Y56463425D01*
X52536049Y56513522D01*
X54230482Y58207954D01*
X54280575Y58241425D01*
X54333887Y58321211D01*
X54384527Y58396999D01*
X54454030Y58350558D01*
X51821473Y55718000D01*
X45398085Y55718000D01*
X45338999Y55729753D01*
X45279913Y55718000D01*
X45279909Y55718000D01*
X45104892Y55683187D01*
X44906425Y55550575D01*
X44872953Y55500481D01*
X39773844Y50401371D01*
X39456707Y50613276D01*
X39121261Y50680000D01*
X38094739Y50680000D01*
X37759293Y50613276D01*
X37378897Y50359103D01*
X37124724Y49978707D01*
X37035471Y49530000D01*
X37124724Y49081293D01*
X37378897Y48700897D01*
X37759293Y48446724D01*
X38094739Y48380000D01*
X39121261Y48380000D01*
X39456707Y48446724D01*
X39837103Y48700897D01*
X40036303Y48999021D01*
X40183575Y49097425D01*
X40217049Y49147522D01*
X45587528Y54518000D01*
X52010914Y54518000D01*
X52070000Y54506247D01*
X52129086Y54518000D01*
X52129091Y54518000D01*
X52304108Y54552813D01*
X52502575Y54685425D01*
X52536049Y54735522D01*
X55245000Y57444472D01*
X55667953Y57021519D01*
X55701425Y56971425D01*
X55899892Y56838813D01*
X56074909Y56804000D01*
X56074913Y56804000D01*
X56134000Y56792247D01*
X56193086Y56804000D01*
X60392914Y56804000D01*
X60452000Y56792247D01*
X60511086Y56804000D01*
X60511091Y56804000D01*
X60686108Y56838813D01*
X60884575Y56971425D01*
X60918049Y57021521D01*
X61934047Y58037519D01*
X62033186Y58185891D01*
X62066889Y58355330D01*
X62289293Y58206724D01*
X62738000Y58117471D01*
X63186706Y58206724D01*
X63567103Y58460897D01*
X63821276Y58841293D01*
X63888000Y59176739D01*
X63888000Y60203260D01*
X63888000Y60203261D01*
X64128000Y60203261D01*
X64128000Y59176740D01*
X64194724Y58841294D01*
X64448897Y58460897D01*
X64829293Y58206724D01*
X65278000Y58117471D01*
X65726706Y58206724D01*
X66107103Y58460897D01*
X66361276Y58841293D01*
X66428000Y59176739D01*
X66428000Y60203260D01*
X66361276Y60538707D01*
X66107103Y60919103D01*
X65726707Y61173276D01*
X65278000Y61262529D01*
X64829294Y61173276D01*
X64448898Y60919103D01*
X64194724Y60538707D01*
X64128000Y60203261D01*
X63888000Y60203261D01*
X63856774Y60360246D01*
X64872528Y61376000D01*
X99573473Y61376000D01*
X102657953Y58291519D01*
X102691425Y58241425D01*
X102889892Y58108813D01*
X103064909Y58074000D01*
X103064913Y58074000D01*
X103123999Y58062247D01*
X103183086Y58074000D01*
X114240914Y58074000D01*
X114300000Y58062247D01*
X114359086Y58074000D01*
X114359091Y58074000D01*
X114534108Y58108813D01*
X114732575Y58241425D01*
X114766049Y58291521D01*
X115818528Y59344000D01*
X120947914Y59344000D01*
X121007000Y59332247D01*
X121066086Y59344000D01*
X121066091Y59344000D01*
X121241108Y59378813D01*
X121439575Y59511425D01*
X121473049Y59561522D01*
X122810481Y60898953D01*
X122860575Y60932425D01*
X122993187Y61130892D01*
X123028000Y61305909D01*
X123028000Y61305913D01*
X123039753Y61364999D01*
X123028000Y61424085D01*
X123028000Y61482815D01*
X123257103Y61635897D01*
X123511276Y62016293D01*
X123578000Y62351740D01*
X123578000Y62765000D01*
X123818000Y62765000D01*
X123818000Y62365000D01*
X123943807Y61932526D01*
X124225538Y61581116D01*
X124620302Y61364270D01*
X124690013Y61349104D01*
X124868000Y61407216D01*
X124868000Y62765000D01*
X125068000Y62765000D01*
X125068000Y61407216D01*
X125245987Y61349104D01*
X125315698Y61364270D01*
X125710462Y61581116D01*
X125992193Y61932526D01*
X126118000Y62365000D01*
X126118000Y62765000D01*
X125068000Y62765000D01*
X124868000Y62765000D01*
X123818000Y62765000D01*
X123578000Y62765000D01*
X123578000Y63378261D01*
X123511276Y63713707D01*
X123257103Y64094103D01*
X122876706Y64348276D01*
X122428000Y64437529D01*
X121979293Y64348276D01*
X121598897Y64094103D01*
X121344724Y63713706D01*
X121278000Y63378260D01*
X121278000Y62351739D01*
X121344724Y62016293D01*
X121598898Y61635897D01*
X121749644Y61535172D01*
X120758473Y60544000D01*
X115629086Y60544000D01*
X115569999Y60555753D01*
X115510913Y60544000D01*
X115510909Y60544000D01*
X115335892Y60509187D01*
X115137425Y60376575D01*
X115103953Y60326481D01*
X114051473Y59274000D01*
X103372528Y59274000D01*
X100288049Y62358478D01*
X100254575Y62408575D01*
X100056108Y62541187D01*
X99881091Y62576000D01*
X99881086Y62576000D01*
X99822000Y62587753D01*
X99762914Y62576000D01*
X64683088Y62576000D01*
X64624000Y62587753D01*
X64564912Y62576000D01*
X64564909Y62576000D01*
X64436335Y62550425D01*
X64389891Y62541187D01*
X64266515Y62458749D01*
X64191425Y62408575D01*
X64157953Y62358481D01*
X63008246Y61208774D01*
X62850649Y61240122D01*
X64256528Y62646000D01*
X73346914Y62646000D01*
X73406000Y62634247D01*
X73465086Y62646000D01*
X73465091Y62646000D01*
X73640108Y62680813D01*
X73838575Y62813425D01*
X73872048Y62863521D01*
X74416528Y63408000D01*
X100081473Y63408000D01*
X103927953Y59561519D01*
X103961425Y59511425D01*
X104159892Y59378813D01*
X104334909Y59344000D01*
X104334913Y59344000D01*
X104394000Y59332247D01*
X104453086Y59344000D01*
X113327914Y59344000D01*
X113387000Y59332247D01*
X113446086Y59344000D01*
X113446091Y59344000D01*
X113621108Y59378813D01*
X113819575Y59511425D01*
X113853049Y59561522D01*
X115190481Y60898953D01*
X115240575Y60932425D01*
X115373187Y61130892D01*
X115408000Y61305909D01*
X115408000Y61305913D01*
X115419753Y61364999D01*
X115408000Y61424085D01*
X115408000Y61482815D01*
X115637103Y61635897D01*
X115891276Y62016293D01*
X115958000Y62351740D01*
X115958000Y63378260D01*
X116198000Y63378260D01*
X116198000Y62351739D01*
X116264724Y62016293D01*
X116518898Y61635897D01*
X116899294Y61381724D01*
X117348000Y61292471D01*
X117796707Y61381724D01*
X118177103Y61635897D01*
X118431276Y62016293D01*
X118498000Y62351740D01*
X118498000Y63378260D01*
X118738000Y63378260D01*
X118738000Y62351739D01*
X118804724Y62016293D01*
X119058898Y61635897D01*
X119439294Y61381724D01*
X119888000Y61292471D01*
X120336707Y61381724D01*
X120717103Y61635897D01*
X120971276Y62016293D01*
X121038000Y62351740D01*
X121038000Y63378261D01*
X120971276Y63713707D01*
X120717103Y64094103D01*
X120336706Y64348276D01*
X119888000Y64437529D01*
X119439293Y64348276D01*
X119058897Y64094103D01*
X118804724Y63713706D01*
X118738000Y63378260D01*
X118498000Y63378260D01*
X118498000Y63378261D01*
X118431276Y63713707D01*
X118177103Y64094103D01*
X117796706Y64348276D01*
X117348000Y64437529D01*
X116899293Y64348276D01*
X116518897Y64094103D01*
X116264724Y63713706D01*
X116198000Y63378260D01*
X115958000Y63378260D01*
X115958000Y63378261D01*
X115891276Y63713707D01*
X115637103Y64094103D01*
X115256706Y64348276D01*
X114808000Y64437529D01*
X114359293Y64348276D01*
X113978897Y64094103D01*
X113724724Y63713706D01*
X113658000Y63378260D01*
X113658000Y62351739D01*
X113724724Y62016293D01*
X113978898Y61635897D01*
X114129644Y61535172D01*
X113138473Y60544000D01*
X104642528Y60544000D01*
X102421528Y62765000D01*
X108578000Y62765000D01*
X108578000Y62365000D01*
X108703807Y61932526D01*
X108985538Y61581116D01*
X109380302Y61364270D01*
X109450013Y61349104D01*
X109628000Y61407216D01*
X109628000Y62765000D01*
X109828000Y62765000D01*
X109828000Y61407216D01*
X110005987Y61349104D01*
X110075698Y61364270D01*
X110470462Y61581116D01*
X110752193Y61932526D01*
X110878000Y62365000D01*
X110878000Y62765000D01*
X109828000Y62765000D01*
X109628000Y62765000D01*
X108578000Y62765000D01*
X102421528Y62765000D01*
X101821528Y63365000D01*
X108578000Y63365000D01*
X108578000Y62965000D01*
X109628000Y62965000D01*
X109628000Y64322784D01*
X109828000Y64322784D01*
X109828000Y62965000D01*
X110878000Y62965000D01*
X110878000Y63365000D01*
X110752193Y63797474D01*
X110470462Y64148884D01*
X110075698Y64365730D01*
X110005987Y64380896D01*
X109828000Y64322784D01*
X109628000Y64322784D01*
X109450013Y64380896D01*
X109380302Y64365730D01*
X108985538Y64148884D01*
X108703807Y63797474D01*
X108578000Y63365000D01*
X101821528Y63365000D01*
X100796049Y64390478D01*
X100762575Y64440575D01*
X100564108Y64573187D01*
X100389091Y64608000D01*
X100389086Y64608000D01*
X100330000Y64619753D01*
X100270914Y64608000D01*
X74227088Y64608000D01*
X74168000Y64619753D01*
X74108912Y64608000D01*
X74108909Y64608000D01*
X73975687Y64581501D01*
X73933891Y64573187D01*
X73785519Y64474047D01*
X73735425Y64440575D01*
X73701953Y64390481D01*
X73157473Y63846000D01*
X72316437Y63846000D01*
X72321256Y63855323D01*
X71628000Y64548579D01*
X70934744Y63855323D01*
X70939563Y63846000D01*
X64067085Y63846000D01*
X64007999Y63857753D01*
X63948913Y63846000D01*
X63948909Y63846000D01*
X63773892Y63811187D01*
X63718075Y63773891D01*
X63628004Y63713707D01*
X63575425Y63678575D01*
X63541953Y63628481D01*
X61085522Y61172049D01*
X61035425Y61138575D01*
X60929431Y60979943D01*
X60545698Y61190730D01*
X60475987Y61205896D01*
X60298000Y61147784D01*
X60298000Y59790000D01*
X60318000Y59790000D01*
X60318000Y59590000D01*
X60298000Y59590000D01*
X60298000Y58232216D01*
X60398783Y58199311D01*
X60203473Y58004000D01*
X56382528Y58004000D01*
X55934231Y58452296D01*
X55947103Y58460897D01*
X56201276Y58841293D01*
X56268000Y59176739D01*
X56268000Y60203260D01*
X56201276Y60538707D01*
X56033367Y60790000D01*
X56109473Y60790000D01*
X56539226Y60360246D01*
X56508000Y60203261D01*
X56508000Y59176740D01*
X56574724Y58841294D01*
X56828897Y58460897D01*
X57209293Y58206724D01*
X57658000Y58117471D01*
X58106706Y58206724D01*
X58487103Y58460897D01*
X58741276Y58841293D01*
X58808000Y59176739D01*
X58808000Y59590000D01*
X59048000Y59590000D01*
X59048000Y59190000D01*
X59173807Y58757526D01*
X59455538Y58406116D01*
X59850302Y58189270D01*
X59920013Y58174104D01*
X60098000Y58232216D01*
X60098000Y59590000D01*
X59048000Y59590000D01*
X58808000Y59590000D01*
X58808000Y60190000D01*
X59048000Y60190000D01*
X59048000Y59790000D01*
X60098000Y59790000D01*
X60098000Y61147784D01*
X59920013Y61205896D01*
X59850302Y61190730D01*
X59455538Y60973884D01*
X59173807Y60622474D01*
X59048000Y60190000D01*
X58808000Y60190000D01*
X58808000Y60203260D01*
X58776774Y60360247D01*
X62332528Y63916000D01*
X68520914Y63916000D01*
X68580000Y63904247D01*
X68639086Y63916000D01*
X68639091Y63916000D01*
X68814108Y63950813D01*
X69012575Y64083425D01*
X69046049Y64133522D01*
X69778014Y64865487D01*
X70468677Y64865487D01*
X70489770Y64408475D01*
X70624081Y64084217D01*
X70793323Y63996744D01*
X71486579Y64690000D01*
X71769421Y64690000D01*
X72462677Y63996744D01*
X72631919Y64084217D01*
X72787323Y64514513D01*
X72766230Y64971525D01*
X72631919Y65295783D01*
X72462677Y65383256D01*
X71769421Y64690000D01*
X71486579Y64690000D01*
X70793323Y65383256D01*
X70624081Y65295783D01*
X70468677Y64865487D01*
X69778014Y64865487D01*
X70437204Y65524677D01*
X70934744Y65524677D01*
X71628000Y64831421D01*
X72321256Y65524677D01*
X72233783Y65693919D01*
X71803487Y65849323D01*
X71346475Y65828230D01*
X71022217Y65693919D01*
X70934744Y65524677D01*
X70437204Y65524677D01*
X70860528Y65948000D01*
X130914653Y65948000D01*
X130821800Y65723832D01*
X130821800Y65723832D01*
G37*
X130821800Y65723832D02*
X130821800Y65186768D01*
X130890857Y65020050D01*
X130800108Y65080687D01*
X130625091Y65115500D01*
X130625086Y65115500D01*
X130566000Y65127253D01*
X130506914Y65115500D01*
X124185128Y65115500D01*
X123702148Y65598479D01*
X123668675Y65648575D01*
X123470208Y65781187D01*
X123295191Y65816000D01*
X123295186Y65816000D01*
X123236100Y65827753D01*
X123177014Y65816000D01*
X114058988Y65816000D01*
X113999900Y65827753D01*
X113940812Y65816000D01*
X113940809Y65816000D01*
X113765792Y65781187D01*
X113628436Y65689408D01*
X113567325Y65648575D01*
X113533853Y65598481D01*
X112474522Y64539149D01*
X112474519Y64539147D01*
X112355497Y64420125D01*
X112268000Y64437529D01*
X111819293Y64348276D01*
X111438897Y64094103D01*
X111184724Y63713706D01*
X111118000Y63378260D01*
X111118000Y62351739D01*
X111184724Y62016293D01*
X111438898Y61635897D01*
X111819294Y61381724D01*
X112268000Y61292471D01*
X112716707Y61381724D01*
X113097103Y61635897D01*
X113351276Y62016293D01*
X113418000Y62351740D01*
X113418000Y63378261D01*
X113351276Y63713707D01*
X113349216Y63716789D01*
X114248428Y64616000D01*
X122987573Y64616000D01*
X123470552Y64133020D01*
X123504025Y64082925D01*
X123554119Y64049453D01*
X123684141Y63962575D01*
X123702492Y63950313D01*
X123877509Y63915500D01*
X123877512Y63915500D01*
X123936600Y63903747D01*
X123995688Y63915500D01*
X124038430Y63915500D01*
X123943807Y63797474D01*
X123818000Y63365000D01*
X123818000Y62965000D01*
X124868000Y62965000D01*
X124868000Y62985000D01*
X125068000Y62985000D01*
X125068000Y62965000D01*
X126118000Y62965000D01*
X126118000Y63365000D01*
X125992193Y63797474D01*
X125897570Y63915500D01*
X126559558Y63915500D01*
X126424724Y63713706D01*
X126358000Y63378260D01*
X126358000Y62351739D01*
X126424724Y62016293D01*
X126678898Y61635897D01*
X127059294Y61381724D01*
X127508000Y61292471D01*
X127778247Y61346226D01*
X129284472Y59840000D01*
X124968000Y59840000D01*
X124910597Y59828582D01*
X124861934Y59796066D01*
X122688868Y57623000D01*
X100924361Y57623000D01*
X98142776Y60056887D01*
X98092057Y60086093D01*
X98044000Y60094000D01*
X72705409Y60094000D01*
X72602923Y60341423D01*
X72279423Y60664923D01*
X71856749Y60840000D01*
X71399251Y60840000D01*
X70976577Y60664923D01*
X70851654Y60540000D01*
X68900412Y60540000D01*
X68647103Y60919103D01*
X68266707Y61173276D01*
X67818000Y61262529D01*
X67369294Y61173276D01*
X66988898Y60919103D01*
X66734724Y60538707D01*
X66668000Y60203261D01*
X66668000Y59176740D01*
X66734724Y58841294D01*
X66988897Y58460897D01*
X67369293Y58206724D01*
X67818000Y58117471D01*
X68266706Y58206724D01*
X68647103Y58460897D01*
X68900412Y58840000D01*
X69575918Y58840000D01*
X64925919Y54190000D01*
X45930713Y54190000D01*
X45846999Y54206652D01*
X45763285Y54190000D01*
X45515347Y54140682D01*
X45234184Y53952816D01*
X45186763Y53881845D01*
X39391221Y48086302D01*
X39121261Y48140000D01*
X38094739Y48140000D01*
X37759293Y48073276D01*
X37410172Y47840000D01*
X36547082Y47840000D01*
X36283000Y48104081D01*
X36283000Y54332013D01*
X37092104Y54332013D01*
X37107270Y54262302D01*
X37324116Y53867538D01*
X37675526Y53585807D01*
X38108000Y53460000D01*
X38508000Y53460000D01*
X38508000Y54510000D01*
X38708000Y54510000D01*
X38708000Y53460000D01*
X39108000Y53460000D01*
X39540474Y53585807D01*
X39891884Y53867538D01*
X40108730Y54262302D01*
X40123896Y54332013D01*
X40065784Y54510000D01*
X38708000Y54510000D01*
X38508000Y54510000D01*
X37150216Y54510000D01*
X37092104Y54332013D01*
X36283000Y54332013D01*
X36283000Y54887987D01*
X37092104Y54887987D01*
X37150216Y54710000D01*
X38508000Y54710000D01*
X38508000Y55760000D01*
X38708000Y55760000D01*
X38708000Y54710000D01*
X40065784Y54710000D01*
X40123896Y54887987D01*
X40108730Y54957698D01*
X39891884Y55352462D01*
X39540474Y55634193D01*
X39108000Y55760000D01*
X38708000Y55760000D01*
X38508000Y55760000D01*
X38108000Y55760000D01*
X37675526Y55634193D01*
X37324116Y55352462D01*
X37107270Y54957698D01*
X37092104Y54887987D01*
X36283000Y54887987D01*
X36283000Y57150000D01*
X37035471Y57150000D01*
X37124724Y56701293D01*
X37378897Y56320897D01*
X37759293Y56066724D01*
X38094739Y56000000D01*
X39121261Y56000000D01*
X39456707Y56066724D01*
X39837103Y56320897D01*
X40091276Y56701293D01*
X40180529Y57150000D01*
X40129710Y57405487D01*
X41893677Y57405487D01*
X41914770Y56948475D01*
X42049081Y56624217D01*
X42218323Y56536744D01*
X42911579Y57230000D01*
X42218323Y57923256D01*
X42049081Y57835783D01*
X41893677Y57405487D01*
X40129710Y57405487D01*
X40126774Y57420247D01*
X40771204Y58064677D01*
X42359744Y58064677D01*
X43053000Y57371421D01*
X43746256Y58064677D01*
X43658783Y58233919D01*
X43228487Y58389323D01*
X42771475Y58368230D01*
X42447217Y58233919D01*
X42359744Y58064677D01*
X40771204Y58064677D01*
X42431528Y59725000D01*
X47854473Y59725000D01*
X48271953Y59307519D01*
X48305425Y59257425D01*
X48355519Y59223953D01*
X48376883Y59209678D01*
X48503892Y59124813D01*
X48678909Y59090000D01*
X48678912Y59090000D01*
X48738000Y59078247D01*
X48797088Y59090000D01*
X48905254Y59090000D01*
X48954724Y58841294D01*
X49208897Y58460897D01*
X49589293Y58206724D01*
X50038000Y58117471D01*
X50486706Y58206724D01*
X50867103Y58460897D01*
X51121276Y58841293D01*
X51188000Y59176739D01*
X51188000Y60203260D01*
X51121276Y60538707D01*
X50867103Y60919103D01*
X50486707Y61173276D01*
X50038000Y61262529D01*
X49589294Y61173276D01*
X49208898Y60919103D01*
X48954724Y60538707D01*
X48918738Y60357790D01*
X48569048Y60707479D01*
X48535575Y60757575D01*
X48337108Y60890187D01*
X48162091Y60925000D01*
X48162086Y60925000D01*
X48103000Y60936753D01*
X48043914Y60925000D01*
X42242086Y60925000D01*
X42182999Y60936753D01*
X42123913Y60925000D01*
X42123909Y60925000D01*
X41948892Y60890187D01*
X41750425Y60757575D01*
X41716953Y60707481D01*
X39278247Y58268774D01*
X39121261Y58300000D01*
X38094739Y58300000D01*
X37759293Y58233276D01*
X37378897Y57979103D01*
X37124724Y57598707D01*
X37035471Y57150000D01*
X36283000Y57150000D01*
X36283000Y59690000D01*
X37035471Y59690000D01*
X37124724Y59241293D01*
X37378897Y58860897D01*
X37759293Y58606724D01*
X38094739Y58540000D01*
X39121261Y58540000D01*
X39456707Y58606724D01*
X39837103Y58860897D01*
X40091276Y59241293D01*
X40180529Y59690000D01*
X40091276Y60138707D01*
X39837103Y60519103D01*
X39456707Y60773276D01*
X39121261Y60840000D01*
X38094739Y60840000D01*
X37759293Y60773276D01*
X37378897Y60519103D01*
X37124724Y60138707D01*
X37035471Y59690000D01*
X36283000Y59690000D01*
X36283000Y60902919D01*
X36760082Y61380000D01*
X37410172Y61380000D01*
X37759293Y61146724D01*
X38094739Y61080000D01*
X39121261Y61080000D01*
X39456707Y61146724D01*
X39805828Y61380000D01*
X42276654Y61380000D01*
X42401577Y61255077D01*
X42824251Y61080000D01*
X43281749Y61080000D01*
X43704423Y61255077D01*
X44027923Y61578577D01*
X44049223Y61630000D01*
X50189473Y61630000D01*
X51459226Y60360246D01*
X51428000Y60203261D01*
X51428000Y59176740D01*
X51494724Y58841294D01*
X51748897Y58460897D01*
X52129293Y58206724D01*
X52465351Y58139878D01*
X51821473Y57496000D01*
X45017088Y57496000D01*
X44958000Y57507753D01*
X44898912Y57496000D01*
X44898909Y57496000D01*
X44723892Y57461187D01*
X44525425Y57328575D01*
X44491953Y57278481D01*
X44180856Y56967384D01*
X44212323Y57054513D01*
X44191230Y57511525D01*
X44056919Y57835783D01*
X43887677Y57923256D01*
X43194421Y57230000D01*
X43208564Y57215857D01*
X43067143Y57074436D01*
X43053000Y57088579D01*
X42359744Y56395323D01*
X42447217Y56226081D01*
X42877513Y56070677D01*
X43303825Y56090353D01*
X39947442Y52733969D01*
X39837103Y52899103D01*
X39456707Y53153276D01*
X39121261Y53220000D01*
X38094739Y53220000D01*
X37759293Y53153276D01*
X37378897Y52899103D01*
X37124724Y52518707D01*
X37035471Y52070000D01*
X37124724Y51621293D01*
X37378897Y51240897D01*
X37759293Y50986724D01*
X38094739Y50920000D01*
X39121261Y50920000D01*
X39456707Y50986724D01*
X39837103Y51240897D01*
X39990185Y51470000D01*
X40072914Y51470000D01*
X40132000Y51458247D01*
X40191086Y51470000D01*
X40191091Y51470000D01*
X40366108Y51504813D01*
X40564575Y51637425D01*
X40598049Y51687522D01*
X45206528Y56296000D01*
X52010914Y56296000D01*
X52070000Y56284247D01*
X52129086Y56296000D01*
X52129091Y56296000D01*
X52304108Y56330813D01*
X52502575Y56463425D01*
X52536049Y56513522D01*
X54230482Y58207954D01*
X54280575Y58241425D01*
X54333887Y58321211D01*
X54384527Y58396999D01*
X54454030Y58350558D01*
X51821473Y55718000D01*
X45398085Y55718000D01*
X45338999Y55729753D01*
X45279913Y55718000D01*
X45279909Y55718000D01*
X45104892Y55683187D01*
X44906425Y55550575D01*
X44872953Y55500481D01*
X39773844Y50401371D01*
X39456707Y50613276D01*
X39121261Y50680000D01*
X38094739Y50680000D01*
X37759293Y50613276D01*
X37378897Y50359103D01*
X37124724Y49978707D01*
X37035471Y49530000D01*
X37124724Y49081293D01*
X37378897Y48700897D01*
X37759293Y48446724D01*
X38094739Y48380000D01*
X39121261Y48380000D01*
X39456707Y48446724D01*
X39837103Y48700897D01*
X40036303Y48999021D01*
X40183575Y49097425D01*
X40217049Y49147522D01*
X45587528Y54518000D01*
X52010914Y54518000D01*
X52070000Y54506247D01*
X52129086Y54518000D01*
X52129091Y54518000D01*
X52304108Y54552813D01*
X52502575Y54685425D01*
X52536049Y54735522D01*
X55245000Y57444472D01*
X55667953Y57021519D01*
X55701425Y56971425D01*
X55899892Y56838813D01*
X56074909Y56804000D01*
X56074913Y56804000D01*
X56134000Y56792247D01*
X56193086Y56804000D01*
X60392914Y56804000D01*
X60452000Y56792247D01*
X60511086Y56804000D01*
X60511091Y56804000D01*
X60686108Y56838813D01*
X60884575Y56971425D01*
X60918049Y57021521D01*
X61934047Y58037519D01*
X62033186Y58185891D01*
X62066889Y58355330D01*
X62289293Y58206724D01*
X62738000Y58117471D01*
X63186706Y58206724D01*
X63567103Y58460897D01*
X63821276Y58841293D01*
X63888000Y59176739D01*
X63888000Y60203260D01*
X63888000Y60203261D01*
X64128000Y60203261D01*
X64128000Y59176740D01*
X64194724Y58841294D01*
X64448897Y58460897D01*
X64829293Y58206724D01*
X65278000Y58117471D01*
X65726706Y58206724D01*
X66107103Y58460897D01*
X66361276Y58841293D01*
X66428000Y59176739D01*
X66428000Y60203260D01*
X66361276Y60538707D01*
X66107103Y60919103D01*
X65726707Y61173276D01*
X65278000Y61262529D01*
X64829294Y61173276D01*
X64448898Y60919103D01*
X64194724Y60538707D01*
X64128000Y60203261D01*
X63888000Y60203261D01*
X63856774Y60360246D01*
X64872528Y61376000D01*
X99573473Y61376000D01*
X102657953Y58291519D01*
X102691425Y58241425D01*
X102889892Y58108813D01*
X103064909Y58074000D01*
X103064913Y58074000D01*
X103123999Y58062247D01*
X103183086Y58074000D01*
X114240914Y58074000D01*
X114300000Y58062247D01*
X114359086Y58074000D01*
X114359091Y58074000D01*
X114534108Y58108813D01*
X114732575Y58241425D01*
X114766049Y58291521D01*
X115818528Y59344000D01*
X120947914Y59344000D01*
X121007000Y59332247D01*
X121066086Y59344000D01*
X121066091Y59344000D01*
X121241108Y59378813D01*
X121439575Y59511425D01*
X121473049Y59561522D01*
X122810481Y60898953D01*
X122860575Y60932425D01*
X122993187Y61130892D01*
X123028000Y61305909D01*
X123028000Y61305913D01*
X123039753Y61364999D01*
X123028000Y61424085D01*
X123028000Y61482815D01*
X123257103Y61635897D01*
X123511276Y62016293D01*
X123578000Y62351740D01*
X123578000Y62765000D01*
X123818000Y62765000D01*
X123818000Y62365000D01*
X123943807Y61932526D01*
X124225538Y61581116D01*
X124620302Y61364270D01*
X124690013Y61349104D01*
X124868000Y61407216D01*
X124868000Y62765000D01*
X125068000Y62765000D01*
X125068000Y61407216D01*
X125245987Y61349104D01*
X125315698Y61364270D01*
X125710462Y61581116D01*
X125992193Y61932526D01*
X126118000Y62365000D01*
X126118000Y62765000D01*
X125068000Y62765000D01*
X124868000Y62765000D01*
X123818000Y62765000D01*
X123578000Y62765000D01*
X123578000Y63378261D01*
X123511276Y63713707D01*
X123257103Y64094103D01*
X122876706Y64348276D01*
X122428000Y64437529D01*
X121979293Y64348276D01*
X121598897Y64094103D01*
X121344724Y63713706D01*
X121278000Y63378260D01*
X121278000Y62351739D01*
X121344724Y62016293D01*
X121598898Y61635897D01*
X121749644Y61535172D01*
X120758473Y60544000D01*
X115629086Y60544000D01*
X115569999Y60555753D01*
X115510913Y60544000D01*
X115510909Y60544000D01*
X115335892Y60509187D01*
X115137425Y60376575D01*
X115103953Y60326481D01*
X114051473Y59274000D01*
X103372528Y59274000D01*
X100288049Y62358478D01*
X100254575Y62408575D01*
X100056108Y62541187D01*
X99881091Y62576000D01*
X99881086Y62576000D01*
X99822000Y62587753D01*
X99762914Y62576000D01*
X64683088Y62576000D01*
X64624000Y62587753D01*
X64564912Y62576000D01*
X64564909Y62576000D01*
X64436335Y62550425D01*
X64389891Y62541187D01*
X64266515Y62458749D01*
X64191425Y62408575D01*
X64157953Y62358481D01*
X63008246Y61208774D01*
X62850649Y61240122D01*
X64256528Y62646000D01*
X73346914Y62646000D01*
X73406000Y62634247D01*
X73465086Y62646000D01*
X73465091Y62646000D01*
X73640108Y62680813D01*
X73838575Y62813425D01*
X73872048Y62863521D01*
X74416528Y63408000D01*
X100081473Y63408000D01*
X103927953Y59561519D01*
X103961425Y59511425D01*
X104159892Y59378813D01*
X104334909Y59344000D01*
X104334913Y59344000D01*
X104394000Y59332247D01*
X104453086Y59344000D01*
X113327914Y59344000D01*
X113387000Y59332247D01*
X113446086Y59344000D01*
X113446091Y59344000D01*
X113621108Y59378813D01*
X113819575Y59511425D01*
X113853049Y59561522D01*
X115190481Y60898953D01*
X115240575Y60932425D01*
X115373187Y61130892D01*
X115408000Y61305909D01*
X115408000Y61305913D01*
X115419753Y61364999D01*
X115408000Y61424085D01*
X115408000Y61482815D01*
X115637103Y61635897D01*
X115891276Y62016293D01*
X115958000Y62351740D01*
X115958000Y63378260D01*
X116198000Y63378260D01*
X116198000Y62351739D01*
X116264724Y62016293D01*
X116518898Y61635897D01*
X116899294Y61381724D01*
X117348000Y61292471D01*
X117796707Y61381724D01*
X118177103Y61635897D01*
X118431276Y62016293D01*
X118498000Y62351740D01*
X118498000Y63378260D01*
X118738000Y63378260D01*
X118738000Y62351739D01*
X118804724Y62016293D01*
X119058898Y61635897D01*
X119439294Y61381724D01*
X119888000Y61292471D01*
X120336707Y61381724D01*
X120717103Y61635897D01*
X120971276Y62016293D01*
X121038000Y62351740D01*
X121038000Y63378261D01*
X120971276Y63713707D01*
X120717103Y64094103D01*
X120336706Y64348276D01*
X119888000Y64437529D01*
X119439293Y64348276D01*
X119058897Y64094103D01*
X118804724Y63713706D01*
X118738000Y63378260D01*
X118498000Y63378260D01*
X118498000Y63378261D01*
X118431276Y63713707D01*
X118177103Y64094103D01*
X117796706Y64348276D01*
X117348000Y64437529D01*
X116899293Y64348276D01*
X116518897Y64094103D01*
X116264724Y63713706D01*
X116198000Y63378260D01*
X115958000Y63378260D01*
X115958000Y63378261D01*
X115891276Y63713707D01*
X115637103Y64094103D01*
X115256706Y64348276D01*
X114808000Y64437529D01*
X114359293Y64348276D01*
X113978897Y64094103D01*
X113724724Y63713706D01*
X113658000Y63378260D01*
X113658000Y62351739D01*
X113724724Y62016293D01*
X113978898Y61635897D01*
X114129644Y61535172D01*
X113138473Y60544000D01*
X104642528Y60544000D01*
X102421528Y62765000D01*
X108578000Y62765000D01*
X108578000Y62365000D01*
X108703807Y61932526D01*
X108985538Y61581116D01*
X109380302Y61364270D01*
X109450013Y61349104D01*
X109628000Y61407216D01*
X109628000Y62765000D01*
X109828000Y62765000D01*
X109828000Y61407216D01*
X110005987Y61349104D01*
X110075698Y61364270D01*
X110470462Y61581116D01*
X110752193Y61932526D01*
X110878000Y62365000D01*
X110878000Y62765000D01*
X109828000Y62765000D01*
X109628000Y62765000D01*
X108578000Y62765000D01*
X102421528Y62765000D01*
X101821528Y63365000D01*
X108578000Y63365000D01*
X108578000Y62965000D01*
X109628000Y62965000D01*
X109628000Y64322784D01*
X109828000Y64322784D01*
X109828000Y62965000D01*
X110878000Y62965000D01*
X110878000Y63365000D01*
X110752193Y63797474D01*
X110470462Y64148884D01*
X110075698Y64365730D01*
X110005987Y64380896D01*
X109828000Y64322784D01*
X109628000Y64322784D01*
X109450013Y64380896D01*
X109380302Y64365730D01*
X108985538Y64148884D01*
X108703807Y63797474D01*
X108578000Y63365000D01*
X101821528Y63365000D01*
X100796049Y64390478D01*
X100762575Y64440575D01*
X100564108Y64573187D01*
X100389091Y64608000D01*
X100389086Y64608000D01*
X100330000Y64619753D01*
X100270914Y64608000D01*
X74227088Y64608000D01*
X74168000Y64619753D01*
X74108912Y64608000D01*
X74108909Y64608000D01*
X73975687Y64581501D01*
X73933891Y64573187D01*
X73785519Y64474047D01*
X73735425Y64440575D01*
X73701953Y64390481D01*
X73157473Y63846000D01*
X72316437Y63846000D01*
X72321256Y63855323D01*
X71628000Y64548579D01*
X70934744Y63855323D01*
X70939563Y63846000D01*
X64067085Y63846000D01*
X64007999Y63857753D01*
X63948913Y63846000D01*
X63948909Y63846000D01*
X63773892Y63811187D01*
X63718075Y63773891D01*
X63628004Y63713707D01*
X63575425Y63678575D01*
X63541953Y63628481D01*
X61085522Y61172049D01*
X61035425Y61138575D01*
X60929431Y60979943D01*
X60545698Y61190730D01*
X60475987Y61205896D01*
X60298000Y61147784D01*
X60298000Y59790000D01*
X60318000Y59790000D01*
X60318000Y59590000D01*
X60298000Y59590000D01*
X60298000Y58232216D01*
X60398783Y58199311D01*
X60203473Y58004000D01*
X56382528Y58004000D01*
X55934231Y58452296D01*
X55947103Y58460897D01*
X56201276Y58841293D01*
X56268000Y59176739D01*
X56268000Y60203260D01*
X56201276Y60538707D01*
X56033367Y60790000D01*
X56109473Y60790000D01*
X56539226Y60360246D01*
X56508000Y60203261D01*
X56508000Y59176740D01*
X56574724Y58841294D01*
X56828897Y58460897D01*
X57209293Y58206724D01*
X57658000Y58117471D01*
X58106706Y58206724D01*
X58487103Y58460897D01*
X58741276Y58841293D01*
X58808000Y59176739D01*
X58808000Y59590000D01*
X59048000Y59590000D01*
X59048000Y59190000D01*
X59173807Y58757526D01*
X59455538Y58406116D01*
X59850302Y58189270D01*
X59920013Y58174104D01*
X60098000Y58232216D01*
X60098000Y59590000D01*
X59048000Y59590000D01*
X58808000Y59590000D01*
X58808000Y60190000D01*
X59048000Y60190000D01*
X59048000Y59790000D01*
X60098000Y59790000D01*
X60098000Y61147784D01*
X59920013Y61205896D01*
X59850302Y61190730D01*
X59455538Y60973884D01*
X59173807Y60622474D01*
X59048000Y60190000D01*
X58808000Y60190000D01*
X58808000Y60203260D01*
X58776774Y60360247D01*
X62332528Y63916000D01*
X68520914Y63916000D01*
X68580000Y63904247D01*
X68639086Y63916000D01*
X68639091Y63916000D01*
X68814108Y63950813D01*
X69012575Y64083425D01*
X69046049Y64133522D01*
X69778014Y64865487D01*
X70468677Y64865487D01*
X70489770Y64408475D01*
X70624081Y64084217D01*
X70793323Y63996744D01*
X71486579Y64690000D01*
X71769421Y64690000D01*
X72462677Y63996744D01*
X72631919Y64084217D01*
X72787323Y64514513D01*
X72766230Y64971525D01*
X72631919Y65295783D01*
X72462677Y65383256D01*
X71769421Y64690000D01*
X71486579Y64690000D01*
X70793323Y65383256D01*
X70624081Y65295783D01*
X70468677Y64865487D01*
X69778014Y64865487D01*
X70437204Y65524677D01*
X70934744Y65524677D01*
X71628000Y64831421D01*
X72321256Y65524677D01*
X72233783Y65693919D01*
X71803487Y65849323D01*
X71346475Y65828230D01*
X71022217Y65693919D01*
X70934744Y65524677D01*
X70437204Y65524677D01*
X70860528Y65948000D01*
X130914653Y65948000D01*
X130821800Y65723832D01*
G36*
X135996020Y67807747D02*
X135945926Y67774275D01*
X135912454Y67724181D01*
X135912453Y67724180D01*
X135813314Y67575808D01*
X135766747Y67341700D01*
X135778501Y67282609D01*
X135778500Y64213441D01*
X135576706Y64348276D01*
X135128000Y64437529D01*
X134857754Y64383774D01*
X134222300Y65019227D01*
X134222300Y65997014D01*
X134234053Y66056101D01*
X134222300Y66115187D01*
X134222300Y66115191D01*
X134187487Y66290208D01*
X134054875Y66488675D01*
X134004782Y66522146D01*
X133238649Y67288279D01*
X133205175Y67338375D01*
X133006708Y67470987D01*
X132831691Y67505800D01*
X132831686Y67505800D01*
X132772600Y67517553D01*
X132713514Y67505800D01*
X131630088Y67505800D01*
X131571000Y67517553D01*
X131511912Y67505800D01*
X131511909Y67505800D01*
X131336892Y67470987D01*
X131138425Y67338375D01*
X131104951Y67288278D01*
X130964673Y67148000D01*
X70671086Y67148000D01*
X70612000Y67159753D01*
X70552913Y67148000D01*
X70552909Y67148000D01*
X70377892Y67113187D01*
X70179425Y66980575D01*
X70145953Y66930481D01*
X68331473Y65116000D01*
X62143086Y65116000D01*
X62083999Y65127753D01*
X62024913Y65116000D01*
X62024909Y65116000D01*
X61849892Y65081187D01*
X61651425Y64948575D01*
X61617953Y64898481D01*
X57928247Y61208774D01*
X57658000Y61262529D01*
X57387754Y61208774D01*
X56824049Y61772479D01*
X56790575Y61822575D01*
X56592108Y61955187D01*
X56417091Y61990000D01*
X56417086Y61990000D01*
X56358000Y62001753D01*
X56298914Y61990000D01*
X54591086Y61990000D01*
X54531999Y62001753D01*
X54472913Y61990000D01*
X54472909Y61990000D01*
X54297892Y61955187D01*
X54285638Y61946999D01*
X54160554Y61863420D01*
X54099425Y61822575D01*
X54065953Y61772481D01*
X53465519Y61172046D01*
X53415426Y61138575D01*
X53311473Y60983001D01*
X53026707Y61173276D01*
X52578000Y61262529D01*
X52307754Y61208774D01*
X51182527Y62334000D01*
X56642000Y62334000D01*
X56699403Y62345418D01*
X56742637Y62372770D01*
X60535778Y65804659D01*
X60646706Y65826724D01*
X61027103Y66080897D01*
X61281276Y66461293D01*
X61285609Y66483078D01*
X61594755Y66762781D01*
X61654724Y66461294D01*
X61908897Y66080897D01*
X62289293Y65826724D01*
X62738000Y65737471D01*
X63186706Y65826724D01*
X63567103Y66080897D01*
X63821276Y66461293D01*
X63888000Y66796739D01*
X63888000Y67160000D01*
X64128000Y67160000D01*
X64128000Y66796740D01*
X64194724Y66461294D01*
X64448897Y66080897D01*
X64829293Y65826724D01*
X65278000Y65737471D01*
X65726706Y65826724D01*
X66107103Y66080897D01*
X66361276Y66461293D01*
X66428000Y66796739D01*
X66428000Y67160000D01*
X66661144Y67160000D01*
X66661144Y66110000D01*
X66688308Y65973437D01*
X66765665Y65857665D01*
X66881437Y65780308D01*
X67018000Y65753144D01*
X68618000Y65753144D01*
X68754563Y65780308D01*
X68870335Y65857665D01*
X68947692Y65973437D01*
X68974856Y66110000D01*
X68974856Y67271852D01*
X71142015Y67922000D01*
X136110273Y67922000D01*
X135996020Y67807747D01*
X135996020Y67807747D01*
G37*
X135996020Y67807747D02*
X135945926Y67774275D01*
X135912454Y67724181D01*
X135912453Y67724180D01*
X135813314Y67575808D01*
X135766747Y67341700D01*
X135778501Y67282609D01*
X135778500Y64213441D01*
X135576706Y64348276D01*
X135128000Y64437529D01*
X134857754Y64383774D01*
X134222300Y65019227D01*
X134222300Y65997014D01*
X134234053Y66056101D01*
X134222300Y66115187D01*
X134222300Y66115191D01*
X134187487Y66290208D01*
X134054875Y66488675D01*
X134004782Y66522146D01*
X133238649Y67288279D01*
X133205175Y67338375D01*
X133006708Y67470987D01*
X132831691Y67505800D01*
X132831686Y67505800D01*
X132772600Y67517553D01*
X132713514Y67505800D01*
X131630088Y67505800D01*
X131571000Y67517553D01*
X131511912Y67505800D01*
X131511909Y67505800D01*
X131336892Y67470987D01*
X131138425Y67338375D01*
X131104951Y67288278D01*
X130964673Y67148000D01*
X70671086Y67148000D01*
X70612000Y67159753D01*
X70552913Y67148000D01*
X70552909Y67148000D01*
X70377892Y67113187D01*
X70179425Y66980575D01*
X70145953Y66930481D01*
X68331473Y65116000D01*
X62143086Y65116000D01*
X62083999Y65127753D01*
X62024913Y65116000D01*
X62024909Y65116000D01*
X61849892Y65081187D01*
X61651425Y64948575D01*
X61617953Y64898481D01*
X57928247Y61208774D01*
X57658000Y61262529D01*
X57387754Y61208774D01*
X56824049Y61772479D01*
X56790575Y61822575D01*
X56592108Y61955187D01*
X56417091Y61990000D01*
X56417086Y61990000D01*
X56358000Y62001753D01*
X56298914Y61990000D01*
X54591086Y61990000D01*
X54531999Y62001753D01*
X54472913Y61990000D01*
X54472909Y61990000D01*
X54297892Y61955187D01*
X54285638Y61946999D01*
X54160554Y61863420D01*
X54099425Y61822575D01*
X54065953Y61772481D01*
X53465519Y61172046D01*
X53415426Y61138575D01*
X53311473Y60983001D01*
X53026707Y61173276D01*
X52578000Y61262529D01*
X52307754Y61208774D01*
X51182527Y62334000D01*
X56642000Y62334000D01*
X56699403Y62345418D01*
X56742637Y62372770D01*
X60535778Y65804659D01*
X60646706Y65826724D01*
X61027103Y66080897D01*
X61281276Y66461293D01*
X61285609Y66483078D01*
X61594755Y66762781D01*
X61654724Y66461294D01*
X61908897Y66080897D01*
X62289293Y65826724D01*
X62738000Y65737471D01*
X63186706Y65826724D01*
X63567103Y66080897D01*
X63821276Y66461293D01*
X63888000Y66796739D01*
X63888000Y67160000D01*
X64128000Y67160000D01*
X64128000Y66796740D01*
X64194724Y66461294D01*
X64448897Y66080897D01*
X64829293Y65826724D01*
X65278000Y65737471D01*
X65726706Y65826724D01*
X66107103Y66080897D01*
X66361276Y66461293D01*
X66428000Y66796739D01*
X66428000Y67160000D01*
X66661144Y67160000D01*
X66661144Y66110000D01*
X66688308Y65973437D01*
X66765665Y65857665D01*
X66881437Y65780308D01*
X67018000Y65753144D01*
X68618000Y65753144D01*
X68754563Y65780308D01*
X68870335Y65857665D01*
X68947692Y65973437D01*
X68974856Y66110000D01*
X68974856Y67271852D01*
X71142015Y67922000D01*
X136110273Y67922000D01*
X135996020Y67807747D01*
G04 #@! TD*
M02*
