G04 #@! TF.GenerationSoftware,KiCad,Pcbnew,(5.0.2)-1*
G04 #@! TF.CreationDate,2019-05-10T14:41:29+02:00*
G04 #@! TF.ProjectId,201904_Esp32ReprapController_Autorouted,32303139-3034-45f4-9573-703332526570,rev?*
G04 #@! TF.SameCoordinates,PX18392c0PY791ddc0*
G04 #@! TF.FileFunction,Copper,L2,Bot*
G04 #@! TF.FilePolarity,Positive*
%FSLAX46Y46*%
G04 Gerber Fmt 4.6, Leading zero omitted, Abs format (unit mm)*
G04 Created by KiCad (PCBNEW (5.0.2)-1) date 10.05.2019 14:41:29*
%MOMM*%
%LPD*%
G01*
G04 APERTURE LIST*
G04 #@! TA.AperFunction,ComponentPad*
%ADD10C,2.400000*%
G04 #@! TD*
G04 #@! TA.AperFunction,ComponentPad*
%ADD11C,4.000000*%
G04 #@! TD*
G04 #@! TA.AperFunction,ComponentPad*
%ADD12R,2.600000X2.600000*%
G04 #@! TD*
G04 #@! TA.AperFunction,ComponentPad*
%ADD13C,2.600000*%
G04 #@! TD*
G04 #@! TA.AperFunction,ComponentPad*
%ADD14R,1.600000X2.400000*%
G04 #@! TD*
G04 #@! TA.AperFunction,ComponentPad*
%ADD15O,1.600000X2.400000*%
G04 #@! TD*
G04 #@! TA.AperFunction,ComponentPad*
%ADD16O,1.600000X1.600000*%
G04 #@! TD*
G04 #@! TA.AperFunction,ComponentPad*
%ADD17C,1.600000*%
G04 #@! TD*
G04 #@! TA.AperFunction,ComponentPad*
%ADD18R,1.600000X1.600000*%
G04 #@! TD*
G04 #@! TA.AperFunction,ComponentPad*
%ADD19R,2.400000X1.600000*%
G04 #@! TD*
G04 #@! TA.AperFunction,ComponentPad*
%ADD20O,2.400000X1.600000*%
G04 #@! TD*
G04 #@! TA.AperFunction,ViaPad*
%ADD21C,0.100000*%
G04 #@! TD*
G04 #@! TA.AperFunction,Conductor*
%ADD22C,1.000000*%
G04 #@! TD*
G04 #@! TA.AperFunction,Conductor*
%ADD23C,2.000000*%
G04 #@! TD*
G04 #@! TA.AperFunction,Conductor*
%ADD24C,3.000000*%
G04 #@! TD*
G04 #@! TA.AperFunction,Conductor*
%ADD25C,0.500000*%
G04 #@! TD*
G04 #@! TA.AperFunction,Conductor*
%ADD26C,0.300000*%
G04 #@! TD*
G04 APERTURE END LIST*
D10*
G04 #@! TO.P,F2,*
G04 #@! TO.N,*
X11557000Y15240000D03*
D11*
G04 #@! TO.P,F2,2*
G04 #@! TO.N,/PWR_IN*
X6857000Y15240000D03*
G04 #@! TO.P,F2,1*
G04 #@! TO.N,+24V2*
X16257000Y15240000D03*
G04 #@! TD*
D12*
G04 #@! TO.P,J11,1*
G04 #@! TO.N,+24V2*
X26162000Y8255000D03*
D13*
G04 #@! TO.P,J11,2*
G04 #@! TO.N,Net-(J11-Pad2)*
X31162000Y8255000D03*
G04 #@! TD*
D14*
G04 #@! TO.P,J12,1*
G04 #@! TO.N,+24V*
X59436000Y24765000D03*
D15*
G04 #@! TO.P,J12,2*
G04 #@! TO.N,Net-(J12-Pad2)*
X56896000Y24765000D03*
G04 #@! TD*
D11*
G04 #@! TO.P,F1,1*
G04 #@! TO.N,+24V*
X16257000Y6350000D03*
G04 #@! TO.P,F1,2*
G04 #@! TO.N,/PWR_IN*
X6857000Y6350000D03*
D10*
G04 #@! TO.P,F1,*
G04 #@! TO.N,*
X11557000Y6350000D03*
G04 #@! TD*
D13*
G04 #@! TO.P,J1,2*
G04 #@! TO.N,/PWR_IN*
X7112000Y23575000D03*
D12*
G04 #@! TO.P,J1,1*
G04 #@! TO.N,GND*
X7112000Y28575000D03*
G04 #@! TD*
D15*
G04 #@! TO.P,J13,2*
G04 #@! TO.N,Net-(J12-Pad2)*
X56896000Y30353000D03*
D14*
G04 #@! TO.P,J13,1*
G04 #@! TO.N,+24V*
X59436000Y30353000D03*
G04 #@! TD*
D13*
G04 #@! TO.P,J10,2*
G04 #@! TO.N,Net-(J10-Pad2)*
X43862000Y8255000D03*
D12*
G04 #@! TO.P,J10,1*
G04 #@! TO.N,+24V*
X38862000Y8255000D03*
G04 #@! TD*
G04 #@! TO.P,J14,1*
G04 #@! TO.N,+24V*
X51562000Y8255000D03*
D13*
G04 #@! TO.P,J14,2*
G04 #@! TO.N,GND*
X56562000Y8255000D03*
G04 #@! TD*
D16*
G04 #@! TO.P,R10,2*
G04 #@! TO.N,/NOZZLE*
X28702000Y24130000D03*
D17*
G04 #@! TO.P,R10,1*
G04 #@! TO.N,Net-(Q1-Pad1)*
X38862000Y24130000D03*
G04 #@! TD*
D15*
G04 #@! TO.P,Q3,3*
G04 #@! TO.N,GND*
X56642000Y17145000D03*
G04 #@! TO.P,Q3,2*
G04 #@! TO.N,Net-(J12-Pad2)*
X54102000Y17145000D03*
D14*
G04 #@! TO.P,Q3,1*
G04 #@! TO.N,Net-(Q3-Pad1)*
X51562000Y17145000D03*
G04 #@! TD*
D17*
G04 #@! TO.P,R15,1*
G04 #@! TO.N,GND*
X52197000Y29210000D03*
D16*
G04 #@! TO.P,R15,2*
G04 #@! TO.N,/FAN*
X42037000Y29210000D03*
G04 #@! TD*
G04 #@! TO.P,R11,2*
G04 #@! TO.N,/NOZZLE*
X28702000Y29210000D03*
D17*
G04 #@! TO.P,R11,1*
G04 #@! TO.N,GND*
X38862000Y29210000D03*
G04 #@! TD*
D15*
G04 #@! TO.P,Q1,3*
G04 #@! TO.N,GND*
X38862000Y19050000D03*
G04 #@! TO.P,Q1,2*
G04 #@! TO.N,Net-(J10-Pad2)*
X41402000Y19050000D03*
D14*
G04 #@! TO.P,Q1,1*
G04 #@! TO.N,Net-(Q1-Pad1)*
X43942000Y19050000D03*
G04 #@! TD*
D16*
G04 #@! TO.P,R12,2*
G04 #@! TO.N,/BED*
X15367000Y24130000D03*
D17*
G04 #@! TO.P,R12,1*
G04 #@! TO.N,Net-(Q2-Pad1)*
X25527000Y24130000D03*
G04 #@! TD*
G04 #@! TO.P,R13,1*
G04 #@! TO.N,GND*
X25527000Y29210000D03*
D16*
G04 #@! TO.P,R13,2*
G04 #@! TO.N,/BED*
X15367000Y29210000D03*
G04 #@! TD*
D17*
G04 #@! TO.P,R14,1*
G04 #@! TO.N,Net-(Q3-Pad1)*
X52197000Y24130000D03*
D16*
G04 #@! TO.P,R14,2*
G04 #@! TO.N,/FAN*
X42037000Y24130000D03*
G04 #@! TD*
D15*
G04 #@! TO.P,Q2,3*
G04 #@! TO.N,GND*
X26162000Y19050000D03*
G04 #@! TO.P,Q2,2*
G04 #@! TO.N,Net-(J11-Pad2)*
X28702000Y19050000D03*
D14*
G04 #@! TO.P,Q2,1*
G04 #@! TO.N,Net-(Q2-Pad1)*
X31242000Y19050000D03*
G04 #@! TD*
D17*
G04 #@! TO.P,C110,2*
G04 #@! TO.N,GND*
X5080000Y62317000D03*
D18*
G04 #@! TO.P,C110,1*
G04 #@! TO.N,+24V*
X5080000Y59817000D03*
G04 #@! TD*
G04 #@! TO.P,C120,1*
G04 #@! TO.N,+24V*
X30353000Y60198000D03*
D17*
G04 #@! TO.P,C120,2*
G04 #@! TO.N,GND*
X30353000Y62698000D03*
G04 #@! TD*
D18*
G04 #@! TO.P,D1,1*
G04 #@! TO.N,+24V*
X21082000Y45085000D03*
D16*
G04 #@! TO.P,D1,2*
G04 #@! TO.N,+5V*
X31242000Y45085000D03*
G04 #@! TD*
D19*
G04 #@! TO.P,A2,1*
G04 #@! TO.N,GND*
X36068000Y77597000D03*
D20*
G04 #@! TO.P,A2,9*
G04 #@! TO.N,/Q133*
X48768000Y59817000D03*
G04 #@! TO.P,A2,2*
G04 #@! TO.N,VCC*
X36068000Y75057000D03*
G04 #@! TO.P,A2,10*
X48768000Y62357000D03*
G04 #@! TO.P,A2,3*
G04 #@! TO.N,Net-(A2-Pad3)*
X36068000Y72517000D03*
G04 #@! TO.P,A2,11*
G04 #@! TO.N,VCC*
X48768000Y64897000D03*
G04 #@! TO.P,A2,4*
G04 #@! TO.N,Net-(A2-Pad4)*
X36068000Y69977000D03*
G04 #@! TO.P,A2,12*
G04 #@! TO.N,Net-(A2-Pad12)*
X48768000Y67437000D03*
G04 #@! TO.P,A2,5*
G04 #@! TO.N,Net-(A2-Pad5)*
X36068000Y67437000D03*
G04 #@! TO.P,A2,13*
G04 #@! TO.N,Net-(A2-Pad13)*
X48768000Y69977000D03*
G04 #@! TO.P,A2,6*
G04 #@! TO.N,Net-(A2-Pad6)*
X36068000Y64897000D03*
G04 #@! TO.P,A2,14*
G04 #@! TO.N,Net-(A2-Pad14)*
X48768000Y72517000D03*
G04 #@! TO.P,A2,7*
G04 #@! TO.N,GND*
X36068000Y62357000D03*
G04 #@! TO.P,A2,15*
G04 #@! TO.N,/Q131*
X48768000Y75057000D03*
G04 #@! TO.P,A2,8*
G04 #@! TO.N,+24V*
X36068000Y59817000D03*
G04 #@! TO.P,A2,16*
G04 #@! TO.N,/Q132*
X48768000Y77597000D03*
G04 #@! TD*
D19*
G04 #@! TO.P,A1,1*
G04 #@! TO.N,GND*
X10795000Y77216000D03*
D20*
G04 #@! TO.P,A1,9*
G04 #@! TO.N,/Q130*
X23495000Y59436000D03*
G04 #@! TO.P,A1,2*
G04 #@! TO.N,VCC*
X10795000Y74676000D03*
G04 #@! TO.P,A1,10*
X23495000Y61976000D03*
G04 #@! TO.P,A1,3*
G04 #@! TO.N,Net-(A1-Pad3)*
X10795000Y72136000D03*
G04 #@! TO.P,A1,11*
G04 #@! TO.N,VCC*
X23495000Y64516000D03*
G04 #@! TO.P,A1,4*
G04 #@! TO.N,Net-(A1-Pad4)*
X10795000Y69596000D03*
G04 #@! TO.P,A1,12*
G04 #@! TO.N,Net-(A1-Pad12)*
X23495000Y67056000D03*
G04 #@! TO.P,A1,5*
G04 #@! TO.N,Net-(A1-Pad5)*
X10795000Y67056000D03*
G04 #@! TO.P,A1,13*
G04 #@! TO.N,Net-(A1-Pad13)*
X23495000Y69596000D03*
G04 #@! TO.P,A1,6*
G04 #@! TO.N,Net-(A1-Pad6)*
X10795000Y64516000D03*
G04 #@! TO.P,A1,14*
G04 #@! TO.N,Net-(A1-Pad14)*
X23495000Y72136000D03*
G04 #@! TO.P,A1,7*
G04 #@! TO.N,GND*
X10795000Y61976000D03*
G04 #@! TO.P,A1,15*
G04 #@! TO.N,/Q128*
X23495000Y74676000D03*
G04 #@! TO.P,A1,8*
G04 #@! TO.N,+24V*
X10795000Y59436000D03*
G04 #@! TO.P,A1,16*
G04 #@! TO.N,/Q129*
X23495000Y77216000D03*
G04 #@! TD*
G04 #@! TO.P,J110,4*
G04 #@! TO.N,Net-(A1-Pad6)*
X5080000Y68072000D03*
G04 #@! TO.P,J110,3*
G04 #@! TO.N,Net-(A1-Pad5)*
X5080000Y70612000D03*
G04 #@! TO.P,J110,2*
G04 #@! TO.N,Net-(A1-Pad4)*
X5080000Y73152000D03*
D19*
G04 #@! TO.P,J110,1*
G04 #@! TO.N,Net-(A1-Pad3)*
X5080000Y75692000D03*
G04 #@! TD*
G04 #@! TO.P,J120,1*
G04 #@! TO.N,Net-(A2-Pad3)*
X30353000Y76073000D03*
D20*
G04 #@! TO.P,J120,2*
G04 #@! TO.N,Net-(A2-Pad4)*
X30353000Y73533000D03*
G04 #@! TO.P,J120,3*
G04 #@! TO.N,Net-(A2-Pad5)*
X30353000Y70993000D03*
G04 #@! TO.P,J120,4*
G04 #@! TO.N,Net-(A2-Pad6)*
X30353000Y68453000D03*
G04 #@! TD*
D15*
G04 #@! TO.P,U2,1*
G04 #@! TO.N,+24V*
X5908000Y54229000D03*
G04 #@! TO.P,U2,2*
G04 #@! TO.N,GND*
X5908000Y36449000D03*
G04 #@! TO.P,U2,3*
G04 #@! TO.N,+5V*
X45908000Y54229000D03*
G04 #@! TO.P,U2,4*
G04 #@! TO.N,GND*
X45908000Y36449000D03*
G04 #@! TD*
D20*
G04 #@! TO.P,A4,16*
G04 #@! TO.N,/Q138*
X73787000Y77343000D03*
G04 #@! TO.P,A4,8*
G04 #@! TO.N,+24V*
X61087000Y59563000D03*
G04 #@! TO.P,A4,15*
G04 #@! TO.N,/Q137*
X73787000Y74803000D03*
G04 #@! TO.P,A4,7*
G04 #@! TO.N,GND*
X61087000Y62103000D03*
G04 #@! TO.P,A4,14*
G04 #@! TO.N,Net-(A4-Pad14)*
X73787000Y72263000D03*
G04 #@! TO.P,A4,6*
G04 #@! TO.N,Net-(A4-Pad6)*
X61087000Y64643000D03*
G04 #@! TO.P,A4,13*
G04 #@! TO.N,Net-(A4-Pad13)*
X73787000Y69723000D03*
G04 #@! TO.P,A4,5*
G04 #@! TO.N,Net-(A4-Pad5)*
X61087000Y67183000D03*
G04 #@! TO.P,A4,12*
G04 #@! TO.N,Net-(A4-Pad12)*
X73787000Y67183000D03*
G04 #@! TO.P,A4,4*
G04 #@! TO.N,Net-(A4-Pad4)*
X61087000Y69723000D03*
G04 #@! TO.P,A4,11*
G04 #@! TO.N,VCC*
X73787000Y64643000D03*
G04 #@! TO.P,A4,3*
G04 #@! TO.N,Net-(A4-Pad3)*
X61087000Y72263000D03*
G04 #@! TO.P,A4,10*
G04 #@! TO.N,VCC*
X73787000Y62103000D03*
G04 #@! TO.P,A4,2*
X61087000Y74803000D03*
G04 #@! TO.P,A4,9*
G04 #@! TO.N,/Q139*
X73787000Y59563000D03*
D19*
G04 #@! TO.P,A4,1*
G04 #@! TO.N,GND*
X61087000Y77343000D03*
G04 #@! TD*
D18*
G04 #@! TO.P,C140,1*
G04 #@! TO.N,+24V*
X55372000Y59944000D03*
D17*
G04 #@! TO.P,C140,2*
G04 #@! TO.N,GND*
X55372000Y62444000D03*
G04 #@! TD*
D19*
G04 #@! TO.P,J140,1*
G04 #@! TO.N,Net-(A4-Pad3)*
X55372000Y75819000D03*
D20*
G04 #@! TO.P,J140,2*
G04 #@! TO.N,Net-(A4-Pad4)*
X55372000Y73279000D03*
G04 #@! TO.P,J140,3*
G04 #@! TO.N,Net-(A4-Pad5)*
X55372000Y70739000D03*
G04 #@! TO.P,J140,4*
G04 #@! TO.N,Net-(A4-Pad6)*
X55372000Y68199000D03*
G04 #@! TD*
G04 #@! TO.P,A3,16*
G04 #@! TO.N,/Q135*
X74168000Y53721000D03*
G04 #@! TO.P,A3,8*
G04 #@! TO.N,+24V*
X61468000Y35941000D03*
G04 #@! TO.P,A3,15*
G04 #@! TO.N,/Q134*
X74168000Y51181000D03*
G04 #@! TO.P,A3,7*
G04 #@! TO.N,GND*
X61468000Y38481000D03*
G04 #@! TO.P,A3,14*
G04 #@! TO.N,Net-(A3-Pad14)*
X74168000Y48641000D03*
G04 #@! TO.P,A3,6*
G04 #@! TO.N,Net-(A3-Pad6)*
X61468000Y41021000D03*
G04 #@! TO.P,A3,13*
G04 #@! TO.N,Net-(A3-Pad13)*
X74168000Y46101000D03*
G04 #@! TO.P,A3,5*
G04 #@! TO.N,Net-(A3-Pad5)*
X61468000Y43561000D03*
G04 #@! TO.P,A3,12*
G04 #@! TO.N,Net-(A3-Pad12)*
X74168000Y43561000D03*
G04 #@! TO.P,A3,4*
G04 #@! TO.N,Net-(A3-Pad4)*
X61468000Y46101000D03*
G04 #@! TO.P,A3,11*
G04 #@! TO.N,VCC*
X74168000Y41021000D03*
G04 #@! TO.P,A3,3*
G04 #@! TO.N,Net-(A3-Pad3)*
X61468000Y48641000D03*
G04 #@! TO.P,A3,10*
G04 #@! TO.N,VCC*
X74168000Y38481000D03*
G04 #@! TO.P,A3,2*
X61468000Y51181000D03*
G04 #@! TO.P,A3,9*
G04 #@! TO.N,/Q136*
X74168000Y35941000D03*
D19*
G04 #@! TO.P,A3,1*
G04 #@! TO.N,GND*
X61468000Y53721000D03*
G04 #@! TD*
D17*
G04 #@! TO.P,C130,2*
G04 #@! TO.N,GND*
X55753000Y38822000D03*
D18*
G04 #@! TO.P,C130,1*
G04 #@! TO.N,+24V*
X55753000Y36322000D03*
G04 #@! TD*
D20*
G04 #@! TO.P,J130,4*
G04 #@! TO.N,Net-(A3-Pad6)*
X55118000Y44577000D03*
G04 #@! TO.P,J130,3*
G04 #@! TO.N,Net-(A3-Pad5)*
X55118000Y47117000D03*
G04 #@! TO.P,J130,2*
G04 #@! TO.N,Net-(A3-Pad4)*
X55118000Y49657000D03*
D19*
G04 #@! TO.P,J130,1*
G04 #@! TO.N,Net-(A3-Pad3)*
X55118000Y52197000D03*
G04 #@! TD*
G04 #@! TO.P,J50,1*
G04 #@! TO.N,GND*
X80975500Y49645100D03*
D20*
G04 #@! TO.P,J50,2*
G04 #@! TO.N,VCC*
X80975500Y52185100D03*
G04 #@! TO.P,J50,3*
G04 #@! TO.N,/SD_MISO*
X80975500Y54725100D03*
G04 #@! TO.P,J50,4*
G04 #@! TO.N,/SD_MOSI*
X80975500Y57265100D03*
G04 #@! TO.P,J50,5*
G04 #@! TO.N,/SD_SCK*
X80975500Y59805100D03*
G04 #@! TO.P,J50,6*
G04 #@! TO.N,/SD_CS*
X80975500Y62345100D03*
G04 #@! TD*
D19*
G04 #@! TO.P,U1,1*
G04 #@! TO.N,VCC*
X111125000Y36120000D03*
D20*
G04 #@! TO.P,U1,2*
G04 #@! TO.N,/~RESET*
X111125000Y38660000D03*
G04 #@! TO.P,U1,19*
G04 #@! TO.N,+5V*
X111125000Y81840000D03*
G04 #@! TO.P,U1,3*
G04 #@! TO.N,/NOZZLE_T*
X111125000Y41200000D03*
G04 #@! TO.P,U1,4*
G04 #@! TO.N,/BED_T*
X111125000Y43740000D03*
G04 #@! TO.P,U1,5*
G04 #@! TO.N,/X_MIN*
X111125000Y46280000D03*
G04 #@! TO.P,U1,6*
G04 #@! TO.N,/Y_MIN*
X111125000Y48820000D03*
G04 #@! TO.P,U1,7*
G04 #@! TO.N,/SERVO*
X111125000Y51360000D03*
G04 #@! TO.P,U1,8*
G04 #@! TO.N,/BTN_ENC*
X111125000Y53900000D03*
G04 #@! TO.P,U1,9*
G04 #@! TO.N,/I2S_WS*
X111125000Y56440000D03*
G04 #@! TO.P,U1,10*
G04 #@! TO.N,/I2S_BCK*
X111125000Y58980000D03*
G04 #@! TO.P,U1,11*
G04 #@! TO.N,/I2S_DATA*
X111125000Y61520000D03*
G04 #@! TO.P,U1,12*
G04 #@! TO.N,/BTN_EN2*
X111125000Y64060000D03*
G04 #@! TO.P,U1,13*
G04 #@! TO.N,/BTN_EN1*
X111125000Y66600000D03*
G04 #@! TO.P,U1,14*
G04 #@! TO.N,GND*
X111125000Y69140000D03*
G04 #@! TO.P,U1,15*
G04 #@! TO.N,/FAN*
X111125000Y71680000D03*
G04 #@! TO.P,U1,16*
G04 #@! TO.N,Net-(U1-Pad16)*
X111125000Y74220000D03*
G04 #@! TO.P,U1,17*
G04 #@! TO.N,Net-(U1-Pad17)*
X111125000Y76760000D03*
G04 #@! TO.P,U1,18*
G04 #@! TO.N,Net-(U1-Pad18)*
X111125000Y79300000D03*
G04 #@! TO.P,U1,20*
G04 #@! TO.N,GND*
X85725000Y36120000D03*
G04 #@! TO.P,U1,21*
G04 #@! TO.N,/SD_MOSI*
X85725000Y38660000D03*
G04 #@! TO.P,U1,22*
G04 #@! TO.N,/LCD_D4*
X85725000Y41200000D03*
G04 #@! TO.P,U1,23*
G04 #@! TO.N,Net-(U1-Pad23)*
X85725000Y43740000D03*
G04 #@! TO.P,U1,24*
G04 #@! TO.N,Net-(U1-Pad24)*
X85725000Y46280000D03*
G04 #@! TO.P,U1,25*
G04 #@! TO.N,/LCD_EN*
X85725000Y48820000D03*
G04 #@! TO.P,U1,26*
G04 #@! TO.N,GND*
X85725000Y51360000D03*
G04 #@! TO.P,U1,27*
G04 #@! TO.N,/SD_MISO*
X85725000Y53900000D03*
G04 #@! TO.P,U1,28*
G04 #@! TO.N,/SD_SCK*
X85725000Y56440000D03*
G04 #@! TO.P,U1,29*
G04 #@! TO.N,/SD_CS*
X85725000Y58980000D03*
G04 #@! TO.P,U1,30*
G04 #@! TO.N,/LCD_RS*
X85725000Y61520000D03*
G04 #@! TO.P,U1,31*
G04 #@! TO.N,/BEEPER*
X85725000Y64060000D03*
G04 #@! TO.P,U1,32*
G04 #@! TO.N,/BED*
X85725000Y66600000D03*
G04 #@! TO.P,U1,33*
G04 #@! TO.N,Net-(U1-Pad33)*
X85725000Y69140000D03*
G04 #@! TO.P,U1,34*
G04 #@! TO.N,/NOZZLE*
X85725000Y71680000D03*
G04 #@! TO.P,U1,35*
G04 #@! TO.N,/Z_MIN*
X85725000Y74220000D03*
G04 #@! TO.P,U1,36*
G04 #@! TO.N,Net-(U1-Pad36)*
X85725000Y76760000D03*
G04 #@! TO.P,U1,37*
G04 #@! TO.N,Net-(U1-Pad37)*
X85725000Y79300000D03*
G04 #@! TO.P,U1,38*
G04 #@! TO.N,Net-(U1-Pad38)*
X85725000Y81840000D03*
G04 #@! TD*
D14*
G04 #@! TO.P,J40,1*
G04 #@! TO.N,/BEEPER*
X88265000Y91840000D03*
D15*
G04 #@! TO.P,J40,2*
G04 #@! TO.N,/BTN_ENC*
X88265000Y88500000D03*
G04 #@! TO.P,J40,3*
G04 #@! TO.N,/BTN_EN1*
X85725000Y91840000D03*
G04 #@! TO.P,J40,4*
G04 #@! TO.N,/~RESET*
X85725000Y88500000D03*
G04 #@! TO.P,J40,5*
G04 #@! TO.N,/BTN_EN2*
X83185000Y91840000D03*
G04 #@! TO.P,J40,6*
G04 #@! TO.N,/LCD_D4*
X83185000Y88500000D03*
G04 #@! TO.P,J40,7*
G04 #@! TO.N,/LCD_RS*
X80645000Y91840000D03*
G04 #@! TO.P,J40,8*
G04 #@! TO.N,/LCD_EN*
X80645000Y88500000D03*
G04 #@! TO.P,J40,9*
G04 #@! TO.N,GND*
X78105000Y91840000D03*
G04 #@! TO.P,J40,10*
G04 #@! TO.N,+5V*
X78105000Y88500000D03*
G04 #@! TD*
D19*
G04 #@! TO.P,J60,1*
G04 #@! TO.N,Net-(J60-Pad1)*
X110890000Y5080000D03*
D20*
G04 #@! TO.P,J60,2*
G04 #@! TO.N,+5V*
X107550000Y5080000D03*
G04 #@! TO.P,J60,3*
G04 #@! TO.N,Net-(J60-Pad3)*
X110890000Y7620000D03*
G04 #@! TO.P,J60,4*
G04 #@! TO.N,Net-(J60-Pad4)*
X107550000Y7620000D03*
G04 #@! TO.P,J60,5*
G04 #@! TO.N,Net-(J60-Pad5)*
X110890000Y10160000D03*
G04 #@! TO.P,J60,6*
G04 #@! TO.N,GND*
X107550000Y10160000D03*
G04 #@! TO.P,J60,7*
G04 #@! TO.N,Net-(J60-Pad7)*
X110890000Y12700000D03*
G04 #@! TO.P,J60,8*
G04 #@! TO.N,/SERVO*
X107550000Y12700000D03*
G04 #@! TD*
D14*
G04 #@! TO.P,J31,1*
G04 #@! TO.N,/Y_MIN*
X73152000Y5207000D03*
D15*
G04 #@! TO.P,J31,2*
G04 #@! TO.N,GND*
X75692000Y5207000D03*
G04 #@! TD*
D17*
G04 #@! TO.P,C30,1*
G04 #@! TO.N,/X_MIN*
X62738000Y10033000D03*
G04 #@! TO.P,C30,2*
G04 #@! TO.N,GND*
X67738000Y10033000D03*
G04 #@! TD*
G04 #@! TO.P,C160,1*
G04 #@! TO.N,VCC*
X28690100Y91440000D03*
G04 #@! TO.P,C160,2*
G04 #@! TO.N,GND*
X28690100Y86440000D03*
G04 #@! TD*
G04 #@! TO.P,C32,1*
G04 #@! TO.N,/Z_MIN*
X81026000Y10033000D03*
G04 #@! TO.P,C32,2*
G04 #@! TO.N,GND*
X86026000Y10033000D03*
G04 #@! TD*
D15*
G04 #@! TO.P,J30,2*
G04 #@! TO.N,GND*
X66802000Y5207000D03*
D14*
G04 #@! TO.P,J30,1*
G04 #@! TO.N,/X_MIN*
X64262000Y5207000D03*
G04 #@! TD*
G04 #@! TO.P,J32,1*
G04 #@! TO.N,/Z_MIN*
X82042000Y5207000D03*
D15*
G04 #@! TO.P,J32,2*
G04 #@! TO.N,GND*
X84582000Y5207000D03*
G04 #@! TD*
D17*
G04 #@! TO.P,C170,2*
G04 #@! TO.N,GND*
X35560000Y91440000D03*
G04 #@! TO.P,C170,1*
G04 #@! TO.N,VCC*
X35560000Y86440000D03*
G04 #@! TD*
G04 #@! TO.P,C31,2*
G04 #@! TO.N,GND*
X76882000Y10033000D03*
G04 #@! TO.P,C31,1*
G04 #@! TO.N,/Y_MIN*
X71882000Y10033000D03*
G04 #@! TD*
G04 #@! TO.P,R30,1*
G04 #@! TO.N,VCC*
X65405000Y24765000D03*
D16*
G04 #@! TO.P,R30,2*
G04 #@! TO.N,/X_MIN*
X65405000Y14605000D03*
G04 #@! TD*
D17*
G04 #@! TO.P,R31,1*
G04 #@! TO.N,VCC*
X70485000Y24765000D03*
D16*
G04 #@! TO.P,R31,2*
G04 #@! TO.N,/Y_MIN*
X70485000Y14605000D03*
G04 #@! TD*
D17*
G04 #@! TO.P,R32,1*
G04 #@! TO.N,VCC*
X75565000Y24765000D03*
D16*
G04 #@! TO.P,R32,2*
G04 #@! TO.N,/Z_MIN*
X75565000Y14605000D03*
G04 #@! TD*
D17*
G04 #@! TO.P,R160,1*
G04 #@! TO.N,VCC*
X69850000Y82804000D03*
D16*
G04 #@! TO.P,R160,2*
G04 #@! TO.N,/I2S_BCK*
X69850000Y92964000D03*
G04 #@! TD*
D15*
G04 #@! TO.P,U4,16*
G04 #@! TO.N,VCC*
X60737900Y83993600D03*
G04 #@! TO.P,U4,8*
G04 #@! TO.N,GND*
X42957900Y91613600D03*
G04 #@! TO.P,U4,15*
G04 #@! TO.N,/Q136*
X58197900Y83993600D03*
G04 #@! TO.P,U4,7*
G04 #@! TO.N,/Q143*
X45497900Y91613600D03*
G04 #@! TO.P,U4,14*
G04 #@! TO.N,Net-(U3-Pad9)*
X55657900Y83993600D03*
G04 #@! TO.P,U4,6*
G04 #@! TO.N,/Q142*
X48037900Y91613600D03*
G04 #@! TO.P,U4,13*
G04 #@! TO.N,GND*
X53117900Y83993600D03*
G04 #@! TO.P,U4,5*
G04 #@! TO.N,/Q141*
X50577900Y91613600D03*
G04 #@! TO.P,U4,12*
G04 #@! TO.N,/I2S_WS*
X50577900Y83993600D03*
G04 #@! TO.P,U4,4*
G04 #@! TO.N,/Q140*
X53117900Y91613600D03*
G04 #@! TO.P,U4,11*
G04 #@! TO.N,/I2S_BCK*
X48037900Y83993600D03*
G04 #@! TO.P,U4,3*
G04 #@! TO.N,/Q139*
X55657900Y91613600D03*
G04 #@! TO.P,U4,10*
G04 #@! TO.N,VCC*
X45497900Y83993600D03*
G04 #@! TO.P,U4,2*
G04 #@! TO.N,/Q138*
X58197900Y91613600D03*
G04 #@! TO.P,U4,9*
G04 #@! TO.N,Net-(U4-Pad9)*
X42957900Y83993600D03*
D14*
G04 #@! TO.P,U4,1*
G04 #@! TO.N,/Q137*
X60737900Y91613600D03*
G04 #@! TD*
D16*
G04 #@! TO.P,R161,2*
G04 #@! TO.N,GND*
X65405000Y82804000D03*
D17*
G04 #@! TO.P,R161,1*
G04 #@! TO.N,/I2S_BCK*
X65405000Y92964000D03*
G04 #@! TD*
D14*
G04 #@! TO.P,U3,1*
G04 #@! TO.N,/Q129*
X5830100Y85090000D03*
D15*
G04 #@! TO.P,U3,9*
G04 #@! TO.N,Net-(U3-Pad9)*
X23610100Y92710000D03*
G04 #@! TO.P,U3,2*
G04 #@! TO.N,/Q130*
X8370100Y85090000D03*
G04 #@! TO.P,U3,10*
G04 #@! TO.N,VCC*
X21070100Y92710000D03*
G04 #@! TO.P,U3,3*
G04 #@! TO.N,/Q131*
X10910100Y85090000D03*
G04 #@! TO.P,U3,11*
G04 #@! TO.N,/I2S_BCK*
X18530100Y92710000D03*
G04 #@! TO.P,U3,4*
G04 #@! TO.N,/Q132*
X13450100Y85090000D03*
G04 #@! TO.P,U3,12*
G04 #@! TO.N,/I2S_WS*
X15990100Y92710000D03*
G04 #@! TO.P,U3,5*
G04 #@! TO.N,/Q133*
X15990100Y85090000D03*
G04 #@! TO.P,U3,13*
G04 #@! TO.N,GND*
X13450100Y92710000D03*
G04 #@! TO.P,U3,6*
G04 #@! TO.N,/Q134*
X18530100Y85090000D03*
G04 #@! TO.P,U3,14*
G04 #@! TO.N,/I2S_DATA*
X10910100Y92710000D03*
G04 #@! TO.P,U3,7*
G04 #@! TO.N,/Q135*
X21070100Y85090000D03*
G04 #@! TO.P,U3,15*
G04 #@! TO.N,/Q128*
X8370100Y92710000D03*
G04 #@! TO.P,U3,8*
G04 #@! TO.N,GND*
X23610100Y85090000D03*
G04 #@! TO.P,U3,16*
G04 #@! TO.N,VCC*
X5830100Y92710000D03*
G04 #@! TD*
D14*
G04 #@! TO.P,J20,1*
G04 #@! TO.N,/BED_T*
X90805000Y5080000D03*
D15*
G04 #@! TO.P,J20,2*
G04 #@! TO.N,GND*
X93345000Y5080000D03*
G04 #@! TD*
D17*
G04 #@! TO.P,C20,2*
G04 #@! TO.N,GND*
X93440000Y11430000D03*
D18*
G04 #@! TO.P,C20,1*
G04 #@! TO.N,/BED_T*
X91440000Y11430000D03*
G04 #@! TD*
D16*
G04 #@! TO.P,R20,2*
G04 #@! TO.N,/BED_T*
X80645000Y14605000D03*
D17*
G04 #@! TO.P,R20,1*
G04 #@! TO.N,VCC*
X80645000Y24765000D03*
G04 #@! TD*
D18*
G04 #@! TO.P,C21,1*
G04 #@! TO.N,/NOZZLE_T*
X99695000Y11430000D03*
D17*
G04 #@! TO.P,C21,2*
G04 #@! TO.N,GND*
X101695000Y11430000D03*
G04 #@! TD*
D15*
G04 #@! TO.P,J21,2*
G04 #@! TO.N,GND*
X102235000Y5080000D03*
D14*
G04 #@! TO.P,J21,1*
G04 #@! TO.N,/NOZZLE_T*
X99695000Y5080000D03*
G04 #@! TD*
D16*
G04 #@! TO.P,R21,2*
G04 #@! TO.N,/NOZZLE_T*
X85725000Y14605000D03*
D17*
G04 #@! TO.P,R21,1*
G04 #@! TO.N,VCC*
X85725000Y24765000D03*
G04 #@! TD*
D21*
G04 #@! TO.N,GND*
X78900300Y49056800D03*
X75953200Y51919300D03*
X87568700Y23272600D03*
X87511900Y25773400D03*
G04 #@! TO.N,VCC*
X71035900Y57768000D03*
X37076400Y79401500D03*
X39865000Y83500800D03*
X68325600Y55521400D03*
G04 #@! TO.N,/Q135*
X51544200Y59627500D03*
X53041300Y53260500D03*
G04 #@! TO.N,/Q136*
X75572300Y63055500D03*
X78185100Y57788200D03*
G04 #@! TO.N,/Z_MIN*
X78169600Y64361900D03*
X77864400Y55957300D03*
G04 #@! TO.N,+5V*
X76250500Y54576900D03*
X74099300Y57768000D03*
G04 #@! TO.N,/BEEPER*
X90975300Y88665400D03*
X91070300Y83655500D03*
G04 #@! TO.N,/~RESET*
X111136600Y84497200D03*
X114692200Y64936000D03*
G04 #@! TO.N,/I2S_BCK*
X46703800Y93438800D03*
X47296100Y95916700D03*
G04 #@! TO.N,/I2S_WS*
X54337600Y93438900D03*
X54175400Y96119100D03*
G04 #@! TO.N,Net-(Q2-Pad1)*
X34227500Y18407200D03*
X26852500Y23330400D03*
G04 #@! TD*
D22*
G04 #@! TO.N,GND*
X10795000Y61976000D02*
X5421000Y61976000D01*
X5421000Y61976000D02*
X5080000Y62317000D01*
X36068000Y62357000D02*
X30694000Y62357000D01*
X30694000Y62357000D02*
X30353000Y62698000D01*
X61468000Y38481000D02*
X56094000Y38481000D01*
X56094000Y38481000D02*
X55753000Y38822000D01*
X61087000Y62103000D02*
X55713000Y62103000D01*
X55713000Y62103000D02*
X55372000Y62444000D01*
D23*
X26162000Y19050000D02*
X26162000Y20163000D01*
X26162000Y20163000D02*
X27006700Y21007600D01*
D22*
X38862000Y19050000D02*
X38862000Y12655000D01*
X38862000Y12655000D02*
X41562000Y9955000D01*
X41562000Y9955000D02*
X41562000Y7151000D01*
X41562000Y7151000D02*
X42998000Y5715000D01*
X42998000Y5715000D02*
X44726000Y5715000D01*
X44726000Y5715000D02*
X48537000Y9526000D01*
X56562000Y8255000D02*
X56562000Y17065000D01*
X56562000Y17065000D02*
X56642000Y17145000D01*
D24*
X7112000Y28575000D02*
X11412000Y28575000D01*
X11412000Y28575000D02*
X12567000Y27420000D01*
X12567000Y27420000D02*
X12567000Y22786000D01*
X12567000Y22786000D02*
X16113000Y19240000D01*
X16113000Y19240000D02*
X25902000Y19240000D01*
D23*
X7112000Y28575000D02*
X7112000Y35245000D01*
X7112000Y35245000D02*
X5908000Y36449000D01*
D22*
X48537000Y9526000D02*
X49566000Y10555000D01*
X49566000Y10555000D02*
X54262000Y10555000D01*
X54262000Y10555000D02*
X55262000Y9555000D01*
X55262000Y9555000D02*
X56562000Y8255000D01*
D23*
X27006700Y21007600D02*
X27749300Y21750000D01*
X27749300Y21750000D02*
X33362000Y21750000D01*
X33362000Y21750000D02*
X36062000Y19050000D01*
X36062000Y19050000D02*
X38862000Y19050000D01*
D25*
X52197000Y29210000D02*
X50507700Y34938800D01*
X67738000Y10033000D02*
X67916100Y6252200D01*
X38862000Y29210000D02*
X40412000Y24713900D01*
X40412000Y24713900D02*
X40487000Y23546100D01*
X40487000Y23546100D02*
X40529300Y23443900D01*
X40529300Y23443900D02*
X41350900Y22622300D01*
X41350900Y22622300D02*
X41453100Y22580000D01*
X41453100Y22580000D02*
X45076700Y21786900D01*
X45076700Y21786900D02*
X52197000Y29210000D01*
X75692000Y5207000D02*
X75692000Y5607000D01*
X75692000Y5607000D02*
X77650500Y8001000D01*
X55753000Y38822000D02*
X54509700Y39145800D01*
X66802000Y5207000D02*
X66802000Y5607000D01*
X66802000Y5607000D02*
X67916100Y6252200D01*
X107950000Y10160000D02*
X107150000Y10160000D01*
X107150000Y10160000D02*
X103517400Y9396500D01*
X65405000Y82804000D02*
X62537000Y78039400D01*
X62537000Y78039400D02*
X62390600Y77893000D01*
X62390600Y77893000D02*
X62287000Y77893000D01*
X62287000Y77893000D02*
X62037000Y77893000D01*
X62037000Y77893000D02*
X61087000Y77343000D01*
X42957900Y91613600D02*
X42957900Y91440000D01*
X42957900Y91440000D02*
X35560000Y91440000D01*
X76882000Y10033000D02*
X77650500Y8001000D01*
X80975500Y49645100D02*
X80025500Y49095100D01*
X80025500Y49095100D02*
X79775500Y49095100D01*
X79775500Y49095100D02*
X79671900Y49095100D01*
X79671900Y49095100D02*
X78900300Y49056800D01*
X23610100Y85090000D02*
X23610100Y85490000D01*
X23610100Y85490000D02*
X19326300Y90862500D01*
X19326300Y90862500D02*
X19800100Y91783900D01*
X19800100Y91783900D02*
X19800100Y93636100D01*
X19800100Y93636100D02*
X20544000Y94380000D01*
X20544000Y94380000D02*
X21596200Y94380000D01*
X21596200Y94380000D02*
X22304400Y94063300D01*
X102235000Y5080000D02*
X102235000Y5480000D01*
X102235000Y5480000D02*
X103517400Y9396500D01*
X84582000Y5207000D02*
X84582000Y5607000D01*
X84582000Y5607000D02*
X84498000Y6856000D01*
X25527000Y29210000D02*
X23977000Y24713900D01*
X23977000Y24713900D02*
X23977000Y23546100D01*
X23977000Y23546100D02*
X24019300Y23443900D01*
X24019300Y23443900D02*
X24840900Y22622300D01*
X24840900Y22622300D02*
X26656300Y21356300D01*
X26656300Y21356300D02*
X27006700Y21007600D01*
X50507700Y34938800D02*
X45908000Y36049000D01*
X45908000Y36049000D02*
X45908000Y36449000D01*
X23610100Y85090000D02*
X23610100Y85490000D01*
X23610100Y85490000D02*
X28690100Y86440000D01*
X93345000Y5080000D02*
X93345000Y4680000D01*
X93345000Y4680000D02*
X93731700Y3451900D01*
X101695000Y11430000D02*
X103517400Y9396500D01*
X61087000Y77343000D02*
X60137000Y77369000D01*
X60137000Y77369000D02*
X59887000Y77369000D01*
X59887000Y77369000D02*
X53861300Y77369000D01*
X53861300Y77369000D02*
X53538000Y77187900D01*
X13450100Y92710000D02*
X13450100Y92310000D01*
X13450100Y92310000D02*
X15304000Y90802300D01*
X15304000Y90802300D02*
X15406200Y90760000D01*
X15406200Y90760000D02*
X17946200Y90760000D01*
X17946200Y90760000D02*
X19114000Y90760000D01*
X19114000Y90760000D02*
X19216200Y90802300D01*
X19216200Y90802300D02*
X19326300Y90862500D01*
X87511900Y25773400D02*
X86125000Y36120000D01*
X86125000Y36120000D02*
X85725000Y36120000D01*
X86026000Y10033000D02*
X85412000Y7152400D01*
X84498000Y6856000D02*
X85412000Y7152400D01*
X53117900Y83993600D02*
X53117900Y84393600D01*
X53117900Y84393600D02*
X51104000Y85663600D01*
X51104000Y85663600D02*
X50051800Y85663600D01*
X50051800Y85663600D02*
X49307900Y84919700D01*
X49307900Y84919700D02*
X49307900Y83067500D01*
X49307900Y83067500D02*
X48564000Y82323600D01*
X48564000Y82323600D02*
X47511800Y82323600D01*
X47511800Y82323600D02*
X46767900Y83067500D01*
X46767900Y83067500D02*
X46767900Y84919700D01*
X46767900Y84919700D02*
X42957900Y91213600D01*
X42957900Y91213600D02*
X42957900Y91613600D01*
X80975500Y49645100D02*
X81925500Y50195100D01*
X81925500Y50195100D02*
X82175500Y50195100D01*
X82175500Y50195100D02*
X82279100Y50195100D01*
X82279100Y50195100D02*
X84078100Y51167000D01*
X84078100Y51167000D02*
X84544200Y51360000D01*
X84544200Y51360000D02*
X85325000Y51360000D01*
X85325000Y51360000D02*
X85725000Y51360000D01*
X85412000Y7152400D02*
X89737900Y3235100D01*
X89737900Y3235100D02*
X91337900Y3235100D01*
X91337900Y3235100D02*
X91872100Y3235100D01*
X91872100Y3235100D02*
X93615400Y3451900D01*
X93615400Y3451900D02*
X93731700Y3451900D01*
X53538000Y77187900D02*
X53447600Y76929700D01*
X53447600Y76929700D02*
X53422000Y75826100D01*
X53422000Y75826100D02*
X53422000Y75329700D01*
X53422000Y75329700D02*
X53422000Y74708300D01*
X53422000Y74708300D02*
X53422000Y67615100D01*
X53422000Y67615100D02*
X55372000Y62444000D01*
X86026000Y10033000D02*
X82278500Y12388400D01*
X82278500Y12388400D02*
X81808800Y12583000D01*
X81808800Y12583000D02*
X80069400Y13096900D01*
X80069400Y13096900D02*
X79982700Y13132800D01*
X79982700Y13132800D02*
X79172800Y13942700D01*
X79172800Y13942700D02*
X79136900Y14029400D01*
X79136900Y14029400D02*
X79136900Y15180600D01*
X79136900Y15180600D02*
X79172800Y15267300D01*
X79172800Y15267300D02*
X79982700Y16077200D01*
X79982700Y16077200D02*
X86868000Y22573400D01*
X86868000Y22573400D02*
X87568700Y23272600D01*
X10795000Y61976000D02*
X11195000Y61976000D01*
X11195000Y61976000D02*
X21842500Y57080600D01*
X21842500Y57080600D02*
X22312200Y56886000D01*
X22312200Y56886000D02*
X23112200Y56886000D01*
X23112200Y56886000D02*
X24677800Y56886000D01*
X24677800Y56886000D02*
X25147500Y57080600D01*
X25147500Y57080600D02*
X26250400Y58183500D01*
X26250400Y58183500D02*
X28803000Y61308700D01*
X28803000Y61308700D02*
X29242300Y61748000D01*
X29242300Y61748000D02*
X30353000Y62698000D01*
X48537000Y9526000D02*
X48383800Y9680000D01*
X48383800Y9680000D02*
X45492000Y20560700D01*
X45492000Y20560700D02*
X45076700Y21786900D01*
X10795000Y77216000D02*
X9845000Y77242000D01*
X9845000Y77242000D02*
X9595000Y77242000D01*
X9595000Y77242000D02*
X3569300Y77242000D01*
X3569300Y77242000D02*
X3130000Y76802700D01*
X3130000Y76802700D02*
X3130000Y75202700D01*
X3130000Y75202700D02*
X3130000Y74581300D01*
X3130000Y74581300D02*
X3130000Y67488100D01*
X3130000Y67488100D02*
X5080000Y62317000D01*
X54509700Y39145800D02*
X50507700Y34938800D01*
X55372000Y62444000D02*
X54261300Y61494000D01*
X54261300Y61494000D02*
X53822000Y61054700D01*
X53822000Y61054700D02*
X52248000Y59336000D01*
X52248000Y59336000D02*
X51835700Y58923700D01*
X51835700Y58923700D02*
X48951900Y58267000D01*
X48951900Y58267000D02*
X47784100Y58267000D01*
X47784100Y58267000D02*
X36468000Y62357000D01*
X36468000Y62357000D02*
X36068000Y62357000D01*
X75953200Y51919300D02*
X75094100Y52451000D01*
X75094100Y52451000D02*
X74294100Y52451000D01*
X74294100Y52451000D02*
X73241900Y52451000D01*
X73241900Y52451000D02*
X72065600Y51892900D01*
X72065600Y51892900D02*
X71894800Y51790500D01*
X71894800Y51790500D02*
X70618500Y50514200D01*
X70618500Y50514200D02*
X63375700Y40334900D01*
X63375700Y40334900D02*
X61868000Y38481000D01*
X61868000Y38481000D02*
X61468000Y38481000D01*
X111125000Y69140000D02*
X110725000Y69140000D01*
X110725000Y69140000D02*
X87395000Y43213900D01*
X87395000Y43213900D02*
X86651100Y42470000D01*
X86651100Y42470000D02*
X84798900Y42470000D01*
X84798900Y42470000D02*
X84055000Y41726100D01*
X84055000Y41726100D02*
X84055000Y40673900D01*
X84055000Y40673900D02*
X84798900Y39930000D01*
X84798900Y39930000D02*
X86651100Y39930000D01*
X86651100Y39930000D02*
X87395000Y39186100D01*
X87395000Y39186100D02*
X87395000Y38133900D01*
X87395000Y38133900D02*
X86125000Y36120000D01*
X86125000Y36120000D02*
X85725000Y36120000D01*
X67916100Y6252200D02*
X72148500Y3515600D01*
X72148500Y3515600D02*
X73748500Y3515600D01*
X73748500Y3515600D02*
X74155500Y3515600D01*
X74155500Y3515600D02*
X75692000Y4807000D01*
X75692000Y4807000D02*
X75692000Y5207000D01*
X22304400Y94063300D02*
X22340100Y93319900D01*
X22340100Y93319900D02*
X22340100Y91783900D01*
X22340100Y91783900D02*
X23084000Y91040000D01*
X23084000Y91040000D02*
X24136200Y91040000D01*
X24136200Y91040000D02*
X28004000Y92947700D01*
X28004000Y92947700D02*
X28106200Y92990000D01*
X28106200Y92990000D02*
X29274000Y92990000D01*
X29274000Y92990000D02*
X35560000Y91440000D01*
X84498000Y6856000D02*
X83152700Y7157000D01*
X83152700Y7157000D02*
X80243200Y7483000D01*
X80243200Y7483000D02*
X77650500Y8001000D01*
X80975500Y49645100D02*
X81775000Y49095100D01*
X81775000Y49095100D02*
X81775000Y48845100D01*
X81775000Y48845100D02*
X81775000Y40292800D01*
X81775000Y40292800D02*
X81823500Y40099800D01*
X81823500Y40099800D02*
X82073100Y39497600D01*
X82073100Y39497600D02*
X82175500Y39326800D01*
X82175500Y39326800D02*
X85325000Y36120000D01*
X85325000Y36120000D02*
X85725000Y36120000D01*
X28690100Y86440000D02*
X36885100Y83999500D01*
X36885100Y83999500D02*
X36932600Y83984000D01*
X36932600Y83984000D02*
X37790600Y83628400D01*
X37790600Y83628400D02*
X39007000Y83106600D01*
X39007000Y83106600D02*
X39263300Y82952900D01*
X39263300Y82952900D02*
X39529000Y82689600D01*
X39529000Y82689600D02*
X41791100Y81366500D01*
X41791100Y81366500D02*
X42205200Y81195000D01*
X42205200Y81195000D02*
X47138400Y80105600D01*
X47138400Y80105600D02*
X49942600Y80105600D01*
X49942600Y80105600D02*
X50397100Y79917300D01*
X50397100Y79917300D02*
X53538000Y77187900D01*
X5908000Y36449000D02*
X5908000Y36849000D01*
X5908000Y36849000D02*
X22192700Y43535000D01*
X22192700Y43535000D02*
X45221900Y56136700D01*
X45221900Y56136700D02*
X45324100Y56179000D01*
X45324100Y56179000D02*
X49416300Y56558800D01*
X49416300Y56558800D02*
X50037600Y56714100D01*
X50037600Y56714100D02*
X51025700Y57134600D01*
X51025700Y57134600D02*
X51722400Y57423400D01*
X51722400Y57423400D02*
X52048300Y57505200D01*
X52048300Y57505200D02*
X52239800Y57516100D01*
X52239800Y57516100D02*
X54320700Y58345000D01*
X54320700Y58345000D02*
X54350400Y58354600D01*
X54350400Y58354600D02*
X54864300Y58484000D01*
X54864300Y58484000D02*
X54916000Y58492300D01*
X54916000Y58492300D02*
X57178000Y58492300D01*
X57178000Y58492300D02*
X57449000Y58492300D01*
X57449000Y58492300D02*
X60144800Y58222700D01*
X60144800Y58222700D02*
X60944800Y58222700D01*
X60944800Y58222700D02*
X62029200Y58222700D01*
X62029200Y58222700D02*
X62054300Y58233100D01*
X62054300Y58233100D02*
X62816900Y58995700D01*
X62816900Y58995700D02*
X62827300Y59020800D01*
X62827300Y59020800D02*
X62827300Y60105200D01*
X62827300Y60105200D02*
X62816900Y60130300D01*
X62816900Y60130300D02*
X61487000Y62103000D01*
X61487000Y62103000D02*
X61087000Y62103000D01*
X61468000Y53721000D02*
X60518000Y54271000D01*
X60518000Y54271000D02*
X60268000Y54271000D01*
X60268000Y54271000D02*
X60164400Y54271000D01*
X60164400Y54271000D02*
X56870400Y54388500D01*
X56870400Y54388500D02*
X56599400Y54388500D01*
X56599400Y54388500D02*
X56537900Y54388400D01*
X56537900Y54388400D02*
X55253400Y54408800D01*
X55253400Y54408800D02*
X54140600Y54408800D01*
X54140600Y54408800D02*
X52748300Y53967900D01*
X52748300Y53967900D02*
X52333900Y53553500D01*
X52333900Y53553500D02*
X52333900Y52967500D01*
X52333900Y52967500D02*
X53168000Y43993100D01*
X53168000Y43993100D02*
X54509700Y39145800D01*
X93440000Y11430000D02*
X93345000Y5480000D01*
X93345000Y5480000D02*
X93345000Y5080000D01*
X93731700Y3451900D02*
X93901600Y3451900D01*
X93901600Y3451900D02*
X94919300Y3518500D01*
X94919300Y3518500D02*
X95482200Y3550500D01*
X95482200Y3550500D02*
X97296600Y3550500D01*
X97296600Y3550500D02*
X98627900Y3235100D01*
X98627900Y3235100D02*
X100227900Y3235100D01*
X100227900Y3235100D02*
X100762100Y3235100D01*
X100762100Y3235100D02*
X102235000Y4680000D01*
X102235000Y4680000D02*
X102235000Y5080000D01*
X36068000Y77597000D02*
X35118000Y77623000D01*
X35118000Y77623000D02*
X34868000Y77623000D01*
X34868000Y77623000D02*
X28867900Y77623000D01*
X28867900Y77623000D02*
X28845800Y77614600D01*
X28845800Y77614600D02*
X28411400Y77180200D01*
X28411400Y77180200D02*
X28411400Y75580200D01*
X28411400Y75580200D02*
X28411400Y74965800D01*
X28411400Y74965800D02*
X28411400Y67870800D01*
X28411400Y67870800D02*
X30353000Y62698000D01*
X78105000Y91440000D02*
X70433900Y91414000D01*
X70433900Y91414000D02*
X69266100Y91414000D01*
X69266100Y91414000D02*
X64842600Y91522200D01*
X64842600Y91522200D02*
X64780200Y91548100D01*
X64780200Y91548100D02*
X63989100Y92339200D01*
X63989100Y92339200D02*
X63963200Y92401600D01*
X63963200Y92401600D02*
X63963200Y93571600D01*
X63963200Y93571600D02*
X63787600Y93995500D01*
X63787600Y93995500D02*
X62719800Y95063300D01*
X62719800Y95063300D02*
X62543600Y95173800D01*
X62543600Y95173800D02*
X62071800Y95369200D01*
X62071800Y95369200D02*
X60721800Y95369200D01*
X60721800Y95369200D02*
X59154000Y95369200D01*
X59154000Y95369200D02*
X54806400Y94332300D01*
X54806400Y94332300D02*
X53544400Y94332300D01*
X53544400Y94332300D02*
X47308000Y95090700D01*
X47308000Y95090700D02*
X46099600Y95090700D01*
X46099600Y95090700D02*
X27782900Y94990000D01*
X27782900Y94990000D02*
X23026200Y94660000D01*
X23026200Y94660000D02*
X22924000Y94617700D01*
X22924000Y94617700D02*
X22304400Y94063300D01*
G04 #@! TO.N,/Q130*
X8370100Y85090000D02*
X8370100Y84690000D01*
X8370100Y84690000D02*
X10224000Y83182300D01*
X10224000Y83182300D02*
X12197600Y82334600D01*
X12197600Y82334600D02*
X16376800Y80542500D01*
X16376800Y80542500D02*
X17115100Y80236500D01*
X17115100Y80236500D02*
X17499300Y80140000D01*
X17499300Y80140000D02*
X22511000Y79587100D01*
X22511000Y79587100D02*
X24642200Y79587100D01*
X24642200Y79587100D02*
X25046200Y79419800D01*
X25046200Y79419800D02*
X26098800Y78367200D01*
X26098800Y78367200D02*
X26266100Y77963200D01*
X26266100Y77963200D02*
X26428200Y75455500D01*
X26428200Y75455500D02*
X26428200Y67835500D01*
X26428200Y67835500D02*
X26428200Y66276500D01*
X26428200Y66276500D02*
X25445000Y61392100D01*
X25445000Y61392100D02*
X25402700Y61289900D01*
X25402700Y61289900D02*
X23895000Y59436000D01*
X23895000Y59436000D02*
X23495000Y59436000D01*
G04 #@! TO.N,VCC*
X60737900Y83993600D02*
X60737900Y83593600D01*
X60737900Y83593600D02*
X58884000Y82085900D01*
X58884000Y82085900D02*
X56910400Y81238200D01*
X56910400Y81238200D02*
X56440700Y81043600D01*
X56440700Y81043600D02*
X54875100Y81043600D01*
X54875100Y81043600D02*
X52335100Y81043600D01*
X52335100Y81043600D02*
X50067500Y81085000D01*
X50067500Y81085000D02*
X47263300Y81085000D01*
X47263300Y81085000D02*
X46808800Y81273300D01*
X46808800Y81273300D02*
X45717600Y82364500D01*
X45717600Y82364500D02*
X45529300Y82819000D01*
X45529300Y82819000D02*
X45497900Y83593600D01*
X45497900Y83593600D02*
X45497900Y83993600D01*
X36068000Y75057000D02*
X36468000Y75057000D01*
X36468000Y75057000D02*
X37716300Y75417400D01*
X72721100Y26215700D02*
X75565000Y24765000D01*
X111125000Y36120000D02*
X110175000Y35570000D01*
X110175000Y35570000D02*
X109925000Y35570000D01*
X109925000Y35570000D02*
X109821400Y35570000D01*
X109821400Y35570000D02*
X87857200Y24939800D01*
X87857200Y24939800D02*
X86961500Y24939800D01*
X86961500Y24939800D02*
X85725000Y24765000D01*
X65405000Y24765000D02*
X70485000Y24765000D01*
X28690100Y91440000D02*
X35560000Y86440000D01*
X74168000Y38481000D02*
X73768000Y38481000D01*
X73768000Y38481000D02*
X72260300Y36627100D01*
X72260300Y36627100D02*
X72218000Y36524900D01*
X72218000Y36524900D02*
X72218000Y35357100D01*
X72218000Y35357100D02*
X72721100Y26215700D01*
X69850000Y82804000D02*
X65988900Y84354000D01*
X65988900Y84354000D02*
X60737900Y84354000D01*
X60737900Y84354000D02*
X60737900Y83993600D01*
X70485000Y24765000D02*
X72721100Y26215700D01*
X73787000Y64643000D02*
X73387000Y64643000D01*
X73387000Y64643000D02*
X71879300Y66496900D01*
X71879300Y66496900D02*
X66128300Y75136400D01*
X10795000Y74676000D02*
X11195000Y74676000D01*
X11195000Y74676000D02*
X20134500Y68997300D01*
X20134500Y68997300D02*
X23095000Y64516000D01*
X23095000Y64516000D02*
X23495000Y64516000D01*
X21070100Y92710000D02*
X21070100Y92310000D01*
X21070100Y92310000D02*
X21070100Y91529200D01*
X21070100Y91529200D02*
X21263100Y91063100D01*
X21263100Y91063100D02*
X22363200Y89963000D01*
X22363200Y89963000D02*
X22829300Y89770000D01*
X22829300Y89770000D02*
X24390900Y89770000D01*
X24390900Y89770000D02*
X28690100Y91440000D01*
X61087000Y74803000D02*
X61487000Y74803000D01*
X61487000Y74803000D02*
X66128300Y75136400D01*
X74168000Y41021000D02*
X74168000Y38481000D01*
X74168000Y41021000D02*
X74568000Y41021000D01*
X74568000Y41021000D02*
X75348800Y41021000D01*
X75348800Y41021000D02*
X75814900Y41214000D01*
X75814900Y41214000D02*
X76915000Y42314100D01*
X76915000Y42314100D02*
X77108000Y42780200D01*
X77108000Y42780200D02*
X77289700Y49652800D01*
X77289700Y49652800D02*
X77341200Y49777200D01*
X77341200Y49777200D02*
X77536000Y50020200D01*
X77536000Y50020200D02*
X78232300Y50717700D01*
X78232300Y50717700D02*
X78403500Y51040500D01*
X78403500Y51040500D02*
X79180100Y51817100D01*
X79180100Y51817100D02*
X79223400Y51835100D01*
X79223400Y51835100D02*
X79457500Y51915100D01*
X79457500Y51915100D02*
X80575500Y52185100D01*
X80575500Y52185100D02*
X80975500Y52185100D01*
X68325600Y55521400D02*
X69192500Y54656600D01*
X69192500Y54656600D02*
X69355100Y54559100D01*
X69355100Y54559100D02*
X69950800Y54312200D01*
X69950800Y54312200D02*
X70134700Y54266000D01*
X70134700Y54266000D02*
X71937100Y54266000D01*
X71937100Y54266000D02*
X72121000Y54312200D01*
X72121000Y54312200D02*
X72716700Y54559100D01*
X72716700Y54559100D02*
X72879300Y54656600D01*
X72879300Y54656600D02*
X73250600Y54970100D01*
X73250600Y54970100D02*
X74913500Y54970100D01*
X74913500Y54970100D02*
X74962800Y54982500D01*
X74962800Y54982500D02*
X75462600Y55189700D01*
X75462600Y55189700D02*
X76263900Y55567300D01*
X76263900Y55567300D02*
X76575000Y55753800D01*
X76575000Y55753800D02*
X77555700Y56702500D01*
X77555700Y56702500D02*
X78173100Y56702500D01*
X78173100Y56702500D02*
X78609600Y56266000D01*
X78609600Y56266000D02*
X78609600Y55648600D01*
X78609600Y55648600D02*
X78535100Y55406500D01*
X78535100Y55406500D02*
X78535100Y54043700D01*
X78535100Y54043700D02*
X78652100Y53761200D01*
X78652100Y53761200D02*
X79611600Y52801700D01*
X79611600Y52801700D02*
X80575500Y52185100D01*
X80575500Y52185100D02*
X80975500Y52185100D01*
X39865000Y83500800D02*
X42314700Y82150100D01*
X42314700Y82150100D02*
X42389100Y82119300D01*
X42389100Y82119300D02*
X43526700Y82119300D01*
X43526700Y82119300D02*
X43601100Y82150100D01*
X43601100Y82150100D02*
X45497900Y83593600D01*
X45497900Y83593600D02*
X45497900Y83993600D01*
X73787000Y62103000D02*
X73387000Y62103000D01*
X73387000Y62103000D02*
X71879300Y60249100D01*
X71879300Y60249100D02*
X71837000Y60146900D01*
X71837000Y60146900D02*
X71035900Y57768000D01*
X80645000Y24765000D02*
X85725000Y24765000D01*
X69850000Y82804000D02*
X66128300Y75136400D01*
X73787000Y64643000D02*
X73787000Y62103000D01*
X37076400Y79401500D02*
X28554900Y78623000D01*
X28554900Y78623000D02*
X28379200Y78550200D01*
X28379200Y78550200D02*
X28363100Y78536000D01*
X28363100Y78536000D02*
X27490000Y77662900D01*
X27490000Y77662900D02*
X27419800Y77493300D01*
X27419800Y77493300D02*
X27419800Y66152000D01*
X27419800Y66152000D02*
X26445000Y61193200D01*
X26445000Y61193200D02*
X26250400Y60723500D01*
X26250400Y60723500D02*
X25402700Y58749900D01*
X25402700Y58749900D02*
X24581100Y57928300D01*
X24581100Y57928300D02*
X24478900Y57886000D01*
X24478900Y57886000D02*
X23311100Y57886000D01*
X23311100Y57886000D02*
X22511100Y57886000D01*
X22511100Y57886000D02*
X22408900Y57928300D01*
X22408900Y57928300D02*
X21587300Y58749900D01*
X21587300Y58749900D02*
X21545000Y58852100D01*
X21545000Y58852100D02*
X21545000Y60019900D01*
X21545000Y60019900D02*
X21587300Y60122100D01*
X21587300Y60122100D02*
X23095000Y61976000D01*
X23095000Y61976000D02*
X23495000Y61976000D01*
X61468000Y51181000D02*
X61868000Y51181000D01*
X61868000Y51181000D02*
X68325600Y55521400D01*
X35560000Y86440000D02*
X39865000Y83500800D01*
X37076400Y79401500D02*
X37768000Y78707700D01*
X37768000Y78707700D02*
X37835900Y78632200D01*
X37835900Y78632200D02*
X37964400Y78435500D01*
X37964400Y78435500D02*
X38018000Y77357700D01*
X38018000Y77357700D02*
X38018000Y77107700D01*
X38018000Y77107700D02*
X38018000Y76486300D01*
X38018000Y76486300D02*
X37716300Y75417400D01*
X5830100Y92710000D02*
X5830100Y92310000D01*
X5830100Y92310000D02*
X7127300Y86599500D01*
X7127300Y86599500D02*
X7127300Y86495900D01*
X7127300Y86495900D02*
X7127300Y86084100D01*
X7127300Y86084100D02*
X7100100Y86016100D01*
X7100100Y86016100D02*
X7100100Y85216100D01*
X7100100Y85216100D02*
X7100100Y84163900D01*
X7100100Y84163900D02*
X7844000Y83420000D01*
X7844000Y83420000D02*
X9657600Y82334600D01*
X9657600Y82334600D02*
X11747700Y81438100D01*
X11747700Y81438100D02*
X15941300Y79640400D01*
X15941300Y79640400D02*
X16784900Y79290700D01*
X16784900Y79290700D02*
X16818400Y79279800D01*
X16818400Y79279800D02*
X17336400Y79149300D01*
X17336400Y79149300D02*
X17394800Y79140000D01*
X17394800Y79140000D02*
X22438000Y78676600D01*
X22438000Y78676600D02*
X24461100Y78676600D01*
X24461100Y78676600D02*
X24530400Y78647900D01*
X24530400Y78647900D02*
X25326900Y77851400D01*
X25326900Y77851400D02*
X25355600Y77782100D01*
X25355600Y77782100D02*
X25436600Y75258200D01*
X25436600Y75258200D02*
X25436600Y67638200D01*
X25436600Y67638200D02*
X25436600Y66473800D01*
X25436600Y66473800D02*
X25395600Y66374700D01*
X25395600Y66374700D02*
X23895000Y64516000D01*
X23895000Y64516000D02*
X23495000Y64516000D01*
X48768000Y62357000D02*
X48768000Y64897000D01*
X48768000Y64897000D02*
X48368000Y64897000D01*
X48368000Y64897000D02*
X37716300Y75417400D01*
X23495000Y61976000D02*
X23495000Y64516000D01*
X75565000Y24765000D02*
X80645000Y24765000D01*
D22*
G04 #@! TO.N,Net-(A1-Pad3)*
X10795000Y72136000D02*
X9036000Y72136000D01*
X9036000Y72136000D02*
X5480000Y75692000D01*
X5480000Y75692000D02*
X5080000Y75692000D01*
G04 #@! TO.N,Net-(A1-Pad4)*
X10795000Y69596000D02*
X9036000Y69596000D01*
X9036000Y69596000D02*
X5480000Y73152000D01*
X5480000Y73152000D02*
X5080000Y73152000D01*
G04 #@! TO.N,Net-(A1-Pad5)*
X10795000Y67056000D02*
X9036000Y67056000D01*
X9036000Y67056000D02*
X5480000Y70612000D01*
X5480000Y70612000D02*
X5080000Y70612000D01*
G04 #@! TO.N,Net-(A1-Pad6)*
X10795000Y64516000D02*
X8636000Y64516000D01*
X8636000Y64516000D02*
X5080000Y68072000D01*
D25*
G04 #@! TO.N,/Q128*
X8370100Y92710000D02*
X8370100Y93110000D01*
X8370100Y93110000D02*
X6516200Y94617700D01*
X6516200Y94617700D02*
X6414000Y94660000D01*
X6414000Y94660000D02*
X5246200Y94660000D01*
X5246200Y94660000D02*
X5144000Y94617700D01*
X5144000Y94617700D02*
X4322400Y93796100D01*
X4322400Y93796100D02*
X4280100Y93693900D01*
X4280100Y93693900D02*
X4280100Y84200700D01*
X4280100Y84200700D02*
X4280100Y83579300D01*
X4280100Y83579300D02*
X4719400Y83140000D01*
X4719400Y83140000D02*
X6496900Y81540500D01*
X6496900Y81540500D02*
X6667700Y81438100D01*
X6667700Y81438100D02*
X8756800Y80542500D01*
X8756800Y80542500D02*
X10861300Y79640400D01*
X10861300Y79640400D02*
X15103700Y77822500D01*
X15103700Y77822500D02*
X16091200Y77413300D01*
X16091200Y77413300D02*
X23095000Y74676000D01*
X23095000Y74676000D02*
X23495000Y74676000D01*
G04 #@! TO.N,+24V*
X35348000Y59353100D02*
X35558600Y59682300D01*
X35348000Y59353100D02*
X35137400Y59682300D01*
X59698000Y35341000D02*
X59925300Y35836800D01*
X59698000Y35341000D02*
X59470700Y35836800D01*
D22*
X38862000Y8255000D02*
X38862000Y5955000D01*
X38862000Y5955000D02*
X40602000Y4215000D01*
X40602000Y4215000D02*
X49822000Y4215000D01*
X49822000Y4215000D02*
X51562000Y5955000D01*
X10795000Y59436000D02*
X10270000Y59436000D01*
X36068000Y59817000D02*
X35348000Y59817000D01*
X61468000Y35941000D02*
X59698000Y35941000D01*
X61087000Y59563000D02*
X55753000Y59563000D01*
X55753000Y59563000D02*
X55372000Y59944000D01*
X51562000Y5955000D02*
X51562000Y8255000D01*
X51562000Y5955000D02*
X57666000Y5955000D01*
X57666000Y5955000D02*
X59436000Y7725000D01*
X59436000Y7725000D02*
X59436000Y22565000D01*
X59436000Y22565000D02*
X59436000Y24765000D01*
X51562000Y8255000D02*
X51562000Y5955000D01*
X59436000Y24765000D02*
X59436000Y30353000D01*
D23*
X16257000Y6350000D02*
X18288000Y4319000D01*
X18288000Y4319000D02*
X38226000Y4319000D01*
X38226000Y4319000D02*
X38862000Y4955000D01*
X38862000Y4955000D02*
X38862000Y8255000D01*
X16257000Y6350000D02*
X13057000Y3150000D01*
X13057000Y3150000D02*
X5321000Y3150000D01*
X5321000Y3150000D02*
X3302000Y5169000D01*
X3302000Y5169000D02*
X3302000Y48423000D01*
X3302000Y48423000D02*
X5908000Y51029000D01*
X5908000Y51029000D02*
X5908000Y54229000D01*
D22*
X59698000Y35941000D02*
X59173000Y35941000D01*
X59173000Y35941000D02*
X56134000Y35941000D01*
X56134000Y35941000D02*
X55753000Y36322000D01*
X10270000Y59436000D02*
X8500000Y59436000D01*
X8500000Y59436000D02*
X5461000Y59436000D01*
X5461000Y59436000D02*
X5080000Y59817000D01*
X35348000Y59817000D02*
X34823000Y59817000D01*
X34823000Y59817000D02*
X34298000Y59817000D01*
X34298000Y59817000D02*
X33773000Y59817000D01*
X33773000Y59817000D02*
X30734000Y59817000D01*
X30734000Y59817000D02*
X30353000Y60198000D01*
D25*
X55372000Y59944000D02*
X54822000Y59394000D01*
X54822000Y59394000D02*
X54572000Y59394000D01*
X54572000Y59394000D02*
X54468400Y59394000D01*
X54468400Y59394000D02*
X52149600Y58240500D01*
X52149600Y58240500D02*
X52099800Y58219900D01*
X52099800Y58219900D02*
X51960800Y58212600D01*
X51960800Y58212600D02*
X51499700Y58096800D01*
X51499700Y58096800D02*
X49150800Y57267000D01*
X49150800Y57267000D02*
X47585200Y57267000D01*
X47585200Y57267000D02*
X36004100Y58697000D01*
X36004100Y58697000D02*
X35348000Y59353100D01*
X35348000Y59353100D02*
X35348000Y59817000D01*
X20127100Y52697700D02*
X20532000Y45988600D01*
X20532000Y45988600D02*
X20532000Y45885000D01*
X20532000Y45885000D02*
X20532000Y45635000D01*
X20532000Y45635000D02*
X21082000Y45085000D01*
X59698000Y35941000D02*
X59698000Y31553000D01*
X59698000Y31553000D02*
X59698000Y31303000D01*
X59698000Y31303000D02*
X59436000Y30353000D01*
X10270000Y59436000D02*
X10270000Y59384200D01*
X10270000Y59384200D02*
X10380200Y57578200D01*
X20127100Y52697700D02*
X25768200Y56286500D01*
X25768200Y56286500D02*
X29656600Y59148000D01*
X29656600Y59148000D02*
X29803000Y59294400D01*
X29803000Y59294400D02*
X29803000Y59398000D01*
X29803000Y59398000D02*
X29803000Y59648000D01*
X29803000Y59648000D02*
X30353000Y60198000D01*
X5908000Y54229000D02*
X5908000Y54629000D01*
X5908000Y54629000D02*
X10380200Y57578200D01*
X20127100Y52697700D02*
X10380200Y57578200D01*
G04 #@! TO.N,/Q129*
X5830100Y85090000D02*
X6380100Y84140000D01*
X6380100Y84140000D02*
X6380100Y83890000D01*
X6380100Y83890000D02*
X6380100Y83786400D01*
X6380100Y83786400D02*
X6526500Y83640000D01*
X6526500Y83640000D02*
X7404000Y82763300D01*
X7404000Y82763300D02*
X9036900Y81540500D01*
X9036900Y81540500D02*
X9207700Y81438100D01*
X9207700Y81438100D02*
X11296800Y80542500D01*
X11296800Y80542500D02*
X15522500Y78731400D01*
X15522500Y78731400D02*
X16438000Y78352000D01*
X16438000Y78352000D02*
X16541300Y78318300D01*
X16541300Y78318300D02*
X17135400Y78168800D01*
X17135400Y78168800D02*
X17315400Y78140000D01*
X17315400Y78140000D02*
X23095000Y77216000D01*
X23095000Y77216000D02*
X23495000Y77216000D01*
G04 #@! TO.N,/Q133*
X15990100Y85090000D02*
X15990100Y84690000D01*
X15990100Y84690000D02*
X15990100Y83909200D01*
X15990100Y83909200D02*
X16183100Y83443100D01*
X16183100Y83443100D02*
X17283200Y82343000D01*
X17283200Y82343000D02*
X17749300Y82150000D01*
X17749300Y82150000D02*
X22736100Y81408300D01*
X22736100Y81408300D02*
X24881500Y81408300D01*
X24881500Y81408300D02*
X35926300Y81147000D01*
X35926300Y81147000D02*
X37674700Y81023900D01*
X37674700Y81023900D02*
X37803500Y80970600D01*
X37803500Y80970600D02*
X38181000Y80593700D01*
X38181000Y80593700D02*
X38466200Y80421100D01*
X38466200Y80421100D02*
X40076200Y79159100D01*
X40076200Y79159100D02*
X40086300Y79151800D01*
X40086300Y79151800D02*
X40521000Y78891500D01*
X40521000Y78891500D02*
X40527600Y78888100D01*
X40527600Y78888100D02*
X41344000Y78549700D01*
X41344000Y78549700D02*
X47841900Y76327000D01*
X47841900Y76327000D02*
X49694100Y76327000D01*
X49694100Y76327000D02*
X50438000Y75583100D01*
X50438000Y75583100D02*
X50718000Y73100900D01*
X50718000Y73100900D02*
X50718000Y62940900D01*
X50718000Y62940900D02*
X50718000Y61773100D01*
X50718000Y61773100D02*
X50675700Y61670900D01*
X50675700Y61670900D02*
X49168000Y59817000D01*
X49168000Y59817000D02*
X48768000Y59817000D01*
D22*
G04 #@! TO.N,Net-(A2-Pad3)*
X36068000Y72517000D02*
X34309000Y72517000D01*
X34309000Y72517000D02*
X30753000Y76073000D01*
X30753000Y76073000D02*
X30353000Y76073000D01*
G04 #@! TO.N,Net-(A2-Pad4)*
X36068000Y69977000D02*
X34309000Y69977000D01*
X34309000Y69977000D02*
X30753000Y73533000D01*
X30753000Y73533000D02*
X30353000Y73533000D01*
G04 #@! TO.N,Net-(A2-Pad5)*
X36068000Y67437000D02*
X34309000Y67437000D01*
X34309000Y67437000D02*
X30753000Y70993000D01*
X30753000Y70993000D02*
X30353000Y70993000D01*
G04 #@! TO.N,Net-(A2-Pad6)*
X36068000Y64897000D02*
X33909000Y64897000D01*
X33909000Y64897000D02*
X30353000Y68453000D01*
D25*
G04 #@! TO.N,/Q131*
X10910100Y85090000D02*
X10910100Y84690000D01*
X10910100Y84690000D02*
X12764000Y83182300D01*
X12764000Y83182300D02*
X16827700Y81438100D01*
X16827700Y81438100D02*
X17429900Y81188500D01*
X17429900Y81188500D02*
X17622900Y81140000D01*
X17622900Y81140000D02*
X22623600Y80497700D01*
X22623600Y80497700D02*
X24769000Y80497700D01*
X24769000Y80497700D02*
X37412400Y80212700D01*
X37412400Y80212700D02*
X37678100Y79949400D01*
X37678100Y79949400D02*
X38006600Y79733300D01*
X38006600Y79733300D02*
X39474300Y78453800D01*
X39474300Y78453800D02*
X39576300Y78379800D01*
X39576300Y78379800D02*
X40073200Y78082300D01*
X40073200Y78082300D02*
X40140500Y78048000D01*
X40140500Y78048000D02*
X41023400Y77682000D01*
X41023400Y77682000D02*
X47587200Y75057000D01*
X47587200Y75057000D02*
X48368000Y75057000D01*
X48368000Y75057000D02*
X48768000Y75057000D01*
G04 #@! TO.N,/Q132*
X13450100Y85090000D02*
X13450100Y85490000D01*
X13450100Y85490000D02*
X15464000Y86760000D01*
X15464000Y86760000D02*
X16516200Y86760000D01*
X16516200Y86760000D02*
X17260100Y86016100D01*
X17260100Y86016100D02*
X17260100Y84163900D01*
X17260100Y84163900D02*
X18004000Y83420000D01*
X18004000Y83420000D02*
X22862900Y82318900D01*
X22862900Y82318900D02*
X24994100Y82318900D01*
X24994100Y82318900D02*
X36049900Y82147000D01*
X36049900Y82147000D02*
X37836100Y81835100D01*
X37836100Y81835100D02*
X38263000Y81658300D01*
X38263000Y81658300D02*
X38678400Y81244000D01*
X38678400Y81244000D02*
X38964600Y81070300D01*
X38964600Y81070300D02*
X40652500Y79890300D01*
X40652500Y79890300D02*
X40941100Y79717300D01*
X40941100Y79717300D02*
X41638200Y79428300D01*
X41638200Y79428300D02*
X48368000Y77597000D01*
X48368000Y77597000D02*
X48768000Y77597000D01*
G04 #@! TO.N,/Q135*
X53041300Y53260500D02*
X53730000Y53450800D01*
X53730000Y53450800D02*
X54456400Y53577900D01*
X54456400Y53577900D02*
X54937600Y53577900D01*
X54937600Y53577900D02*
X56472700Y53567800D01*
X56472700Y53567800D02*
X56554400Y53567800D01*
X56554400Y53567800D02*
X60541900Y49911000D01*
X60541900Y49911000D02*
X61341900Y49911000D01*
X61341900Y49911000D02*
X62394100Y49911000D01*
X62394100Y49911000D02*
X73768000Y53721000D01*
X73768000Y53721000D02*
X74168000Y53721000D01*
X21070100Y85090000D02*
X21070100Y84690000D01*
X21070100Y84690000D02*
X22974700Y83258100D01*
X22974700Y83258100D02*
X23044000Y83229400D01*
X23044000Y83229400D02*
X25067100Y83229400D01*
X25067100Y83229400D02*
X36173500Y83147000D01*
X36173500Y83147000D02*
X36596000Y83040900D01*
X36596000Y83040900D02*
X38080600Y82612500D01*
X38080600Y82612500D02*
X38641200Y82380000D01*
X38641200Y82380000D02*
X38760400Y82308600D01*
X38760400Y82308600D02*
X39137900Y81931700D01*
X39137900Y81931700D02*
X41225500Y80624500D01*
X41225500Y80624500D02*
X41357900Y80545100D01*
X41357900Y80545100D02*
X41929100Y80308300D01*
X41929100Y80308300D02*
X42078800Y80270700D01*
X42078800Y80270700D02*
X47017400Y79126300D01*
X47017400Y79126300D02*
X49747800Y79126300D01*
X49747800Y79126300D02*
X49842400Y79087100D01*
X49842400Y79087100D02*
X50658100Y78271400D01*
X50658100Y78271400D02*
X51523400Y76309500D01*
X51523400Y76309500D02*
X51718000Y75839800D01*
X51718000Y75839800D02*
X51718000Y63139800D01*
X51718000Y63139800D02*
X51718000Y61574200D01*
X51718000Y61574200D02*
X51544200Y59627500D01*
G04 #@! TO.N,/Q134*
X18530100Y85090000D02*
X18530100Y85490000D01*
X18530100Y85490000D02*
X18530100Y86270800D01*
X18530100Y86270800D02*
X18337100Y86736900D01*
X18337100Y86736900D02*
X17237000Y87837000D01*
X17237000Y87837000D02*
X10384000Y91040000D01*
X10384000Y91040000D02*
X9640100Y91783900D01*
X9640100Y91783900D02*
X9640100Y93636100D01*
X9640100Y93636100D02*
X8896200Y94380000D01*
X8896200Y94380000D02*
X7082600Y95465400D01*
X7082600Y95465400D02*
X6612900Y95660000D01*
X6612900Y95660000D02*
X5047300Y95660000D01*
X5047300Y95660000D02*
X4577600Y95465400D01*
X4577600Y95465400D02*
X3474700Y94362500D01*
X3474700Y94362500D02*
X3280100Y93892800D01*
X3280100Y93892800D02*
X2130000Y77115700D01*
X2130000Y77115700D02*
X1552000Y49046700D01*
X1552000Y49046700D02*
X1552000Y5792700D01*
X1552000Y5792700D02*
X1552000Y4545300D01*
X1552000Y4545300D02*
X1624800Y4369600D01*
X1624800Y4369600D02*
X2901200Y3093200D01*
X2901200Y3093200D02*
X3779000Y2215400D01*
X3779000Y2215400D02*
X4564200Y1536500D01*
X4564200Y1536500D02*
X4712300Y1475200D01*
X4712300Y1475200D02*
X11398300Y1475200D01*
X11398300Y1475200D02*
X12615700Y1475200D01*
X12615700Y1475200D02*
X13665700Y1475200D01*
X13665700Y1475200D02*
X13890100Y1510700D01*
X13890100Y1510700D02*
X50339700Y2965000D01*
X50339700Y2965000D02*
X58183700Y4705000D01*
X58183700Y4705000D02*
X58555000Y5076200D01*
X58555000Y5076200D02*
X59953800Y6475000D01*
X59953800Y6475000D02*
X60686000Y7207200D01*
X60686000Y7207200D02*
X60686000Y8242800D01*
X60686000Y8242800D02*
X60520000Y9316200D01*
X60520000Y9316200D02*
X60520000Y10749800D01*
X60520000Y10749800D02*
X60686000Y11621500D01*
X60686000Y11621500D02*
X61855000Y25672200D01*
X61855000Y25672200D02*
X61903500Y25865200D01*
X61903500Y25865200D02*
X71228000Y49421800D01*
X71228000Y49421800D02*
X71421000Y49887900D01*
X71421000Y49887900D02*
X72521100Y50988000D01*
X72521100Y50988000D02*
X72987200Y51181000D01*
X72987200Y51181000D02*
X73768000Y51181000D01*
X73768000Y51181000D02*
X74168000Y51181000D01*
D22*
G04 #@! TO.N,Net-(A3-Pad6)*
X61468000Y41021000D02*
X58674000Y41021000D01*
X58674000Y41021000D02*
X55118000Y44577000D01*
G04 #@! TO.N,Net-(A3-Pad5)*
X61468000Y43561000D02*
X59074000Y43561000D01*
X59074000Y43561000D02*
X55518000Y47117000D01*
X55518000Y47117000D02*
X55118000Y47117000D01*
G04 #@! TO.N,Net-(A3-Pad4)*
X61468000Y46101000D02*
X59074000Y46101000D01*
X59074000Y46101000D02*
X55518000Y49657000D01*
X55518000Y49657000D02*
X55118000Y49657000D01*
G04 #@! TO.N,Net-(A3-Pad3)*
X61468000Y48641000D02*
X59074000Y48641000D01*
X59074000Y48641000D02*
X55518000Y52197000D01*
X55518000Y52197000D02*
X55118000Y52197000D01*
D25*
G04 #@! TO.N,/Q136*
X78185100Y57788200D02*
X79321600Y56609600D01*
X79321600Y56609600D02*
X79354800Y56529300D01*
X79354800Y56529300D02*
X79354800Y55385300D01*
X79354800Y55385300D02*
X79305500Y55251200D01*
X79305500Y55251200D02*
X79305500Y54199000D01*
X79305500Y54199000D02*
X80049400Y53455100D01*
X80049400Y53455100D02*
X81901600Y53455100D01*
X81901600Y53455100D02*
X82645500Y52711200D01*
X82645500Y52711200D02*
X82645500Y51659000D01*
X82645500Y51659000D02*
X81901600Y50915100D01*
X81901600Y50915100D02*
X80849400Y50915100D01*
X80849400Y50915100D02*
X80049400Y50915100D01*
X80049400Y50915100D02*
X79981400Y50942300D01*
X79981400Y50942300D02*
X79569600Y50942300D01*
X79569600Y50942300D02*
X79278300Y50651000D01*
X79278300Y50651000D02*
X78888300Y50213500D01*
X78888300Y50213500D02*
X78231100Y49555700D01*
X78231100Y49555700D02*
X78095000Y49390400D01*
X78095000Y49390400D02*
X78095000Y48723200D01*
X78095000Y48723200D02*
X78118000Y47008200D01*
X78118000Y47008200D02*
X78118000Y44468200D01*
X78118000Y44468200D02*
X78118000Y42653800D01*
X78118000Y42653800D02*
X78069500Y42460800D01*
X78069500Y42460800D02*
X77819900Y41858600D01*
X77819900Y41858600D02*
X76075700Y37794900D01*
X76075700Y37794900D02*
X74568000Y35941000D01*
X74568000Y35941000D02*
X74168000Y35941000D01*
X58197900Y83993600D02*
X58197900Y84393600D01*
X58197900Y84393600D02*
X60051800Y85901300D01*
X60051800Y85901300D02*
X60154000Y85943600D01*
X60154000Y85943600D02*
X61321800Y85943600D01*
X61321800Y85943600D02*
X66187800Y85354000D01*
X66187800Y85354000D02*
X70433900Y84354000D01*
X70433900Y84354000D02*
X70536100Y84311700D01*
X70536100Y84311700D02*
X71357700Y83490100D01*
X71357700Y83490100D02*
X71400000Y83387900D01*
X71400000Y83387900D02*
X71400000Y82220100D01*
X71400000Y82220100D02*
X70837000Y78125800D01*
X70837000Y78125800D02*
X70837000Y76560200D01*
X70837000Y76560200D02*
X71031600Y76090500D01*
X71031600Y76090500D02*
X72117000Y74276900D01*
X72117000Y74276900D02*
X72860900Y73533000D01*
X72860900Y73533000D02*
X74713100Y73533000D01*
X74713100Y73533000D02*
X75457000Y72789100D01*
X75457000Y72789100D02*
X75737000Y70306900D01*
X75737000Y70306900D02*
X75737000Y67766900D01*
X75737000Y67766900D02*
X75737000Y66599100D01*
X75737000Y66599100D02*
X75595100Y65148500D01*
X75595100Y65148500D02*
X75595200Y64087300D01*
X75595200Y64087300D02*
X75572300Y63431900D01*
X75572300Y63431900D02*
X75572300Y63055500D01*
G04 #@! TO.N,/Q138*
X58197900Y91613600D02*
X58197900Y92013600D01*
X58197900Y92013600D02*
X59252700Y93097400D01*
X59252700Y93097400D02*
X59654100Y93498800D01*
X59654100Y93498800D02*
X60221700Y93498800D01*
X60221700Y93498800D02*
X61571700Y93498800D01*
X61571700Y93498800D02*
X61803700Y93455400D01*
X61803700Y93455400D02*
X62179700Y93079400D01*
X62179700Y93079400D02*
X62179700Y92097000D01*
X62179700Y92097000D02*
X62212600Y91966000D01*
X62212600Y91966000D02*
X62443900Y91408000D01*
X62443900Y91408000D02*
X62513400Y91292100D01*
X62513400Y91292100D02*
X63733100Y90072400D01*
X63733100Y90072400D02*
X63849000Y90002900D01*
X63849000Y90002900D02*
X71552400Y86055900D01*
X71552400Y86055900D02*
X71723200Y85953500D01*
X71723200Y85953500D02*
X72999500Y84677200D01*
X72999500Y84677200D02*
X73101900Y84506400D01*
X73101900Y84506400D02*
X73351500Y83904200D01*
X73351500Y83904200D02*
X73400000Y83711200D01*
X73400000Y83711200D02*
X73400000Y77343000D01*
X73400000Y77343000D02*
X73787000Y77343000D01*
G04 #@! TO.N,/Q137*
X60737900Y91613600D02*
X61287900Y90663600D01*
X61287900Y90663600D02*
X61537900Y90663600D01*
X61537900Y90663600D02*
X61641500Y90663600D01*
X61641500Y90663600D02*
X63076700Y89231300D01*
X63076700Y89231300D02*
X63371500Y89054600D01*
X63371500Y89054600D02*
X71102500Y85159400D01*
X71102500Y85159400D02*
X72205400Y84056500D01*
X72205400Y84056500D02*
X72400000Y83586800D01*
X72400000Y83586800D02*
X72400000Y82021200D01*
X72400000Y82021200D02*
X71837000Y77926900D01*
X71837000Y77926900D02*
X71837000Y76759100D01*
X71837000Y76759100D02*
X71879300Y76656900D01*
X71879300Y76656900D02*
X73387000Y74803000D01*
X73387000Y74803000D02*
X73787000Y74803000D01*
D22*
G04 #@! TO.N,Net-(A4-Pad6)*
X61087000Y64643000D02*
X58928000Y64643000D01*
X58928000Y64643000D02*
X55372000Y68199000D01*
G04 #@! TO.N,Net-(A4-Pad5)*
X61087000Y67183000D02*
X59328000Y67183000D01*
X59328000Y67183000D02*
X55772000Y70739000D01*
X55772000Y70739000D02*
X55372000Y70739000D01*
G04 #@! TO.N,Net-(A4-Pad4)*
X61087000Y69723000D02*
X59328000Y69723000D01*
X59328000Y69723000D02*
X55772000Y73279000D01*
X55772000Y73279000D02*
X55372000Y73279000D01*
G04 #@! TO.N,Net-(A4-Pad3)*
X61087000Y72263000D02*
X59328000Y72263000D01*
X59328000Y72263000D02*
X55772000Y75819000D01*
X55772000Y75819000D02*
X55372000Y75819000D01*
D25*
G04 #@! TO.N,/Q139*
X55657900Y91613600D02*
X55657900Y92013600D01*
X55657900Y92013600D02*
X57511800Y93521300D01*
X57511800Y93521300D02*
X59211900Y94381000D01*
X59211900Y94381000D02*
X59340000Y94434000D01*
X59340000Y94434000D02*
X60535800Y94434000D01*
X60535800Y94434000D02*
X61885800Y94434000D01*
X61885800Y94434000D02*
X62118500Y94347200D01*
X62118500Y94347200D02*
X62214700Y94307400D01*
X62214700Y94307400D02*
X63031700Y93490400D01*
X63031700Y93490400D02*
X63071500Y93394200D01*
X63071500Y93394200D02*
X63071500Y93144200D01*
X63071500Y93144200D02*
X63071400Y92224200D01*
X63071400Y92224200D02*
X63233000Y91834000D01*
X63233000Y91834000D02*
X64275000Y90792000D01*
X64275000Y90792000D02*
X72003300Y86951500D01*
X72003300Y86951500D02*
X72343100Y86747800D01*
X72343100Y86747800D02*
X73793800Y85297100D01*
X73793800Y85297100D02*
X73997500Y84957300D01*
X73997500Y84957300D02*
X74303500Y84219000D01*
X74303500Y84219000D02*
X74400000Y83834800D01*
X74400000Y83834800D02*
X75737000Y77926900D01*
X75737000Y77926900D02*
X76737000Y73045800D01*
X76737000Y73045800D02*
X76737000Y67965800D01*
X76737000Y67965800D02*
X76737000Y66400200D01*
X76737000Y66400200D02*
X76453300Y64978900D01*
X76453300Y64978900D02*
X76453300Y63916600D01*
X76453300Y63916600D02*
X76452800Y62690800D01*
X76452800Y62690800D02*
X76312200Y62547600D01*
X76312200Y62547600D02*
X75599300Y61480600D01*
X75599300Y61480600D02*
X74187000Y59563000D01*
X74187000Y59563000D02*
X73787000Y59563000D01*
G04 #@! TO.N,/BED_T*
X111125000Y43740000D02*
X111525000Y43740000D01*
X111525000Y43740000D02*
X113032700Y41886100D01*
X113032700Y41886100D02*
X113075000Y41783900D01*
X113075000Y41783900D02*
X113903200Y39408600D01*
X113903200Y39408600D02*
X113983200Y39120200D01*
X113983200Y39120200D02*
X114425700Y37613400D01*
X114425700Y37613400D02*
X114425700Y36013400D01*
X114425700Y36013400D02*
X114425700Y34626600D01*
X114425700Y34626600D02*
X114425700Y34576800D01*
X114425700Y34576800D02*
X114261500Y34180400D01*
X114261500Y34180400D02*
X100792200Y16424900D01*
X100792200Y16424900D02*
X98908700Y14580700D01*
X98908700Y14580700D02*
X92753900Y12937700D01*
X92753900Y12937700D02*
X92136400Y12480000D01*
X92136400Y12480000D02*
X91990000Y12333600D01*
X91990000Y12333600D02*
X91990000Y12230000D01*
X91990000Y12230000D02*
X91990000Y11980000D01*
X91990000Y11980000D02*
X91440000Y11430000D01*
X80645000Y14605000D02*
X85141100Y13055000D01*
X85141100Y13055000D02*
X90536400Y11980000D01*
X90536400Y11980000D02*
X90640000Y11980000D01*
X90640000Y11980000D02*
X90890000Y11980000D01*
X90890000Y11980000D02*
X91440000Y11430000D01*
X91440000Y11430000D02*
X91122500Y10880000D01*
X91122500Y10880000D02*
X91122500Y10630000D01*
X91122500Y10630000D02*
X91122500Y6280000D01*
X91122500Y6280000D02*
X91122500Y6030000D01*
X91122500Y6030000D02*
X90805000Y5080000D01*
G04 #@! TO.N,/NOZZLE_T*
X99695000Y11430000D02*
X100245000Y11980000D01*
X100245000Y11980000D02*
X100245000Y12230000D01*
X100245000Y12230000D02*
X100245000Y12333600D01*
X100245000Y12333600D02*
X114774700Y33344400D01*
X114774700Y33344400D02*
X114893800Y33543100D01*
X114893800Y33543100D02*
X115152800Y34167800D01*
X115152800Y34167800D02*
X115209200Y34392400D01*
X115209200Y34392400D02*
X115209200Y34495100D01*
X115209200Y34495100D02*
X115209200Y36144900D01*
X115209200Y36144900D02*
X115209200Y37744900D01*
X115209200Y37744900D02*
X114817300Y39535300D01*
X114817300Y39535300D02*
X114781200Y39679100D01*
X114781200Y39679100D02*
X114075000Y41982800D01*
X114075000Y41982800D02*
X113880400Y42452500D01*
X113880400Y42452500D02*
X112795000Y44266100D01*
X112795000Y44266100D02*
X112051100Y45010000D01*
X112051100Y45010000D02*
X111251100Y45010000D01*
X111251100Y45010000D02*
X110198900Y45010000D01*
X110198900Y45010000D02*
X109455000Y44266100D01*
X109455000Y44266100D02*
X109455000Y43213900D01*
X109455000Y43213900D02*
X110725000Y41200000D01*
X110725000Y41200000D02*
X111125000Y41200000D01*
X85725000Y14605000D02*
X94200000Y21682900D01*
X94200000Y21682900D02*
X112770800Y33797800D01*
X112770800Y33797800D02*
X113597200Y34624200D01*
X113597200Y34624200D02*
X113642100Y34732700D01*
X113642100Y34732700D02*
X113642100Y34782400D01*
X113642100Y34782400D02*
X113642100Y35857600D01*
X113642100Y35857600D02*
X113642100Y37457600D01*
X113642100Y37457600D02*
X113113500Y38830800D01*
X113113500Y38830800D02*
X113112300Y38834400D01*
X113112300Y38834400D02*
X112989100Y39226800D01*
X112989100Y39226800D02*
X112959900Y39297400D01*
X112959900Y39297400D02*
X111525000Y41200000D01*
X111525000Y41200000D02*
X111125000Y41200000D01*
X99695000Y11430000D02*
X99695000Y10880000D01*
X99695000Y10880000D02*
X99695000Y10630000D01*
X99695000Y10630000D02*
X99695000Y6280000D01*
X99695000Y6280000D02*
X99695000Y6030000D01*
X99695000Y6030000D02*
X99695000Y5080000D01*
G04 #@! TO.N,/X_MIN*
X62738000Y10033000D02*
X63712000Y6510600D01*
X63712000Y6510600D02*
X63712000Y6407000D01*
X63712000Y6407000D02*
X63712000Y6157000D01*
X63712000Y6157000D02*
X64262000Y5207000D01*
X65405000Y14605000D02*
X62738000Y10033000D01*
X111125000Y46280000D02*
X111525000Y46280000D01*
X111525000Y46280000D02*
X112305800Y46280000D01*
X112305800Y46280000D02*
X112771900Y46087000D01*
X112771900Y46087000D02*
X113872000Y44986900D01*
X113872000Y44986900D02*
X114776900Y42902400D01*
X114776900Y42902400D02*
X115026500Y42300200D01*
X115026500Y42300200D02*
X115651400Y39966900D01*
X115651400Y39966900D02*
X115731400Y39648300D01*
X115731400Y39648300D02*
X115992800Y37841700D01*
X115992800Y37841700D02*
X115992800Y36241700D01*
X115992800Y36241700D02*
X115992800Y34398300D01*
X115992800Y34398300D02*
X115992800Y34295600D01*
X115992800Y34295600D02*
X115898800Y33921100D01*
X115898800Y33921100D02*
X115595600Y33189800D01*
X115595600Y33189800D02*
X105880000Y13226100D01*
X105880000Y13226100D02*
X105880000Y12173900D01*
X105880000Y12173900D02*
X106623900Y11430000D01*
X106623900Y11430000D02*
X108476100Y11430000D01*
X108476100Y11430000D02*
X109220000Y10686100D01*
X109220000Y10686100D02*
X109220000Y9633900D01*
X109220000Y9633900D02*
X108476100Y8890000D01*
X108476100Y8890000D02*
X106623900Y8890000D01*
X106623900Y8890000D02*
X105880000Y8146100D01*
X105880000Y8146100D02*
X103742700Y3993900D01*
X103742700Y3993900D02*
X102921100Y3172300D01*
X102921100Y3172300D02*
X101175300Y2381000D01*
X101175300Y2381000D02*
X101076900Y2340200D01*
X101076900Y2340200D02*
X99913100Y2340200D01*
X99913100Y2340200D02*
X98313100Y2340200D01*
X98313100Y2340200D02*
X97172300Y2550500D01*
X97172300Y2550500D02*
X95606500Y2550500D01*
X95606500Y2550500D02*
X95043900Y2529200D01*
X95043900Y2529200D02*
X94086000Y2340200D01*
X94086000Y2340200D02*
X92186900Y2340200D01*
X92186900Y2340200D02*
X91023100Y2340200D01*
X91023100Y2340200D02*
X89423100Y2340200D01*
X89423100Y2340200D02*
X88703100Y2504300D01*
X88703100Y2504300D02*
X87855000Y2550500D01*
X87855000Y2550500D02*
X79526900Y2550500D01*
X79526900Y2550500D02*
X77961100Y2550500D01*
X77961100Y2550500D02*
X76691900Y2435000D01*
X76691900Y2435000D02*
X76445600Y2403700D01*
X76445600Y2403700D02*
X75400600Y2329600D01*
X75400600Y2329600D02*
X74670000Y2032800D01*
X74670000Y2032800D02*
X74620300Y2032800D01*
X74620300Y2032800D02*
X73283700Y2032800D01*
X73283700Y2032800D02*
X71683700Y2032800D01*
X71683700Y2032800D02*
X71634900Y2037500D01*
X71634900Y2037500D02*
X70141600Y2400500D01*
X70141600Y2400500D02*
X66119800Y2762700D01*
X66119800Y2762700D02*
X65835900Y2880300D01*
X65835900Y2880300D02*
X64958400Y3757000D01*
X64958400Y3757000D02*
X64812000Y3903400D01*
X64812000Y3903400D02*
X64812000Y4007000D01*
X64812000Y4007000D02*
X64812000Y4257000D01*
X64812000Y4257000D02*
X64262000Y5207000D01*
G04 #@! TO.N,/Y_MIN*
X111125000Y48820000D02*
X110725000Y48820000D01*
X110725000Y48820000D02*
X109944200Y48820000D01*
X109944200Y48820000D02*
X109478100Y48627000D01*
X109478100Y48627000D02*
X108378000Y47526900D01*
X108378000Y47526900D02*
X107473100Y45442400D01*
X107473100Y45442400D02*
X107223500Y44840200D01*
X107223500Y44840200D02*
X107175000Y44647200D01*
X107175000Y44647200D02*
X107175000Y42832800D01*
X107175000Y42832800D02*
X107223500Y42639800D01*
X107223500Y42639800D02*
X107473100Y42037600D01*
X107473100Y42037600D02*
X108369600Y39947500D01*
X108369600Y39947500D02*
X109455000Y38133900D01*
X109455000Y38133900D02*
X110198900Y37390000D01*
X110198900Y37390000D02*
X110998900Y37390000D01*
X110998900Y37390000D02*
X112051100Y37390000D01*
X112051100Y37390000D02*
X112119100Y37417200D01*
X112119100Y37417200D02*
X112530900Y37417200D01*
X112530900Y37417200D02*
X112822200Y37125900D01*
X112822200Y37125900D02*
X112858600Y36891000D01*
X112858600Y36891000D02*
X112858600Y35541000D01*
X112858600Y35541000D02*
X112858600Y35099000D01*
X112858600Y35099000D02*
X112825000Y35009300D01*
X112825000Y35009300D02*
X112385700Y34570000D01*
X112385700Y34570000D02*
X88264400Y24166400D01*
X88264400Y24166400D02*
X88119100Y24106200D01*
X88119100Y24106200D02*
X87223400Y24106200D01*
X87223400Y24106200D02*
X79440000Y16889300D01*
X79440000Y16889300D02*
X78360700Y15810000D01*
X78360700Y15810000D02*
X78178900Y15371100D01*
X78178900Y15371100D02*
X78178900Y13838900D01*
X78178900Y13838900D02*
X78360700Y13400000D01*
X78360700Y13400000D02*
X79440000Y12320700D01*
X79440000Y12320700D02*
X79878900Y12138900D01*
X79878900Y12138900D02*
X81609900Y11583000D01*
X81609900Y11583000D02*
X81712100Y11540700D01*
X81712100Y11540700D02*
X82533700Y10719100D01*
X82533700Y10719100D02*
X82576000Y10616900D01*
X82576000Y10616900D02*
X82576000Y9449100D01*
X82576000Y9449100D02*
X82533700Y9346900D01*
X82533700Y9346900D02*
X81712100Y8525300D01*
X81712100Y8525300D02*
X81609900Y8483000D01*
X81609900Y8483000D02*
X80442100Y8483000D01*
X80442100Y8483000D02*
X80339900Y8525300D01*
X80339900Y8525300D02*
X79518300Y9346900D01*
X79518300Y9346900D02*
X78354200Y10695300D01*
X78354200Y10695300D02*
X77544300Y11505200D01*
X77544300Y11505200D02*
X77457600Y11541100D01*
X77457600Y11541100D02*
X76306400Y11541100D01*
X76306400Y11541100D02*
X71882000Y10033000D01*
X71882000Y10033000D02*
X70485000Y14605000D01*
X71882000Y10033000D02*
X72602000Y6510600D01*
X72602000Y6510600D02*
X72602000Y6407000D01*
X72602000Y6407000D02*
X72602000Y6157000D01*
X72602000Y6157000D02*
X73152000Y5207000D01*
G04 #@! TO.N,/Z_MIN*
X81026000Y10033000D02*
X78849800Y11555400D01*
X78849800Y11555400D02*
X78087000Y12317300D01*
X78087000Y12317300D02*
X75565000Y14605000D01*
X75565000Y14605000D02*
X71068900Y16155000D01*
X71068900Y16155000D02*
X69901100Y16155000D01*
X69901100Y16155000D02*
X69124900Y16093200D01*
X85725000Y74220000D02*
X85325000Y74220000D01*
X85325000Y74220000D02*
X83817300Y72366100D01*
X83817300Y72366100D02*
X78169600Y64361900D01*
X69124900Y16093200D02*
X66230300Y10719100D01*
X66230300Y10719100D02*
X66188000Y10616900D01*
X66188000Y10616900D02*
X65559200Y6201100D01*
X65559200Y6201100D02*
X65532000Y6133100D01*
X65532000Y6133100D02*
X65532000Y5333100D01*
X65532000Y5333100D02*
X65532000Y4280900D01*
X65532000Y4280900D02*
X66275900Y3537000D01*
X66275900Y3537000D02*
X70267900Y3325500D01*
X70267900Y3325500D02*
X70418100Y3287800D01*
X70418100Y3287800D02*
X71783100Y2782400D01*
X71783100Y2782400D02*
X71841400Y2774200D01*
X71841400Y2774200D02*
X73441400Y2774200D01*
X73441400Y2774200D02*
X74462600Y2774200D01*
X74462600Y2774200D02*
X74639000Y2851000D01*
X74639000Y2851000D02*
X75180200Y3075400D01*
X75180200Y3075400D02*
X75287800Y3102400D01*
X75287800Y3102400D02*
X76566000Y3377300D01*
X76566000Y3377300D02*
X81138400Y4257000D01*
X81138400Y4257000D02*
X81242000Y4257000D01*
X81242000Y4257000D02*
X81492000Y4257000D01*
X81492000Y4257000D02*
X82042000Y5207000D01*
X69124900Y16093200D02*
X63897300Y24078900D01*
X63897300Y24078900D02*
X63855000Y24181100D01*
X63855000Y24181100D02*
X63855000Y25348900D01*
X63855000Y25348900D02*
X63897300Y25451100D01*
X63897300Y25451100D02*
X72498000Y41547100D01*
X72498000Y41547100D02*
X73241900Y42291000D01*
X73241900Y42291000D02*
X75094100Y42291000D01*
X75094100Y42291000D02*
X75838000Y43034900D01*
X75838000Y43034900D02*
X76118000Y45517100D01*
X76118000Y45517100D02*
X76484500Y49812900D01*
X76484500Y49812900D02*
X76658600Y50233300D01*
X76658600Y50233300D02*
X76877500Y50521900D01*
X76877500Y50521900D02*
X77537200Y51182200D01*
X77537200Y51182200D02*
X77593200Y51317500D01*
X77593200Y51317500D02*
X77789900Y55537800D01*
X77789900Y55537800D02*
X77864400Y55957300D01*
G04 #@! TO.N,+5V*
X82219800Y82619600D02*
X79241200Y85606900D01*
X79241200Y85606900D02*
X79037500Y85946700D01*
X79037500Y85946700D02*
X78526900Y87006100D01*
X78526900Y87006100D02*
X78375000Y87372900D01*
X78375000Y87372900D02*
X78105000Y88100000D01*
X78105000Y88100000D02*
X78105000Y88900000D01*
X111125000Y81840000D02*
X110725000Y81840000D01*
X110725000Y81840000D02*
X108648400Y81942800D01*
X108648400Y81942800D02*
X91484500Y84655500D01*
X91484500Y84655500D02*
X90656100Y84655500D01*
X90656100Y84655500D02*
X87140000Y83646500D01*
X87140000Y83646500D02*
X86755800Y83550000D01*
X86755800Y83550000D02*
X84741100Y83390000D01*
X84741100Y83390000D02*
X82219800Y82619600D01*
X107950000Y5080000D02*
X107150000Y5080000D01*
X107150000Y5080000D02*
X103487500Y2324600D01*
X103487500Y2324600D02*
X103017800Y2130000D01*
X103017800Y2130000D02*
X101254900Y1445200D01*
X101254900Y1445200D02*
X99735100Y1445200D01*
X99735100Y1445200D02*
X98094800Y1445200D01*
X98094800Y1445200D02*
X96973400Y1550500D01*
X96973400Y1550500D02*
X95805400Y1550500D01*
X95805400Y1550500D02*
X95240700Y1539800D01*
X95240700Y1539800D02*
X94213200Y1445200D01*
X94213200Y1445200D02*
X92364900Y1445200D01*
X92364900Y1445200D02*
X90845100Y1445200D01*
X90845100Y1445200D02*
X89204800Y1445200D01*
X89204800Y1445200D02*
X88508800Y1527400D01*
X88508800Y1527400D02*
X87656100Y1550500D01*
X87656100Y1550500D02*
X79328000Y1550500D01*
X79328000Y1550500D02*
X78160000Y1550500D01*
X78160000Y1550500D02*
X76879300Y1492700D01*
X76879300Y1492700D02*
X76572000Y1477000D01*
X76572000Y1477000D02*
X75550200Y1477000D01*
X75550200Y1477000D02*
X74786900Y1291500D01*
X74786900Y1291500D02*
X74756000Y1291500D01*
X74756000Y1291500D02*
X73148000Y1291500D01*
X73148000Y1291500D02*
X71548000Y1291500D01*
X71548000Y1291500D02*
X71517300Y1293600D01*
X71517300Y1293600D02*
X69957600Y1475400D01*
X69957600Y1475400D02*
X68835800Y1477000D01*
X68835800Y1477000D02*
X65922000Y1477000D01*
X65922000Y1477000D02*
X65771000Y1514900D01*
X65771000Y1514900D02*
X65198800Y1752200D01*
X65198800Y1752200D02*
X65065200Y1832200D01*
X65065200Y1832200D02*
X63151300Y3257000D01*
X63151300Y3257000D02*
X62712000Y3696300D01*
X62712000Y3696300D02*
X61686000Y8448100D01*
X61686000Y8448100D02*
X61547700Y8945700D01*
X61547700Y8945700D02*
X61354000Y9482100D01*
X61354000Y9482100D02*
X61354000Y10583900D01*
X61354000Y10583900D02*
X61686000Y11416200D01*
X61686000Y11416200D02*
X62855000Y25547800D01*
X62855000Y25547800D02*
X72498000Y49167100D01*
X72498000Y49167100D02*
X73241900Y49911000D01*
X73241900Y49911000D02*
X75094100Y49911000D01*
X75094100Y49911000D02*
X76292900Y51099300D01*
X76292900Y51099300D02*
X76773200Y51579600D01*
X76773200Y51579600D02*
X76773200Y52259000D01*
X76773200Y52259000D02*
X76351100Y53385800D01*
X76351100Y53385800D02*
X76266200Y53724100D01*
X76266200Y53724100D02*
X76250500Y54576900D01*
X74099300Y57768000D02*
X74238200Y57904700D01*
X74238200Y57904700D02*
X74711100Y58297600D01*
X74711100Y58297600D02*
X75452400Y59038900D01*
X75452400Y59038900D02*
X76856300Y61742800D01*
X76856300Y61742800D02*
X77011500Y62001700D01*
X77011500Y62001700D02*
X77258800Y62250000D01*
X77258800Y62250000D02*
X77333200Y62429600D01*
X77333200Y62429600D02*
X77333200Y63681400D01*
X77333200Y63681400D02*
X77311400Y64006400D01*
X77311400Y64006400D02*
X77311400Y64717400D01*
X77311400Y64717400D02*
X77688500Y66082800D01*
X77688500Y66082800D02*
X82219800Y82619600D01*
X45908000Y54229000D02*
X45908000Y53829000D01*
X45908000Y53829000D02*
X31242000Y45085000D01*
X45908000Y54229000D02*
X45908000Y54629000D01*
X45908000Y54629000D02*
X49752800Y55600900D01*
X49752800Y55600900D02*
X51409700Y56507000D01*
X51409700Y56507000D02*
X52360500Y56812300D01*
X52360500Y56812300D02*
X52413200Y56825500D01*
X52413200Y56825500D02*
X53370800Y57182000D01*
X53370800Y57182000D02*
X54592800Y57569100D01*
X54592800Y57569100D02*
X55000900Y57671500D01*
X55000900Y57671500D02*
X57093100Y57671500D01*
X57093100Y57671500D02*
X57364100Y57671500D01*
X57364100Y57671500D02*
X59987600Y57432300D01*
X59987600Y57432300D02*
X60787600Y57432300D01*
X60787600Y57432300D02*
X62186400Y57432300D01*
X62186400Y57432300D02*
X67510900Y58323000D01*
X67510900Y58323000D02*
X69140300Y58323000D01*
X69140300Y58323000D02*
X69190300Y58310400D01*
X69190300Y58310400D02*
X69690600Y58103000D01*
X69690600Y58103000D02*
X69734800Y58076500D01*
X69734800Y58076500D02*
X70745800Y57067600D01*
X70745800Y57067600D02*
X71326000Y57067600D01*
X71326000Y57067600D02*
X71586700Y57265300D01*
X71586700Y57265300D02*
X71841500Y57418000D01*
X71841500Y57418000D02*
X72511300Y57695700D01*
X72511300Y57695700D02*
X72799400Y57768000D01*
X72799400Y57768000D02*
X74099300Y57768000D01*
D24*
G04 #@! TO.N,+24V2*
X16257000Y15240000D02*
X19177000Y15240000D01*
X19177000Y15240000D02*
X26162000Y8255000D01*
D23*
G04 #@! TO.N,Net-(J10-Pad2)*
X41402000Y19050000D02*
X41402000Y12943000D01*
X41402000Y12943000D02*
X43862000Y10483000D01*
X43862000Y10483000D02*
X43862000Y10093000D01*
X43862000Y10093000D02*
X43862000Y8255000D01*
D24*
G04 #@! TO.N,Net-(J11-Pad2)*
X31162000Y8255000D02*
X31162000Y10093000D01*
X31162000Y10093000D02*
X28702000Y12553000D01*
X28702000Y12553000D02*
X28702000Y16350000D01*
D23*
X28702000Y16350000D02*
X28702000Y17797000D01*
X28702000Y17797000D02*
X28902000Y17997000D01*
X28902000Y17997000D02*
X28902000Y19050000D01*
D25*
X28702000Y19050000D02*
X28902000Y19050000D01*
D22*
G04 #@! TO.N,Net-(J12-Pad2)*
X54102000Y17145000D02*
X54102000Y21971000D01*
X54102000Y21971000D02*
X56896000Y24765000D01*
X56896000Y24765000D02*
X56896000Y30353000D01*
D25*
G04 #@! TO.N,/BEEPER*
X91070300Y83655500D02*
X88665000Y65819200D01*
X88665000Y65819200D02*
X88472000Y65353100D01*
X88472000Y65353100D02*
X87371900Y64253000D01*
X87371900Y64253000D02*
X86905800Y64060000D01*
X86905800Y64060000D02*
X86125000Y64060000D01*
X86125000Y64060000D02*
X85725000Y64060000D01*
X88265000Y91440000D02*
X88815000Y90890000D01*
X88815000Y90890000D02*
X89065000Y90890000D01*
X89065000Y90890000D02*
X89168600Y90890000D01*
X89168600Y90890000D02*
X89315000Y90743600D01*
X89315000Y90743600D02*
X90145700Y89835300D01*
X90145700Y89835300D02*
X90975300Y88665400D01*
G04 #@! TO.N,/BTN_ENC*
X88265000Y88900000D02*
X88265000Y88100000D01*
X88265000Y88100000D02*
X86411100Y86592300D01*
X86411100Y86592300D02*
X86308900Y86550000D01*
X86308900Y86550000D02*
X85141100Y86550000D01*
X85141100Y86550000D02*
X82658900Y86830000D01*
X82658900Y86830000D02*
X81915000Y87573900D01*
X81915000Y87573900D02*
X81915000Y88626100D01*
X81915000Y88626100D02*
X81915000Y92766100D01*
X81915000Y92766100D02*
X82837800Y93908500D01*
X82837800Y93908500D02*
X84056500Y95127200D01*
X84056500Y95127200D02*
X84171400Y95196100D01*
X84171400Y95196100D02*
X84728700Y95427200D01*
X84728700Y95427200D02*
X84858700Y95459800D01*
X84858700Y95459800D02*
X86629900Y95756600D01*
X86629900Y95756600D02*
X86660800Y95756600D01*
X86660800Y95756600D02*
X88269200Y95756600D01*
X88269200Y95756600D02*
X89916200Y95756600D01*
X89916200Y95756600D02*
X90022700Y95729900D01*
X90022700Y95729900D02*
X110580400Y88921400D01*
X110580400Y88921400D02*
X111107800Y88702800D01*
X111107800Y88702800D02*
X112257000Y88180000D01*
X112257000Y88180000D02*
X113040800Y87686400D01*
X113040800Y87686400D02*
X114325800Y86401400D01*
X114325800Y86401400D02*
X114433200Y86222200D01*
X114433200Y86222200D02*
X115595100Y83954300D01*
X115595100Y83954300D02*
X115896300Y83227800D01*
X115896300Y83227800D02*
X115988600Y82860100D01*
X115988600Y82860100D02*
X115988600Y82751700D01*
X115988600Y82751700D02*
X116027400Y81475900D01*
X116027400Y81475900D02*
X116038700Y81359800D01*
X116038700Y81359800D02*
X116038700Y80203400D01*
X116038700Y80203400D02*
X116038700Y78273700D01*
X116038700Y78273700D02*
X116021500Y77641900D01*
X116021500Y77641900D02*
X116021500Y76965400D01*
X116021500Y76965400D02*
X115992800Y76343900D01*
X115992800Y76343900D02*
X115992800Y70659400D01*
X115992800Y70659400D02*
X115900300Y70290900D01*
X115900300Y70290900D02*
X115763200Y69851000D01*
X115763200Y69851000D02*
X115731400Y68573700D01*
X115731400Y68573700D02*
X115731400Y68151700D01*
X115731400Y68151700D02*
X115559500Y67304200D01*
X115559500Y67304200D02*
X115559500Y65738400D01*
X115559500Y65738400D02*
X115648000Y65331900D01*
X115648000Y65331900D02*
X115648000Y64540100D01*
X115648000Y64540100D02*
X112795000Y60993900D01*
X112795000Y60993900D02*
X112051100Y60250000D01*
X112051100Y60250000D02*
X110198900Y60250000D01*
X110198900Y60250000D02*
X109455000Y59506100D01*
X109455000Y59506100D02*
X109175000Y57023900D01*
X109175000Y57023900D02*
X109175000Y55856100D01*
X109175000Y55856100D02*
X109217300Y55753900D01*
X109217300Y55753900D02*
X110725000Y53900000D01*
X110725000Y53900000D02*
X111125000Y53900000D01*
D26*
G04 #@! TO.N,/BTN_EN1*
X109882400Y85871900D02*
X109720200Y86017900D01*
X109882400Y85871900D02*
X109666000Y85844300D01*
X113753200Y77936800D02*
X113631000Y77756000D01*
X113753200Y77936800D02*
X113810400Y77726200D01*
D25*
X85725000Y91440000D02*
X85725000Y92240000D01*
X85725000Y92240000D02*
X87157800Y93531700D01*
X87157800Y93531700D02*
X87261300Y93531700D01*
X87261300Y93531700D02*
X87668700Y93531700D01*
X87668700Y93531700D02*
X89372200Y93531700D01*
X89372200Y93531700D02*
X90106200Y93063100D01*
X90106200Y93063100D02*
X90563900Y92789000D01*
X90563900Y92789000D02*
X90593000Y92774200D01*
X90593000Y92774200D02*
X91433900Y92425600D01*
X91433900Y92425600D02*
X109653300Y85943500D01*
D26*
X109653300Y85943500D02*
X109975300Y85842800D01*
X109975300Y85842800D02*
X110206100Y85747200D01*
X110206100Y85747200D02*
X110874400Y85432500D01*
X110874400Y85432500D02*
X110944500Y85394000D01*
X110944500Y85394000D02*
X111508100Y85394000D01*
X111508100Y85394000D02*
X112033400Y84868700D01*
X112033400Y84868700D02*
X113695500Y82969000D01*
X113695500Y82969000D02*
X113856900Y82579400D01*
X113856900Y82579400D02*
X113856800Y78560600D01*
X113856800Y78560600D02*
X113713900Y77700000D01*
D25*
X113713900Y77700000D02*
X113713900Y77617400D01*
X113713900Y77617400D02*
X113642100Y76667800D01*
X113642100Y76667800D02*
X113642100Y70983300D01*
X113642100Y70983300D02*
X113113500Y69421400D01*
X113113500Y69421400D02*
X113112300Y69417800D01*
X113112300Y69417800D02*
X112990100Y68932500D01*
X112990100Y68932500D02*
X112989100Y68926300D01*
X112989100Y68926300D02*
X112989100Y68573200D01*
X112989100Y68573200D02*
X112959900Y68502600D01*
X112959900Y68502600D02*
X111525000Y66600000D01*
X111525000Y66600000D02*
X111125000Y66600000D01*
G04 #@! TO.N,/~RESET*
X85725000Y88900000D02*
X87738900Y90170000D01*
X87738900Y90170000D02*
X88791100Y90170000D01*
X88791100Y90170000D02*
X89535000Y89426100D01*
X89535000Y89426100D02*
X89815000Y88683900D01*
X89815000Y88683900D02*
X89975300Y88251200D01*
X89975300Y88251200D02*
X90561100Y87665400D01*
X90561100Y87665400D02*
X92033100Y87655500D01*
X92033100Y87655500D02*
X109239100Y84943500D01*
X109239100Y84943500D02*
X109736000Y84942800D01*
X109736000Y84942800D02*
X110382900Y84661500D01*
X110382900Y84661500D02*
X110491900Y84576600D01*
X110491900Y84576600D02*
X110683600Y84497200D01*
X110683600Y84497200D02*
X111136600Y84497200D01*
X114692200Y64936000D02*
X113313400Y63559100D01*
X113313400Y63559100D02*
X112051100Y62790000D01*
X112051100Y62790000D02*
X110198900Y62790000D01*
X110198900Y62790000D02*
X109022600Y62231900D01*
X109022600Y62231900D02*
X108851800Y62129500D01*
X108851800Y62129500D02*
X107575500Y60853200D01*
X107575500Y60853200D02*
X107473100Y60682400D01*
X107473100Y60682400D02*
X107223500Y60080200D01*
X107223500Y60080200D02*
X107175000Y59887200D01*
X107175000Y59887200D02*
X107175000Y57347200D01*
X107175000Y57347200D02*
X107175000Y55532800D01*
X107175000Y55532800D02*
X107223500Y55339800D01*
X107223500Y55339800D02*
X107473100Y54737600D01*
X107473100Y54737600D02*
X108369600Y52647500D01*
X108369600Y52647500D02*
X109455000Y50833900D01*
X109455000Y50833900D02*
X110198900Y50090000D01*
X110198900Y50090000D02*
X112051100Y50090000D01*
X112051100Y50090000D02*
X112795000Y49346100D01*
X112795000Y49346100D02*
X112795000Y48293900D01*
X112795000Y48293900D02*
X112051100Y47550000D01*
X112051100Y47550000D02*
X110198900Y47550000D01*
X110198900Y47550000D02*
X109455000Y46806100D01*
X109455000Y46806100D02*
X108369600Y44992500D01*
X108369600Y44992500D02*
X108175000Y44522800D01*
X108175000Y44522800D02*
X108175000Y42957200D01*
X108175000Y42957200D02*
X108369600Y42487500D01*
X108369600Y42487500D02*
X109217300Y40513900D01*
X109217300Y40513900D02*
X110725000Y38660000D01*
X110725000Y38660000D02*
X111125000Y38660000D01*
G04 #@! TO.N,/BTN_EN2*
X83185000Y91440000D02*
X83185000Y92240000D01*
X83185000Y92240000D02*
X83395100Y92979000D01*
X83395100Y92979000D02*
X83556200Y93367900D01*
X83556200Y93367900D02*
X84597100Y94408800D01*
X84597100Y94408800D02*
X84986000Y94569900D01*
X84986000Y94569900D02*
X86746800Y95015000D01*
X86746800Y95015000D02*
X86796600Y95015000D01*
X86796600Y95015000D02*
X88133400Y95015000D01*
X88133400Y95015000D02*
X89809100Y95015000D01*
X89809100Y95015000D02*
X110326700Y87943500D01*
X110326700Y87943500D02*
X110594300Y87832700D01*
X110594300Y87832700D02*
X111730200Y87290800D01*
X111730200Y87290800D02*
X112410700Y86898200D01*
X112410700Y86898200D02*
X112420900Y86892100D01*
X112420900Y86892100D02*
X113531500Y85781500D01*
X113531500Y85781500D02*
X114776200Y83792500D01*
X114776200Y83792500D02*
X114891500Y83600100D01*
X114891500Y83600100D02*
X115148400Y82980500D01*
X115148400Y82980500D02*
X115203000Y82763000D01*
X115203000Y82763000D02*
X115203000Y82621600D01*
X115203000Y82621600D02*
X115278100Y81096700D01*
X115278100Y81096700D02*
X115278100Y80466500D01*
X115278100Y80466500D02*
X115278100Y78367700D01*
X115278100Y78367700D02*
X115252300Y77772500D01*
X115252300Y77772500D02*
X115252300Y77118400D01*
X115252300Y77118400D02*
X115209200Y76474100D01*
X115209200Y76474100D02*
X115209200Y70756300D01*
X115209200Y70756300D02*
X115154300Y70537500D01*
X115154300Y70537500D02*
X115007900Y70076800D01*
X115007900Y70076800D02*
X114979600Y69963900D01*
X114979600Y69963900D02*
X114817300Y68700400D01*
X114817300Y68700400D02*
X114817300Y68264700D01*
X114817300Y68264700D02*
X114781200Y68120900D01*
X114781200Y68120900D02*
X113983800Y65835300D01*
X113983800Y65835300D02*
X113803100Y65399100D01*
X113803100Y65399100D02*
X112725900Y64321900D01*
X112725900Y64321900D02*
X112289700Y64141200D01*
X112289700Y64141200D02*
X111525000Y64060000D01*
X111525000Y64060000D02*
X111125000Y64060000D01*
D26*
G04 #@! TO.N,/LCD_D4*
X111550600Y86240200D02*
X111375900Y86370900D01*
X111550600Y86240200D02*
X111337500Y86193100D01*
X114517500Y81021600D02*
X114426600Y80823300D01*
X114517500Y81021600D02*
X114608400Y80823300D01*
X111316000Y86290800D02*
X111750300Y86197200D01*
X111750300Y86197200D02*
X111907600Y86132000D01*
X111907600Y86132000D02*
X112771400Y85268200D01*
X112771400Y85268200D02*
X114231600Y83367500D01*
X114231600Y83367500D02*
X114277500Y83291000D01*
X114277500Y83291000D02*
X114495700Y82764700D01*
X114495700Y82764700D02*
X114517400Y82678200D01*
X114517400Y82678200D02*
X114517500Y80781600D01*
D25*
X114517500Y80781600D02*
X114517400Y78461800D01*
X114517400Y78461800D02*
X114483100Y77867600D01*
X114483100Y77867600D02*
X114483100Y77381400D01*
X114483100Y77381400D02*
X114425700Y76571000D01*
X114425700Y76571000D02*
X114425700Y70853100D01*
X114425700Y70853100D02*
X114408400Y70784100D01*
X114408400Y70784100D02*
X114262000Y70323400D01*
X114262000Y70323400D02*
X114196100Y70060700D01*
X114196100Y70060700D02*
X113903200Y68813300D01*
X113903200Y68813300D02*
X113903200Y68391400D01*
X113903200Y68391400D02*
X113734800Y67984800D01*
X113734800Y67984800D02*
X112795000Y66073900D01*
X112795000Y66073900D02*
X112051100Y65330000D01*
X112051100Y65330000D02*
X110198900Y65330000D01*
X110198900Y65330000D02*
X109455000Y64586100D01*
X109455000Y64586100D02*
X88472000Y42493100D01*
X88472000Y42493100D02*
X87371900Y41393000D01*
X87371900Y41393000D02*
X86905800Y41200000D01*
X86905800Y41200000D02*
X86125000Y41200000D01*
X86125000Y41200000D02*
X85725000Y41200000D01*
X83185000Y88900000D02*
X84455000Y90913900D01*
X84455000Y90913900D02*
X84455000Y92766100D01*
X84455000Y92766100D02*
X85198900Y93510000D01*
X85198900Y93510000D02*
X86954200Y94273300D01*
X86954200Y94273300D02*
X87975800Y94273300D01*
X87975800Y94273300D02*
X89661600Y94273300D01*
X89661600Y94273300D02*
X89787200Y94221300D01*
X89787200Y94221300D02*
X91026200Y93669000D01*
X91026200Y93669000D02*
X91760500Y93364600D01*
X91760500Y93364600D02*
X110067500Y86943500D01*
X110067500Y86943500D02*
X111316000Y86290800D01*
D26*
G04 #@! TO.N,/LCD_RS*
X109788900Y82996400D02*
X109575200Y83039900D01*
X109788900Y82996400D02*
X109616400Y82862900D01*
D25*
X80645000Y91440000D02*
X79375000Y89426100D01*
X79375000Y89426100D02*
X79375000Y88626100D01*
X79375000Y88626100D02*
X79375000Y87573900D01*
X79375000Y87573900D02*
X79933100Y86397600D01*
X79933100Y86397600D02*
X80035500Y86226800D01*
X80035500Y86226800D02*
X81311800Y84950500D01*
X81311800Y84950500D02*
X81482600Y84848100D01*
X81482600Y84848100D02*
X82084800Y84598500D01*
X82084800Y84598500D02*
X82277800Y84550000D01*
X82277800Y84550000D02*
X84817800Y84550000D01*
X84817800Y84550000D02*
X86632200Y84550000D01*
X86632200Y84550000D02*
X86825200Y84598500D01*
X86825200Y84598500D02*
X90396900Y85655500D01*
X90396900Y85655500D02*
X91743700Y85655500D01*
X91743700Y85655500D02*
X108814100Y82943500D01*
X108814100Y82943500D02*
X108907600Y82942800D01*
X108907600Y82942800D02*
X109555200Y82941900D01*
D26*
X109555200Y82941900D02*
X110343800Y83125700D01*
X110343800Y83125700D02*
X111406400Y83125700D01*
X111406400Y83125700D02*
X112026400Y83050600D01*
X112026400Y83050600D02*
X112735600Y82341400D01*
X112735600Y82341400D02*
X112735600Y79801400D01*
X112735600Y79801400D02*
X112735600Y78798600D01*
X112735600Y78798600D02*
X112346600Y78292300D01*
X112346600Y78292300D02*
X112329500Y78251000D01*
X112329500Y78251000D02*
X112299100Y78174400D01*
D25*
X112299100Y78174400D02*
X111563400Y78030000D01*
X111563400Y78030000D02*
X110198900Y78030000D01*
X110198900Y78030000D02*
X86125000Y61520000D01*
X86125000Y61520000D02*
X85725000Y61520000D01*
D26*
G04 #@! TO.N,/LCD_EN*
X109559200Y83907400D02*
X109376400Y84026600D01*
X109559200Y83907400D02*
X109349600Y83846800D01*
X112917800Y77548700D02*
X112778800Y77380500D01*
X112917800Y77548700D02*
X112954400Y77333700D01*
X109321800Y83942800D02*
X110537300Y83761500D01*
X110537300Y83761500D02*
X111532900Y83761500D01*
X111532900Y83761500D02*
X112152900Y83611300D01*
X112152900Y83611300D02*
X112336400Y83535300D01*
X112336400Y83535300D02*
X113220300Y82651400D01*
X113220300Y82651400D02*
X113296300Y82467900D01*
X113296300Y82467900D02*
X113296200Y78672100D01*
X113296200Y78672100D02*
X113220200Y78488600D01*
X113220200Y78488600D02*
X113006500Y77993000D01*
X113006500Y77993000D02*
X113006500Y77881400D01*
X113006500Y77881400D02*
X112855900Y77316800D01*
D25*
X112855900Y77316800D02*
X112858600Y77300900D01*
X112858600Y77300900D02*
X112858600Y74760900D01*
X112858600Y74760900D02*
X112858600Y73679100D01*
X112858600Y73679100D02*
X112795000Y71153900D01*
X112795000Y71153900D02*
X112051100Y70410000D01*
X112051100Y70410000D02*
X110198900Y70410000D01*
X110198900Y70410000D02*
X87371900Y49013000D01*
X87371900Y49013000D02*
X86905800Y48820000D01*
X86905800Y48820000D02*
X86125000Y48820000D01*
X86125000Y48820000D02*
X85725000Y48820000D01*
X80645000Y88900000D02*
X80645000Y88100000D01*
X80645000Y88100000D02*
X80645000Y87319200D01*
X80645000Y87319200D02*
X80838000Y86853100D01*
X80838000Y86853100D02*
X81938100Y85753000D01*
X81938100Y85753000D02*
X82404200Y85560000D01*
X82404200Y85560000D02*
X84942200Y85550000D01*
X84942200Y85550000D02*
X86507800Y85550000D01*
X86507800Y85550000D02*
X90143200Y86633400D01*
X90143200Y86633400D02*
X90231100Y86655500D01*
X90231100Y86655500D02*
X91909500Y86655500D01*
X91909500Y86655500D02*
X108979900Y83943500D01*
X108979900Y83943500D02*
X109321800Y83942800D01*
G04 #@! TO.N,/SD_MISO*
X85725000Y53900000D02*
X85325000Y53900000D01*
X85325000Y53900000D02*
X81375500Y54725100D01*
X81375500Y54725100D02*
X80975500Y54725100D01*
G04 #@! TO.N,/SD_MOSI*
X85725000Y38660000D02*
X85325000Y38660000D01*
X85325000Y38660000D02*
X84544200Y38660000D01*
X84544200Y38660000D02*
X84078100Y38853000D01*
X84078100Y38853000D02*
X82978000Y39953100D01*
X82978000Y39953100D02*
X82785000Y40419200D01*
X82785000Y40419200D02*
X82785000Y41980800D01*
X82785000Y41980800D02*
X84055000Y49346100D01*
X84055000Y49346100D02*
X84798900Y50090000D01*
X84798900Y50090000D02*
X86651100Y50090000D01*
X86651100Y50090000D02*
X87395000Y50833900D01*
X87395000Y50833900D02*
X87395000Y51886100D01*
X87395000Y51886100D02*
X87395000Y54426100D01*
X87395000Y54426100D02*
X86651100Y55170000D01*
X86651100Y55170000D02*
X84798900Y55170000D01*
X84798900Y55170000D02*
X83635100Y55752900D01*
X83635100Y55752900D02*
X83469000Y55852500D01*
X83469000Y55852500D02*
X81375500Y57265100D01*
X81375500Y57265100D02*
X80975500Y57265100D01*
G04 #@! TO.N,/SD_SCK*
X85725000Y56440000D02*
X85325000Y56440000D01*
X85325000Y56440000D02*
X84547700Y56457700D01*
X84547700Y56457700D02*
X84088200Y56648000D01*
X84088200Y56648000D02*
X82993000Y57743200D01*
X82993000Y57743200D02*
X82871500Y57943400D01*
X82871500Y57943400D02*
X81375500Y59805100D01*
X81375500Y59805100D02*
X80975500Y59805100D01*
G04 #@! TO.N,/SD_CS*
X85725000Y58980000D02*
X85325000Y58980000D01*
X85325000Y58980000D02*
X83829000Y60841700D01*
X83829000Y60841700D02*
X83707500Y61041900D01*
X83707500Y61041900D02*
X82612300Y62137100D01*
X82612300Y62137100D02*
X82152800Y62327400D01*
X82152800Y62327400D02*
X81375500Y62345100D01*
X81375500Y62345100D02*
X80975500Y62345100D01*
G04 #@! TO.N,/SERVO*
X107950000Y12700000D02*
X116642000Y33667600D01*
X116642000Y33667600D02*
X116646800Y33682400D01*
X116646800Y33682400D02*
X116772200Y34180100D01*
X116772200Y34180100D02*
X116776300Y34205900D01*
X116776300Y34205900D02*
X116776300Y34301400D01*
X116776300Y34301400D02*
X116776300Y36338600D01*
X116776300Y36338600D02*
X116776300Y37938600D01*
X116776300Y37938600D02*
X116645500Y39761200D01*
X116645500Y39761200D02*
X116644500Y39767400D01*
X116644500Y39767400D02*
X116075000Y42230800D01*
X116075000Y42230800D02*
X115978500Y42615000D01*
X115978500Y42615000D02*
X114065000Y49600800D01*
X114065000Y49600800D02*
X113872000Y50066900D01*
X113872000Y50066900D02*
X112771900Y51167000D01*
X112771900Y51167000D02*
X112305800Y51360000D01*
X112305800Y51360000D02*
X111525000Y51360000D01*
X111525000Y51360000D02*
X111125000Y51360000D01*
G04 #@! TO.N,/FAN*
X111125000Y71680000D02*
X110725000Y71680000D01*
X110725000Y71680000D02*
X109944200Y71680000D01*
X109944200Y71680000D02*
X109478100Y71487000D01*
X109478100Y71487000D02*
X86651100Y57710000D01*
X86651100Y57710000D02*
X85598900Y57710000D01*
X85598900Y57710000D02*
X84798900Y57710000D01*
X84798900Y57710000D02*
X84055000Y58453900D01*
X84055000Y58453900D02*
X82645500Y60331200D01*
X82645500Y60331200D02*
X81901600Y61075100D01*
X81901600Y61075100D02*
X81101600Y61075100D01*
X81101600Y61075100D02*
X80049400Y61075100D01*
X80049400Y61075100D02*
X79305500Y60331200D01*
X79305500Y60331200D02*
X77469700Y58084500D01*
X77469700Y58084500D02*
X77226500Y57775700D01*
X77226500Y57775700D02*
X75974300Y56523500D01*
X75974300Y56523500D02*
X75096000Y55795400D01*
X75096000Y55795400D02*
X74792300Y55669600D01*
X74792300Y55669600D02*
X73104800Y55669600D01*
X73104800Y55669600D02*
X72856100Y55566600D01*
X72856100Y55566600D02*
X72445100Y55212900D01*
X72445100Y55212900D02*
X72400900Y55186400D01*
X72400900Y55186400D02*
X71900600Y54979000D01*
X71900600Y54979000D02*
X71850600Y54966400D01*
X71850600Y54966400D02*
X70221200Y54966400D01*
X70221200Y54966400D02*
X70171200Y54979000D01*
X70171200Y54979000D02*
X69670900Y55186400D01*
X69670900Y55186400D02*
X69626700Y55212900D01*
X69626700Y55212900D02*
X68615700Y56221800D01*
X68615700Y56221800D02*
X68035500Y56221800D01*
X68035500Y56221800D02*
X62511800Y55061300D01*
X62511800Y55061300D02*
X60462200Y55061300D01*
X60462200Y55061300D02*
X59662200Y55061300D01*
X59662200Y55061300D02*
X58084000Y55111300D01*
X58084000Y55111300D02*
X57033600Y55209300D01*
X57033600Y55209300D02*
X55331400Y55209200D01*
X55331400Y55209200D02*
X53993000Y55150900D01*
X53993000Y55150900D02*
X53077800Y54815300D01*
X53077800Y54815300D02*
X52621500Y54700800D01*
X52621500Y54700800D02*
X52484300Y54675400D01*
X52484300Y54675400D02*
X52431800Y54653600D01*
X52431800Y54653600D02*
X51648200Y53870000D01*
X51648200Y53870000D02*
X44400300Y37535100D01*
X44400300Y37535100D02*
X44358000Y37432900D01*
X44358000Y37432900D02*
X42037000Y29210000D01*
X42037000Y24130000D02*
X42037000Y29210000D01*
G04 #@! TO.N,/I2S_DATA*
X10910100Y92710000D02*
X10910100Y93110000D01*
X10910100Y93110000D02*
X10910100Y93890800D01*
X10910100Y93890800D02*
X10717100Y94356900D01*
X10717100Y94356900D02*
X9617000Y95457000D01*
X9617000Y95457000D02*
X7532500Y96361900D01*
X7532500Y96361900D02*
X6930300Y96611500D01*
X6930300Y96611500D02*
X6737300Y96660000D01*
X6737300Y96660000D02*
X4922900Y96660000D01*
X4922900Y96660000D02*
X4729900Y96611500D01*
X4729900Y96611500D02*
X4127700Y96361900D01*
X4127700Y96361900D02*
X3956900Y96259500D01*
X3956900Y96259500D02*
X2680600Y94983200D01*
X2680600Y94983200D02*
X2578200Y94812400D01*
X2578200Y94812400D02*
X2328600Y94210200D01*
X2328600Y94210200D02*
X2280100Y94017200D01*
X2280100Y94017200D02*
X1130000Y77300300D01*
X1130000Y77300300D02*
X552000Y49231300D01*
X552000Y49231300D02*
X552000Y5977300D01*
X552000Y5977300D02*
X552000Y4360700D01*
X552000Y4360700D02*
X562100Y4320600D01*
X562100Y4320600D02*
X766600Y3827300D01*
X766600Y3827300D02*
X787900Y3791800D01*
X787900Y3791800D02*
X2064300Y2515400D01*
X2064300Y2515400D02*
X3201200Y1378500D01*
X3201200Y1378500D02*
X4037000Y755400D01*
X4037000Y755400D02*
X4047100Y749300D01*
X4047100Y749300D02*
X4519900Y553300D01*
X4519900Y553300D02*
X4531300Y550400D01*
X4531300Y550400D02*
X101374900Y550300D01*
X101374900Y550300D02*
X101525900Y588200D01*
X101525900Y588200D02*
X112400700Y3530000D01*
X112400700Y3530000D02*
X112840000Y3969300D01*
X112840000Y3969300D02*
X117559900Y34143700D01*
X117559900Y34143700D02*
X117559900Y34209700D01*
X117559900Y34209700D02*
X117559900Y36430300D01*
X117559900Y36430300D02*
X117559900Y38030300D01*
X117559900Y38030300D02*
X117559600Y39833800D01*
X117559600Y39833800D02*
X117540900Y39951100D01*
X117540900Y39951100D02*
X117065700Y42393700D01*
X117065700Y42393700D02*
X116935200Y42911700D01*
X116935200Y42911700D02*
X115026500Y49920200D01*
X115026500Y49920200D02*
X114776900Y50522400D01*
X114776900Y50522400D02*
X114674500Y50693200D01*
X114674500Y50693200D02*
X113398200Y51969500D01*
X113398200Y51969500D02*
X113227400Y52071900D01*
X113227400Y52071900D02*
X112051100Y52630000D01*
X112051100Y52630000D02*
X110198900Y52630000D01*
X110198900Y52630000D02*
X109455000Y53373900D01*
X109455000Y53373900D02*
X108369600Y55187500D01*
X108369600Y55187500D02*
X108175000Y55657200D01*
X108175000Y55657200D02*
X108175000Y57222800D01*
X108175000Y57222800D02*
X108185000Y59760800D01*
X108185000Y59760800D02*
X108378000Y60226900D01*
X108378000Y60226900D02*
X109478100Y61327000D01*
X109478100Y61327000D02*
X109944200Y61520000D01*
X109944200Y61520000D02*
X110725000Y61520000D01*
X110725000Y61520000D02*
X111125000Y61520000D01*
G04 #@! TO.N,/I2S_BCK*
X48037900Y83993600D02*
X48037900Y84393600D01*
X48037900Y84393600D02*
X48037900Y85174400D01*
X48037900Y85174400D02*
X46767900Y90687500D01*
X46767900Y90687500D02*
X46767900Y92539700D01*
X46767900Y92539700D02*
X46703800Y93438800D01*
X18530100Y92710000D02*
X18530100Y93110000D01*
X18530100Y93110000D02*
X18530100Y93890800D01*
X18530100Y93890800D02*
X18723100Y94356900D01*
X18723100Y94356900D02*
X19823200Y95457000D01*
X19823200Y95457000D02*
X20289300Y95650000D01*
X20289300Y95650000D02*
X27659300Y95990000D01*
X27659300Y95990000D02*
X29720900Y95990000D01*
X29720900Y95990000D02*
X47296100Y95916700D01*
X47296100Y95916700D02*
X47472300Y95916700D01*
X47472300Y95916700D02*
X53805300Y95225700D01*
X53805300Y95225700D02*
X54545500Y95225700D01*
X54545500Y95225700D02*
X59038100Y96304400D01*
X59038100Y96304400D02*
X60837700Y96304400D01*
X60837700Y96304400D02*
X62437700Y96304400D01*
X62437700Y96304400D02*
X62619500Y96258800D01*
X62619500Y96258800D02*
X63213600Y96012400D01*
X63213600Y96012400D02*
X63374400Y95916100D01*
X63374400Y95916100D02*
X64640400Y94650100D01*
X64640400Y94650100D02*
X64736700Y94489300D01*
X64736700Y94489300D02*
X65405000Y92964000D01*
X69850000Y92964000D02*
X65405000Y92964000D01*
X111125000Y58980000D02*
X111525000Y58980000D01*
X111525000Y58980000D02*
X112305800Y58980000D01*
X112305800Y58980000D02*
X112771900Y59173000D01*
X112771900Y59173000D02*
X113872000Y60273100D01*
X113872000Y60273100D02*
X116506400Y64045100D01*
X116506400Y64045100D02*
X116603800Y64280200D01*
X116603800Y64280200D02*
X116603800Y65591800D01*
X116603800Y65591800D02*
X116559500Y65937300D01*
X116559500Y65937300D02*
X116559500Y67105300D01*
X116559500Y67105300D02*
X116645500Y68038800D01*
X116645500Y68038800D02*
X116645500Y69695600D01*
X116645500Y69695600D02*
X116776300Y70568400D01*
X116776300Y70568400D02*
X116776300Y76188100D01*
X116776300Y76188100D02*
X116790700Y76851300D01*
X116790700Y76851300D02*
X116790700Y77488900D01*
X116790700Y77488900D02*
X116799300Y78186500D01*
X116799300Y78186500D02*
X116799300Y80052100D01*
X116799300Y80052100D02*
X116799300Y81511100D01*
X116799300Y81511100D02*
X116788000Y81627200D01*
X116788000Y81627200D02*
X116774300Y82908000D01*
X116774300Y82908000D02*
X116774300Y82951500D01*
X116774300Y82951500D02*
X116770800Y82973300D01*
X116770800Y82973300D02*
X116646100Y83468400D01*
X116646100Y83468400D02*
X116642000Y83480900D01*
X116642000Y83480900D02*
X115637700Y85928000D01*
X115637700Y85928000D02*
X115328900Y86673000D01*
X115328900Y86673000D02*
X115120100Y87021300D01*
X115120100Y87021300D02*
X113660700Y88480700D01*
X113660700Y88480700D02*
X112848200Y89003400D01*
X112848200Y89003400D02*
X112770500Y89050100D01*
X112770500Y89050100D02*
X111558600Y89598400D01*
X111558600Y89598400D02*
X110895200Y89873400D01*
X110895200Y89873400D02*
X90256200Y96436000D01*
X90256200Y96436000D02*
X90007900Y96498300D01*
X90007900Y96498300D02*
X88360800Y96498300D01*
X88360800Y96498300D02*
X86569200Y96498300D01*
X86569200Y96498300D02*
X86538300Y96498300D01*
X86538300Y96498300D02*
X84748700Y96349700D01*
X84748700Y96349700D02*
X69850000Y92964000D01*
G04 #@! TO.N,/I2S_WS*
X50577900Y83993600D02*
X50577900Y83593600D01*
X50577900Y83593600D02*
X52431800Y82085900D01*
X52431800Y82085900D02*
X52534000Y82043600D01*
X52534000Y82043600D02*
X53701800Y82043600D01*
X53701800Y82043600D02*
X56184000Y82323600D01*
X56184000Y82323600D02*
X56927900Y83067500D01*
X56927900Y83067500D02*
X56927900Y84119700D01*
X56927900Y84119700D02*
X56927900Y84919700D01*
X56927900Y84919700D02*
X54387900Y90687500D01*
X54387900Y90687500D02*
X54387900Y92539700D01*
X54387900Y92539700D02*
X54337600Y93438900D01*
X15990100Y92710000D02*
X15990100Y93110000D01*
X15990100Y93110000D02*
X19196900Y96259500D01*
X19196900Y96259500D02*
X19367700Y96361900D01*
X19367700Y96361900D02*
X19969900Y96611500D01*
X19969900Y96611500D02*
X20162900Y96660000D01*
X20162900Y96660000D02*
X27554800Y96990000D01*
X27554800Y96990000D02*
X29825400Y96990000D01*
X29825400Y96990000D02*
X47710300Y96916700D01*
X47710300Y96916700D02*
X54175400Y96119100D01*
X111125000Y56440000D02*
X111525000Y56440000D01*
X111525000Y56440000D02*
X114674500Y59646800D01*
X114674500Y59646800D02*
X117299500Y63486000D01*
X117299500Y63486000D02*
X117332700Y63541300D01*
X117332700Y63541300D02*
X117543900Y64050600D01*
X117543900Y64050600D02*
X117559600Y64113200D01*
X117559600Y64113200D02*
X117559900Y81626000D01*
X117559900Y81626000D02*
X117559900Y83013800D01*
X117559900Y83013800D02*
X117541200Y83131200D01*
X117541200Y83131200D02*
X117401400Y83686100D01*
X117401400Y83686100D02*
X116594900Y86222800D01*
X116594900Y86222800D02*
X116582800Y86259800D01*
X116582800Y86259800D02*
X116231700Y87107000D01*
X116231700Y87107000D02*
X116214000Y87141800D01*
X116214000Y87141800D02*
X115936400Y87605300D01*
X115936400Y87605300D02*
X115898100Y87658000D01*
X115898100Y87658000D02*
X114297400Y89258700D01*
X114297400Y89258700D02*
X114244700Y89297000D01*
X114244700Y89297000D02*
X113468100Y89797700D01*
X113468100Y89797700D02*
X113221300Y89945700D01*
X113221300Y89945700D02*
X112009500Y90494000D01*
X112009500Y90494000D02*
X111210000Y90825400D01*
X111210000Y90825400D02*
X90489600Y97142000D01*
X90489600Y97142000D02*
X90099500Y97239900D01*
X90099500Y97239900D02*
X88452500Y97239900D01*
X88452500Y97239900D02*
X86477500Y97239900D01*
X86477500Y97239900D02*
X58922500Y97239600D01*
X58922500Y97239600D02*
X54175400Y96119100D01*
D26*
G04 #@! TO.N,/BED*
X51207200Y55528000D02*
X50993800Y55482700D01*
X51207200Y55528000D02*
X51102200Y55336700D01*
X53367600Y56427600D02*
X53585100Y56411400D01*
X53367600Y56427600D02*
X53521900Y56581800D01*
D25*
X15367000Y29210000D02*
X16437000Y28512100D01*
X16437000Y28512100D02*
X15367000Y24130000D01*
X85725000Y66600000D02*
X85325000Y66600000D01*
X85325000Y66600000D02*
X80592700Y64895100D01*
X80592700Y64895100D02*
X79849100Y64611400D01*
X79849100Y64611400D02*
X79483700Y64460000D01*
X79483700Y64460000D02*
X78460600Y63436900D01*
X78460600Y63436900D02*
X78309200Y63071500D01*
X78309200Y63071500D02*
X78213700Y62260600D01*
X78213700Y62260600D02*
X78208800Y62241300D01*
X78208800Y62241300D02*
X78010400Y61762700D01*
X78010400Y61762700D02*
X78000100Y61745600D01*
X78000100Y61745600D02*
X77710800Y61456000D01*
X77710800Y61456000D02*
X77644800Y61345800D01*
X77644800Y61345800D02*
X76059900Y58632900D01*
X76059900Y58632900D02*
X75117100Y57690100D01*
X75117100Y57690100D02*
X74389000Y57068500D01*
X74389000Y57068500D02*
X72885900Y57068500D01*
X72885900Y57068500D02*
X72731500Y57029700D01*
X72731500Y57029700D02*
X72156900Y56791500D01*
X72156900Y56791500D02*
X72020400Y56709700D01*
X72020400Y56709700D02*
X71637500Y56386800D01*
X71637500Y56386800D02*
X71590100Y56367200D01*
X71590100Y56367200D02*
X70481700Y56367200D01*
X70481700Y56367200D02*
X70434300Y56386800D01*
X70434300Y56386800D02*
X69323900Y57496400D01*
X69323900Y57496400D02*
X69019100Y57622600D01*
X69019100Y57622600D02*
X67632100Y57622600D01*
X67632100Y57622600D02*
X62316400Y56642000D01*
X62316400Y56642000D02*
X60657600Y56642000D01*
X60657600Y56642000D02*
X59857600Y56642000D01*
X59857600Y56642000D02*
X57262700Y56850800D01*
X57262700Y56850800D02*
X55102300Y56850700D01*
X55102300Y56850700D02*
X53788200Y56560200D01*
X53788200Y56560200D02*
X53592600Y56511100D01*
D26*
X51014600Y55384800D02*
X51663600Y55867300D01*
X51663600Y55867300D02*
X52167800Y56076400D01*
X52167800Y56076400D02*
X52223200Y56090300D01*
X52223200Y56090300D02*
X52447500Y56108500D01*
X52447500Y56108500D02*
X52634700Y56155500D01*
X52634700Y56155500D02*
X53592600Y56511100D01*
D25*
X51014600Y55384800D02*
X21843600Y29530700D01*
X21843600Y29530700D02*
X16437000Y28512100D01*
G04 #@! TO.N,/NOZZLE*
X85725000Y71680000D02*
X86125000Y71680000D01*
X86125000Y71680000D02*
X87632700Y69826100D01*
X87632700Y69826100D02*
X87675000Y69723900D01*
X87675000Y69723900D02*
X87675000Y68556100D01*
X87675000Y68556100D02*
X87395000Y66073900D01*
X87395000Y66073900D02*
X86651100Y65330000D01*
X86651100Y65330000D02*
X84798900Y65330000D01*
X84798900Y65330000D02*
X80019800Y63753200D01*
X80019800Y63753200D02*
X79969800Y63732500D01*
X79969800Y63732500D02*
X79188100Y62950800D01*
X79188100Y62950800D02*
X79167400Y62900800D01*
X79167400Y62900800D02*
X79094100Y62151800D01*
X79094100Y62151800D02*
X79047000Y61964100D01*
X79047000Y61964100D02*
X78798900Y61365800D01*
X78798900Y61365800D02*
X78699400Y61199800D01*
X78699400Y61199800D02*
X78422800Y60922200D01*
X78422800Y60922200D02*
X77773200Y59889000D01*
X77773200Y59889000D02*
X76778500Y58406800D01*
X76778500Y58406800D02*
X76658300Y58219200D01*
X76658300Y58219200D02*
X75530800Y57091700D01*
X75530800Y57091700D02*
X74699800Y56388300D01*
X74699800Y56388300D02*
X74653200Y56369000D01*
X74653200Y56369000D02*
X72972300Y56369000D01*
X72972300Y56369000D02*
X72951700Y56363800D01*
X72951700Y56363800D02*
X72472300Y56165000D01*
X72472300Y56165000D02*
X72454000Y56154100D01*
X72454000Y56154100D02*
X72034200Y55793000D01*
X72034200Y55793000D02*
X71729400Y55666800D01*
X71729400Y55666800D02*
X70342400Y55666800D01*
X70342400Y55666800D02*
X70037600Y55793000D01*
X70037600Y55793000D02*
X68927200Y56902600D01*
X68927200Y56902600D02*
X68879800Y56922200D01*
X68879800Y56922200D02*
X67771400Y56922200D01*
X67771400Y56922200D02*
X62414100Y55851700D01*
X62414100Y55851700D02*
X60559900Y55851700D01*
X60559900Y55851700D02*
X59759900Y55851700D01*
X59759900Y55851700D02*
X58187900Y55951700D01*
X58187900Y55951700D02*
X57161300Y56030000D01*
X57161300Y56030000D02*
X56890300Y56030000D01*
X56890300Y56030000D02*
X55203700Y56030000D01*
X55203700Y56030000D02*
X53875300Y55855600D01*
X53875300Y55855600D02*
X53814400Y55840300D01*
X53814400Y55840300D02*
X52856300Y55485400D01*
X52856300Y55485400D02*
X52534500Y55404600D01*
X52534500Y55404600D02*
X52343600Y55382800D01*
X52343600Y55382800D02*
X52031000Y55253300D01*
X52031000Y55253300D02*
X51048500Y54270800D01*
X51048500Y54270800D02*
X28702000Y29210000D01*
X28702000Y24130000D02*
X28702000Y29210000D01*
G04 #@! TO.N,Net-(Q1-Pad1)*
X43942000Y19050000D02*
X43392000Y20000000D01*
X43392000Y20000000D02*
X43142000Y20000000D01*
X43142000Y20000000D02*
X43038400Y20000000D01*
X43038400Y20000000D02*
X42084600Y20952400D01*
X42084600Y20952400D02*
X40784500Y21774600D01*
X40784500Y21774600D02*
X39681600Y22877500D01*
X39681600Y22877500D02*
X38862000Y24130000D01*
G04 #@! TO.N,Net-(Q2-Pad1)*
X25527000Y24130000D02*
X26852500Y23330400D01*
X34227500Y18407200D02*
X32042000Y18407200D01*
X32042000Y18407200D02*
X31792000Y18407200D01*
X31792000Y18407200D02*
X31242000Y19050000D01*
G04 #@! TO.N,Net-(Q3-Pad1)*
X52197000Y24130000D02*
X52112000Y18448600D01*
X52112000Y18448600D02*
X52112000Y18345000D01*
X52112000Y18345000D02*
X52112000Y18095000D01*
X52112000Y18095000D02*
X51562000Y17145000D01*
G04 #@! TO.N,Net-(U3-Pad9)*
X23610100Y92710000D02*
X23610100Y93110000D01*
X23610100Y93110000D02*
X27907300Y93990000D01*
X27907300Y93990000D02*
X45522000Y94239500D01*
X45522000Y94239500D02*
X46361700Y94264800D01*
X46361700Y94264800D02*
X47045900Y94264800D01*
X47045900Y94264800D02*
X48564000Y93283600D01*
X48564000Y93283600D02*
X49307900Y92539700D01*
X49307900Y92539700D02*
X49307900Y90687500D01*
X49307900Y90687500D02*
X50051800Y89943600D01*
X50051800Y89943600D02*
X55657900Y84393600D01*
X55657900Y84393600D02*
X55657900Y83993600D01*
D24*
G04 #@! TO.N,/PWR_IN*
X7112000Y23575000D02*
X7112000Y15495000D01*
X7112000Y15495000D02*
X6857000Y15240000D01*
X6857000Y15240000D02*
X6857000Y6350000D01*
G04 #@! TD*
M02*
