<?xml version="1.0" standalone="no"?>
<!DOCTYPE svg PUBLIC "-//W3C//DTD SVG 1.1//EN"
"http://www.w3.org/Graphics/SVG/1.1/DTD/svg11.dtd">
<svg width="593.104" height="369.22" viewBox="0 0 12356.3 7692.09" version="1.1"
xmlns="http://www.w3.org/2000/svg"
xmlns:xlink="http://www.w3.org/1999/xlink">
<circle cx="2038.82" cy="5880.31" r="31.4961" style=""/>
<circle cx="2338.82" cy="5880.31" r="31.4961" style=""/>
<circle cx="2708.82" cy="5380.31" r="31.4961" style=""/>
<circle cx="3058.82" cy="5880.31" r="31.4961" style=""/>
<circle cx="3358.82" cy="5880.31" r="31.4961" style=""/>
<circle cx="4098.82" cy="6230.31" r="31.4961" style=""/>
<circle cx="4298.82" cy="6230.31" r="31.4961" style=""/>
<circle cx="4498.82" cy="6230.31" r="31.4961" style=""/>
<circle cx="4698.82" cy="6230.31" r="31.4961" style=""/>
<circle cx="4898.82" cy="6230.31" r="31.4961" style=""/>
<circle cx="5098.82" cy="6230.31" r="31.4961" style=""/>
<circle cx="5298.82" cy="6230.31" r="31.4961" style=""/>
<circle cx="5498.82" cy="6230.31" r="31.4961" style=""/>
<circle cx="5698.82" cy="6230.31" r="31.4961" style=""/>
<circle cx="6178.82" cy="6530.31" r="31.4961" style=""/>
<circle cx="5498.82" cy="6890.31" r="31.4961" style=""/>
<circle cx="5892.52" cy="6890.31" r="31.4961" style=""/>
<circle cx="6148.82" cy="6890.31" r="31.4961" style=""/>
<circle cx="6542.52" cy="6890.31" r="31.4961" style=""/>
<circle cx="6798.82" cy="6890.31" r="31.4961" style=""/>
<circle cx="6578.82" cy="6530.31" r="31.4961" style=""/>
<circle cx="6978.82" cy="6530.31" r="31.4961" style=""/>
<circle cx="7192.52" cy="6890.31" r="31.4961" style=""/>
<circle cx="7598.82" cy="6780.31" r="31.4961" style=""/>
<circle cx="7756.3" cy="6780.31" r="31.4961" style=""/>
<circle cx="8198.82" cy="6780.31" r="31.4961" style=""/>
<circle cx="8356.3" cy="6780.31" r="31.4961" style=""/>
<circle cx="8198.82" cy="6280.31" r="31.4961" style=""/>
<circle cx="8592.52" cy="6280.31" r="31.4961" style=""/>
<circle cx="8918.82" cy="5760.31" r="31.4961" style=""/>
<circle cx="8918.82" cy="5320.31" r="31.4961" style=""/>
<circle cx="9398.82" cy="4730.31" r="31.4961" style=""/>
<circle cx="9598.82" cy="4730.31" r="31.4961" style=""/>
<circle cx="9798.82" cy="4730.31" r="31.4961" style=""/>
<circle cx="9998.82" cy="4730.31" r="31.4961" style=""/>
<circle cx="10198.8" cy="4730.31" r="31.4961" style=""/>
<circle cx="10398.8" cy="4730.31" r="31.4961" style=""/>
<circle cx="10598.8" cy="4730.31" r="31.4961" style=""/>
<circle cx="10798.8" cy="4730.31" r="31.4961" style=""/>
<circle cx="10998.8" cy="4730.31" r="31.4961" style=""/>
<circle cx="11198.8" cy="4730.31" r="31.4961" style=""/>
<circle cx="11398.8" cy="4730.31" r="31.4961" style=""/>
<circle cx="11598.8" cy="4730.31" r="31.4961" style=""/>
<circle cx="11798.8" cy="4730.31" r="31.4961" style=""/>
<circle cx="11998.8" cy="4730.31" r="31.4961" style=""/>
<circle cx="12198.8" cy="4730.31" r="31.4961" style=""/>
<circle cx="11598.8" cy="2730.31" r="31.4961" style=""/>
<circle cx="11798.8" cy="2730.31" r="31.4961" style=""/>
<circle cx="11998.8" cy="2730.31" r="31.4961" style=""/>
<circle cx="12198.8" cy="2730.31" r="31.4961" style=""/>
<circle cx="11998.3" cy="2080.63" r="31.4961" style=""/>
<circle cx="12014.2" cy="1834.72" r="31.4961" style=""/>
<circle cx="11003.5" cy="2233.15" r="31.4961" style=""/>
<circle cx="11398.8" cy="2730.31" r="31.4961" style=""/>
<circle cx="11198.8" cy="2730.31" r="31.4961" style=""/>
<circle cx="10998.8" cy="2730.31" r="31.4961" style=""/>
<circle cx="10798.8" cy="2730.31" r="31.4961" style=""/>
<circle cx="10598.8" cy="2730.31" r="31.4961" style=""/>
<circle cx="10398.8" cy="2730.31" r="31.4961" style=""/>
<circle cx="10366.1" cy="2526.38" r="31.4961" style=""/>
<circle cx="10198.8" cy="2730.31" r="31.4961" style=""/>
<circle cx="9998.82" cy="2730.31" r="31.4961" style=""/>
<circle cx="9798.82" cy="2730.31" r="31.4961" style=""/>
<circle cx="9598.82" cy="2730.31" r="31.4961" style=""/>
<circle cx="9398.82" cy="2730.31" r="31.4961" style=""/>
<circle cx="9198.82" cy="2730.31" r="31.4961" style=""/>
<circle cx="8998.82" cy="2730.31" r="31.4961" style=""/>
<circle cx="8798.82" cy="2730.31" r="31.4961" style=""/>
<circle cx="8598.82" cy="2730.31" r="31.4961" style=""/>
<circle cx="7752.52" cy="3440.31" r="31.4961" style=""/>
<circle cx="7518.82" cy="3960.31" r="31.4961" style=""/>
<circle cx="7715.67" cy="3960.31" r="31.4961" style=""/>
<circle cx="7521.97" cy="4760.31" r="31.4961" style=""/>
<circle cx="7718.82" cy="4760.31" r="31.4961" style=""/>
<circle cx="7365.12" cy="5320.31" r="31.4961" style=""/>
<circle cx="7758.82" cy="5320.31" r="31.4961" style=""/>
<circle cx="8598.82" cy="4730.31" r="31.4961" style=""/>
<circle cx="8798.82" cy="4730.31" r="31.4961" style=""/>
<circle cx="8998.82" cy="4730.31" r="31.4961" style=""/>
<circle cx="9198.82" cy="4730.31" r="31.4961" style=""/>
<circle cx="8118.82" cy="5320.31" r="31.4961" style=""/>
<circle cx="8118.82" cy="5760.31" r="31.4961" style=""/>
<circle cx="7798.82" cy="6280.31" r="31.4961" style=""/>
<circle cx="7405.12" cy="6280.31" r="31.4961" style=""/>
<circle cx="6978.82" cy="5730.31" r="31.4961" style=""/>
<circle cx="6434.8" cy="5126.93" r="31.4961" style=""/>
<circle cx="6578.82" cy="5730.31" r="31.4961" style=""/>
<circle cx="6178.82" cy="5730.31" r="31.4961" style=""/>
<circle cx="5698.82" cy="5630.31" r="31.4961" style=""/>
<circle cx="5498.82" cy="5630.31" r="31.4961" style=""/>
<circle cx="5298.82" cy="5630.31" r="31.4961" style=""/>
<circle cx="5098.82" cy="5630.31" r="31.4961" style=""/>
<circle cx="4898.82" cy="5630.31" r="31.4961" style=""/>
<circle cx="4698.82" cy="5630.31" r="31.4961" style=""/>
<circle cx="4498.82" cy="5630.31" r="31.4961" style=""/>
<circle cx="4298.82" cy="5630.31" r="31.4961" style=""/>
<circle cx="4098.82" cy="5630.31" r="31.4961" style=""/>
<circle cx="3936.85" cy="5150.16" r="31.4961" style=""/>
<circle cx="3358.82" cy="5080.31" r="31.4961" style=""/>
<circle cx="3058.82" cy="5080.31" r="31.4961" style=""/>
<circle cx="3158.82" cy="4780.31" r="31.4961" style=""/>
<circle cx="3158.82" cy="4580.31" r="31.4961" style=""/>
<circle cx="3433.94" cy="3960.55" r="31.4961" style=""/>
<circle cx="3348.82" cy="3174.02" r="31.4961" style=""/>
<circle cx="3568.82" cy="3060.31" r="31.4961" style=""/>
<circle cx="3898.82" cy="2980.31" r="31.4961" style=""/>
<circle cx="4098.82" cy="2980.31" r="31.4961" style=""/>
<circle cx="4298.82" cy="2980.31" r="31.4961" style=""/>
<circle cx="4498.82" cy="2980.31" r="31.4961" style=""/>
<circle cx="4698.82" cy="2980.31" r="31.4961" style=""/>
<circle cx="4898.82" cy="2980.31" r="31.4961" style=""/>
<circle cx="5098.82" cy="2980.31" r="31.4961" style=""/>
<circle cx="5298.82" cy="2980.31" r="31.4961" style=""/>
<circle cx="5598.82" cy="2980.31" r="31.4961" style=""/>
<circle cx="5391.26" cy="3377.24" r="31.4961" style=""/>
<circle cx="5638.82" cy="3400.31" r="31.4961" style=""/>
<circle cx="7358.82" cy="3440.31" r="31.4961" style=""/>
<circle cx="6438.82" cy="3400.31" r="31.4961" style=""/>
<circle cx="6208.82" cy="3190.31" r="31.4961" style=""/>
<circle cx="5598.82" cy="2586.61" r="31.4961" style=""/>
<circle cx="5298.82" cy="2380.31" r="31.4961" style=""/>
<circle cx="5098.82" cy="2380.31" r="31.4961" style=""/>
<circle cx="4898.82" cy="2380.31" r="31.4961" style=""/>
<circle cx="4698.82" cy="2380.31" r="31.4961" style=""/>
<circle cx="4848.82" cy="1980.31" r="31.4961" style=""/>
<circle cx="5048.82" cy="1980.31" r="31.4961" style=""/>
<circle cx="5248.82" cy="1980.31" r="31.4961" style=""/>
<circle cx="5448.82" cy="1980.31" r="31.4961" style=""/>
<circle cx="5648.82" cy="1980.31" r="31.4961" style=""/>
<circle cx="5848.82" cy="1980.31" r="31.4961" style=""/>
<circle cx="6048.82" cy="1980.31" r="31.4961" style=""/>
<circle cx="6460.08" cy="2200.24" r="31.4961" style=""/>
<circle cx="6248.82" cy="1980.31" r="31.4961" style=""/>
<circle cx="6248.82" cy="980.315" r="31.4961" style=""/>
<circle cx="6048.82" cy="980.315" r="31.4961" style=""/>
<circle cx="5848.82" cy="980.315" r="31.4961" style=""/>
<circle cx="5648.82" cy="980.315" r="31.4961" style=""/>
<circle cx="5448.82" cy="980.315" r="31.4961" style=""/>
<circle cx="5248.82" cy="980.315" r="31.4961" style=""/>
<circle cx="5048.82" cy="980.315" r="31.4961" style=""/>
<circle cx="4848.82" cy="980.315" r="31.4961" style=""/>
<circle cx="5045.67" cy="480.315" r="31.4961" style=""/>
<circle cx="4848.82" cy="480.315" r="31.4961" style=""/>
<circle cx="4048.82" cy="980.315" r="31.4961" style=""/>
<circle cx="3848.82" cy="980.315" r="31.4961" style=""/>
<circle cx="3648.82" cy="980.315" r="31.4961" style=""/>
<circle cx="3448.82" cy="980.315" r="31.4961" style=""/>
<circle cx="3248.82" cy="980.315" r="31.4961" style=""/>
<circle cx="3048.82" cy="980.315" r="31.4961" style=""/>
<circle cx="2848.82" cy="980.315" r="31.4961" style=""/>
<circle cx="2648.82" cy="980.315" r="31.4961" style=""/>
<circle cx="2845.67" cy="480.315" r="31.4961" style=""/>
<circle cx="2648.82" cy="480.315" r="31.4961" style=""/>
<circle cx="1848.82" cy="980.315" r="31.4961" style=""/>
<circle cx="1648.82" cy="980.315" r="31.4961" style=""/>
<circle cx="1448.82" cy="980.315" r="31.4961" style=""/>
<circle cx="1248.82" cy="980.315" r="31.4961" style=""/>
<circle cx="645.669" cy="480.315" r="31.4961" style=""/>
<circle cx="448.819" cy="480.315" r="31.4961" style=""/>
<circle cx="448.819" cy="980.315" r="31.4961" style=""/>
<circle cx="648.819" cy="980.315" r="31.4961" style=""/>
<circle cx="848.819" cy="980.315" r="31.4961" style=""/>
<circle cx="1048.82" cy="980.315" r="31.4961" style=""/>
<circle cx="2648.82" cy="1980.31" r="31.4961" style=""/>
<circle cx="2848.82" cy="1980.31" r="31.4961" style=""/>
<circle cx="3048.82" cy="1980.31" r="31.4961" style=""/>
<circle cx="3248.82" cy="1980.31" r="31.4961" style=""/>
<circle cx="3448.82" cy="1980.31" r="31.4961" style=""/>
<circle cx="3648.82" cy="1980.31" r="31.4961" style=""/>
<circle cx="3848.82" cy="1980.31" r="31.4961" style=""/>
<circle cx="4048.82" cy="1980.31" r="31.4961" style=""/>
<circle cx="4498.82" cy="2380.31" r="31.4961" style=""/>
<circle cx="4298.82" cy="2380.31" r="31.4961" style=""/>
<circle cx="4098.82" cy="2380.31" r="31.4961" style=""/>
<circle cx="3898.82" cy="2380.31" r="31.4961" style=""/>
<circle cx="3684.57" cy="2666.14" r="31.4961" style=""/>
<circle cx="3348.82" cy="2780.31" r="31.4961" style=""/>
<circle cx="2998.82" cy="2780.31" r="31.4961" style=""/>
<circle cx="2998.82" cy="2980.31" r="31.4961" style=""/>
<circle cx="2998.82" cy="3180.31" r="31.4961" style=""/>
<circle cx="2998.82" cy="3380.31" r="31.4961" style=""/>
<circle cx="2998.82" cy="3580.31" r="31.4961" style=""/>
<circle cx="2998.82" cy="3780.31" r="31.4961" style=""/>
<circle cx="2998.82" cy="3980.31" r="31.4961" style=""/>
<circle cx="2998.82" cy="4180.31" r="31.4961" style=""/>
<circle cx="2708.82" cy="4580.31" r="31.4961" style=""/>
<circle cx="2398.82" cy="4180.31" r="31.4961" style=""/>
<circle cx="2398.82" cy="3980.31" r="31.4961" style=""/>
<circle cx="2398.82" cy="3780.31" r="31.4961" style=""/>
<circle cx="2398.82" cy="3580.31" r="31.4961" style=""/>
<circle cx="2398.82" cy="3380.31" r="31.4961" style=""/>
<circle cx="2398.82" cy="3180.31" r="31.4961" style=""/>
<circle cx="2398.82" cy="2980.31" r="31.4961" style=""/>
<circle cx="2398.82" cy="2780.31" r="31.4961" style=""/>
<circle cx="1848.82" cy="1980.31" r="31.4961" style=""/>
<circle cx="1648.82" cy="1980.31" r="31.4961" style=""/>
<circle cx="1448.82" cy="1980.31" r="31.4961" style=""/>
<circle cx="1248.82" cy="1980.31" r="31.4961" style=""/>
<circle cx="1048.82" cy="1980.31" r="31.4961" style=""/>
<circle cx="848.819" cy="1980.31" r="31.4961" style=""/>
<circle cx="648.819" cy="1980.31" r="31.4961" style=""/>
<circle cx="448.819" cy="1980.31" r="31.4961" style=""/>
<circle cx="645.669" cy="2730.31" r="31.4961" style=""/>
<circle cx="448.819" cy="2730.31" r="31.4961" style=""/>
<circle cx="448.819" cy="3230.31" r="31.4961" style=""/>
<circle cx="648.819" cy="3230.31" r="31.4961" style=""/>
<circle cx="848.819" cy="3230.31" r="31.4961" style=""/>
<circle cx="1048.82" cy="3230.31" r="31.4961" style=""/>
<circle cx="1248.82" cy="3230.31" r="31.4961" style=""/>
<circle cx="1448.82" cy="3230.31" r="31.4961" style=""/>
<circle cx="1648.82" cy="3230.31" r="31.4961" style=""/>
<circle cx="1848.82" cy="3230.31" r="31.4961" style=""/>
<circle cx="448.819" cy="4230.31" r="31.4961" style=""/>
<circle cx="648.819" cy="4230.31" r="31.4961" style=""/>
<circle cx="848.819" cy="4230.31" r="31.4961" style=""/>
<circle cx="1048.82" cy="4230.31" r="31.4961" style=""/>
<circle cx="1248.82" cy="4230.31" r="31.4961" style=""/>
<circle cx="1448.82" cy="4230.31" r="31.4961" style=""/>
<circle cx="1658.82" cy="4530.31" r="31.4961" style=""/>
<circle cx="1648.82" cy="4230.31" r="31.4961" style=""/>
<circle cx="1848.82" cy="4230.31" r="31.4961" style=""/>
<circle cx="2158.82" cy="4580.31" r="31.4961" style=""/>
<circle cx="2158.82" cy="4780.31" r="31.4961" style=""/>
<circle cx="2338.82" cy="5080.31" r="31.4961" style=""/>
<circle cx="2038.82" cy="5080.31" r="31.4961" style=""/>
<circle cx="1658.82" cy="5330.31" r="31.4961" style=""/>
<circle cx="538.74" cy="7180.31" r="39.3701" style=""/>
<circle cx="908.819" cy="7180.31" r="39.3701" style=""/>
<circle cx="1278.9" cy="7180.31" r="39.3701" style=""/>
<circle cx="1278.9" cy="6480.31" r="39.3701" style=""/>
<circle cx="908.819" cy="6480.31" r="39.3701" style=""/>
<circle cx="538.74" cy="6480.31" r="39.3701" style=""/>
<circle cx="558.819" cy="5824.02" r="39.3701" style=""/>
<circle cx="558.819" cy="5430.31" r="39.3701" style=""/>
<circle cx="2098.82" cy="7030.31" r="39.3701" style=""/>
<circle cx="2492.52" cy="7030.31" r="39.3701" style=""/>
<circle cx="2898.82" cy="7030.31" r="39.3701" style=""/>
<circle cx="3292.52" cy="7030.31" r="39.3701" style=""/>
<circle cx="3698.82" cy="7030.31" r="39.3701" style=""/>
<circle cx="4092.52" cy="7030.31" r="39.3701" style=""/>
<circle cx="4798.82" cy="7280.31" r="39.3701" style=""/>
<circle cx="4998.82" cy="7280.31" r="39.3701" style=""/>
<circle cx="4798.82" cy="6880.31" r="39.3701" style=""/>
<circle cx="4998.82" cy="6880.31" r="39.3701" style=""/>
<circle cx="5598.82" cy="7280.31" r="39.3701" style=""/>
<circle cx="5798.82" cy="7280.31" r="39.3701" style=""/>
<circle cx="6198.82" cy="7270.31" r="39.3701" style=""/>
<circle cx="6398.82" cy="7270.31" r="39.3701" style=""/>
<circle cx="6798.82" cy="7270.31" r="39.3701" style=""/>
<circle cx="6998.82" cy="7270.31" r="39.3701" style=""/>
<circle cx="7598.82" cy="7280.31" r="39.3701" style=""/>
<circle cx="7798.82" cy="7280.31" r="39.3701" style=""/>
<circle cx="8198.82" cy="7280.31" r="39.3701" style=""/>
<circle cx="8398.82" cy="7280.31" r="39.3701" style=""/>
<circle cx="9499.53" cy="6440.94" r="39.3701" style=""/>
<circle cx="9699.53" cy="6440.94" r="39.3701" style=""/>
<circle cx="9499.53" cy="6640.94" r="39.3701" style=""/>
<circle cx="9699.53" cy="6640.94" r="39.3701" style=""/>
<circle cx="9499.53" cy="6840.94" r="39.3701" style=""/>
<circle cx="9699.53" cy="6840.94" r="39.3701" style=""/>
<circle cx="10738.8" cy="7080.31" r="39.3701" style=""/>
<circle cx="11158.8" cy="6380.31" r="39.3701" style=""/>
<circle cx="11158.8" cy="6180.31" r="39.3701" style=""/>
<circle cx="11158.8" cy="5980.31" r="39.3701" style=""/>
<circle cx="11158.8" cy="5780.31" r="39.3701" style=""/>
<circle cx="10958.8" cy="5780.31" r="39.3701" style=""/>
<circle cx="10958.8" cy="5980.31" r="39.3701" style=""/>
<circle cx="10958.8" cy="6180.31" r="39.3701" style=""/>
<circle cx="10958.8" cy="6380.31" r="39.3701" style=""/>
<circle cx="9699.53" cy="6240.94" r="39.3701" style=""/>
<circle cx="9499.53" cy="6240.94" r="39.3701" style=""/>
<circle cx="9699.53" cy="6040.94" r="39.3701" style=""/>
<circle cx="9499.53" cy="6040.94" r="39.3701" style=""/>
<circle cx="11658.8" cy="1930.31" r="39.3701" style=""/>
<circle cx="11658.8" cy="1730.31" r="39.3701" style=""/>
<circle cx="11658.8" cy="1530.31" r="39.3701" style=""/>
<circle cx="11658.8" cy="1330.31" r="39.3701" style=""/>
<circle cx="11658.8" cy="1130.31" r="39.3701" style=""/>
<circle cx="11658.8" cy="930.315" r="39.3701" style=""/>
<circle cx="10458.8" cy="260.315" r="39.3701" style=""/>
<circle cx="6833.62" cy="3740.31" r="39.3701" style=""/>
<circle cx="6833.62" cy="5140.31" r="39.3701" style=""/>
<circle cx="3684.02" cy="3740.31" r="39.3701" style=""/>
<circle cx="3684.02" cy="5140.31" r="39.3701" style=""/>
<circle cx="3458.82" cy="6180.31" r="39.3701" style=""/>
<circle cx="3258.82" cy="6180.31" r="39.3701" style=""/>
<circle cx="3058.82" cy="6180.31" r="39.3701" style=""/>
<circle cx="2458.82" cy="6180.31" r="39.3701" style=""/>
<circle cx="2258.82" cy="6180.31" r="39.3701" style=""/>
<circle cx="2058.82" cy="6180.31" r="39.3701" style=""/>
<circle cx="748.819" cy="4770.31" r="39.3701" style=""/>
<circle cx="1148.82" cy="2730.31" r="39.3701" style=""/>
<circle cx="1348.82" cy="2730.31" r="39.3701" style=""/>
<circle cx="1548.82" cy="2730.31" r="39.3701" style=""/>
<circle cx="1748.82" cy="2730.31" r="39.3701" style=""/>
<circle cx="2248.82" cy="1660.31" r="39.3701" style=""/>
<circle cx="1148.82" cy="480.315" r="39.3701" style=""/>
<circle cx="1348.82" cy="480.315" r="39.3701" style=""/>
<circle cx="1548.82" cy="480.315" r="39.3701" style=""/>
<circle cx="1748.82" cy="480.315" r="39.3701" style=""/>
<circle cx="3348.82" cy="480.315" r="39.3701" style=""/>
<circle cx="3548.82" cy="480.315" r="39.3701" style=""/>
<circle cx="3748.82" cy="480.315" r="39.3701" style=""/>
<circle cx="3948.82" cy="480.315" r="39.3701" style=""/>
<circle cx="5548.82" cy="480.315" r="39.3701" style=""/>
<circle cx="5748.82" cy="480.315" r="39.3701" style=""/>
<circle cx="5948.82" cy="480.315" r="39.3701" style=""/>
<circle cx="6148.82" cy="480.315" r="39.3701" style=""/>
</svg>
